<?xml version="1.0" encoding="UTF-8"?>
<svg xmlns="http://www.w3.org/2000/svg" xmlns:xlink="http://www.w3.org/1999/xlink" width="576pt" height="266pt" viewBox="0 0 576 266">
<defs>
<g>
<g id="glyph-0-0">
<path d="M 0.28125 0 L 0.28125 -6.3125 L 5.296875 -6.3125 L 5.296875 0 Z M 4.5 -0.796875 L 4.5 -5.515625 L 1.078125 -5.515625 L 1.078125 -0.796875 Z M 4.5 -0.796875 "/>
</g>
<g id="glyph-0-1">
<path d="M 0.28125 0 C 0.300781 -0.53125 0.40625 -0.988281 0.59375 -1.375 C 0.789062 -1.769531 1.164062 -2.128906 1.71875 -2.453125 L 2.546875 -2.921875 C 2.910156 -3.140625 3.164062 -3.328125 3.3125 -3.484375 C 3.550781 -3.710938 3.671875 -3.984375 3.671875 -4.296875 C 3.671875 -4.648438 3.5625 -4.929688 3.34375 -5.140625 C 3.132812 -5.359375 2.847656 -5.46875 2.484375 -5.46875 C 1.960938 -5.46875 1.597656 -5.265625 1.390625 -4.859375 C 1.285156 -4.648438 1.226562 -4.351562 1.21875 -3.96875 L 0.421875 -3.96875 C 0.429688 -4.5 0.53125 -4.9375 0.71875 -5.28125 C 1.050781 -5.875 1.644531 -6.171875 2.5 -6.171875 C 3.195312 -6.171875 3.707031 -5.976562 4.03125 -5.59375 C 4.363281 -5.21875 4.53125 -4.796875 4.53125 -4.328125 C 4.53125 -3.835938 4.351562 -3.414062 4 -3.0625 C 3.800781 -2.863281 3.441406 -2.617188 2.921875 -2.328125 L 2.34375 -2 C 2.0625 -1.84375 1.835938 -1.695312 1.671875 -1.5625 C 1.390625 -1.3125 1.210938 -1.035156 1.140625 -0.734375 L 4.5 -0.734375 L 4.5 0 Z M 0.28125 0 "/>
</g>
<g id="glyph-0-2">
<path d="M 2.375 -6.15625 C 3.175781 -6.15625 3.753906 -5.828125 4.109375 -5.171875 C 4.378906 -4.660156 4.515625 -3.960938 4.515625 -3.078125 C 4.515625 -2.242188 4.390625 -1.554688 4.140625 -1.015625 C 3.785156 -0.222656 3.195312 0.171875 2.375 0.171875 C 1.632812 0.171875 1.082031 -0.148438 0.71875 -0.796875 C 0.425781 -1.328125 0.28125 -2.046875 0.28125 -2.953125 C 0.28125 -3.648438 0.367188 -4.25 0.546875 -4.75 C 0.878906 -5.6875 1.488281 -6.15625 2.375 -6.15625 Z M 2.375 -0.53125 C 2.769531 -0.53125 3.085938 -0.707031 3.328125 -1.0625 C 3.566406 -1.425781 3.6875 -2.085938 3.6875 -3.046875 C 3.6875 -3.753906 3.597656 -4.332031 3.421875 -4.78125 C 3.253906 -5.226562 2.921875 -5.453125 2.421875 -5.453125 C 1.972656 -5.453125 1.640625 -5.238281 1.421875 -4.8125 C 1.210938 -4.382812 1.109375 -3.753906 1.109375 -2.921875 C 1.109375 -2.296875 1.175781 -1.789062 1.3125 -1.40625 C 1.519531 -0.820312 1.875 -0.53125 2.375 -0.53125 Z M 2.375 -0.53125 "/>
</g>
<g id="glyph-0-3">
<path d="M 2.28125 0.171875 C 1.550781 0.171875 1.019531 -0.0234375 0.6875 -0.421875 C 0.363281 -0.828125 0.203125 -1.316406 0.203125 -1.890625 L 1.015625 -1.890625 C 1.046875 -1.492188 1.117188 -1.203125 1.234375 -1.015625 C 1.441406 -0.691406 1.804688 -0.53125 2.328125 -0.53125 C 2.734375 -0.53125 3.054688 -0.640625 3.296875 -0.859375 C 3.546875 -1.078125 3.671875 -1.359375 3.671875 -1.703125 C 3.671875 -2.128906 3.539062 -2.425781 3.28125 -2.59375 C 3.03125 -2.757812 2.671875 -2.84375 2.203125 -2.84375 C 2.148438 -2.84375 2.097656 -2.84375 2.046875 -2.84375 C 1.992188 -2.84375 1.941406 -2.84375 1.890625 -2.84375 L 1.890625 -3.515625 C 1.972656 -3.515625 2.039062 -3.507812 2.09375 -3.5 C 2.144531 -3.5 2.203125 -3.5 2.265625 -3.5 C 2.554688 -3.5 2.796875 -3.546875 2.984375 -3.640625 C 3.304688 -3.796875 3.46875 -4.082031 3.46875 -4.5 C 3.46875 -4.800781 3.359375 -5.035156 3.140625 -5.203125 C 2.921875 -5.367188 2.671875 -5.453125 2.390625 -5.453125 C 1.867188 -5.453125 1.507812 -5.28125 1.3125 -4.9375 C 1.207031 -4.75 1.144531 -4.476562 1.125 -4.125 L 0.359375 -4.125 C 0.359375 -4.582031 0.453125 -4.972656 0.640625 -5.296875 C 0.953125 -5.867188 1.503906 -6.15625 2.296875 -6.15625 C 2.929688 -6.15625 3.421875 -6.015625 3.765625 -5.734375 C 4.109375 -5.460938 4.28125 -5.0625 4.28125 -4.53125 C 4.28125 -4.144531 4.175781 -3.835938 3.96875 -3.609375 C 3.84375 -3.460938 3.679688 -3.347656 3.484375 -3.265625 C 3.804688 -3.171875 4.054688 -3 4.234375 -2.75 C 4.421875 -2.5 4.515625 -2.191406 4.515625 -1.828125 C 4.515625 -1.234375 4.316406 -0.75 3.921875 -0.375 C 3.535156 -0.0078125 2.988281 0.171875 2.28125 0.171875 Z M 2.28125 0.171875 "/>
</g>
<g id="glyph-0-4">
<path d="M 2.90625 -2.171875 L 2.90625 -4.96875 L 0.9375 -2.171875 Z M 2.921875 0 L 2.921875 -1.5 L 0.21875 -1.5 L 0.21875 -2.265625 L 3.046875 -6.171875 L 3.6875 -6.171875 L 3.6875 -2.171875 L 4.59375 -2.171875 L 4.59375 -1.5 L 3.6875 -1.5 L 3.6875 0 Z M 2.921875 0 "/>
</g>
<g id="glyph-0-5">
<path d="M 1.09375 -1.5625 C 1.132812 -1.125 1.335938 -0.820312 1.703125 -0.65625 C 1.878906 -0.570312 2.09375 -0.53125 2.34375 -0.53125 C 2.800781 -0.53125 3.140625 -0.675781 3.359375 -0.96875 C 3.578125 -1.257812 3.6875 -1.582031 3.6875 -1.9375 C 3.6875 -2.363281 3.554688 -2.691406 3.296875 -2.921875 C 3.035156 -3.160156 2.71875 -3.28125 2.34375 -3.28125 C 2.082031 -3.28125 1.851562 -3.226562 1.65625 -3.125 C 1.46875 -3.019531 1.304688 -2.878906 1.171875 -2.703125 L 0.5 -2.734375 L 0.96875 -6.046875 L 4.171875 -6.046875 L 4.171875 -5.296875 L 1.5625 -5.296875 L 1.296875 -3.59375 C 1.429688 -3.695312 1.566406 -3.773438 1.703125 -3.828125 C 1.929688 -3.929688 2.195312 -3.984375 2.5 -3.984375 C 3.0625 -3.984375 3.535156 -3.800781 3.921875 -3.4375 C 4.316406 -3.070312 4.515625 -2.609375 4.515625 -2.046875 C 4.515625 -1.460938 4.332031 -0.945312 3.96875 -0.5 C 3.613281 -0.0625 3.046875 0.15625 2.265625 0.15625 C 1.753906 0.15625 1.304688 0.0117188 0.921875 -0.265625 C 0.546875 -0.546875 0.332031 -0.976562 0.28125 -1.5625 Z M 1.09375 -1.5625 "/>
</g>
<g id="glyph-0-6">
<path d="M 2.578125 -6.171875 C 3.265625 -6.171875 3.742188 -5.992188 4.015625 -5.640625 C 4.285156 -5.285156 4.421875 -4.921875 4.421875 -4.546875 L 3.65625 -4.546875 C 3.601562 -4.785156 3.53125 -4.972656 3.4375 -5.109375 C 3.25 -5.367188 2.960938 -5.5 2.578125 -5.5 C 2.148438 -5.5 1.804688 -5.296875 1.546875 -4.890625 C 1.296875 -4.492188 1.15625 -3.925781 1.125 -3.1875 C 1.300781 -3.445312 1.523438 -3.640625 1.796875 -3.765625 C 2.046875 -3.878906 2.320312 -3.9375 2.625 -3.9375 C 3.132812 -3.9375 3.582031 -3.769531 3.96875 -3.4375 C 4.351562 -3.113281 4.546875 -2.625 4.546875 -1.96875 C 4.546875 -1.414062 4.363281 -0.921875 4 -0.484375 C 3.632812 -0.0546875 3.117188 0.15625 2.453125 0.15625 C 1.867188 0.15625 1.367188 -0.0625 0.953125 -0.5 C 0.535156 -0.9375 0.328125 -1.671875 0.328125 -2.703125 C 0.328125 -3.460938 0.421875 -4.109375 0.609375 -4.640625 C 0.960938 -5.660156 1.617188 -6.171875 2.578125 -6.171875 Z M 2.515625 -0.53125 C 2.921875 -0.53125 3.222656 -0.664062 3.421875 -0.9375 C 3.628906 -1.207031 3.734375 -1.53125 3.734375 -1.90625 C 3.734375 -2.21875 3.640625 -2.515625 3.453125 -2.796875 C 3.273438 -3.085938 2.953125 -3.234375 2.484375 -3.234375 C 2.148438 -3.234375 1.859375 -3.125 1.609375 -2.90625 C 1.359375 -2.6875 1.234375 -2.351562 1.234375 -1.90625 C 1.234375 -1.519531 1.34375 -1.191406 1.5625 -0.921875 C 1.789062 -0.660156 2.109375 -0.53125 2.515625 -0.53125 Z M 2.515625 -0.53125 "/>
</g>
<g id="glyph-0-7">
<path d="M 0.84375 -4.359375 L 0.84375 -4.953125 C 1.394531 -5.003906 1.78125 -5.09375 2 -5.21875 C 2.226562 -5.34375 2.394531 -5.644531 2.5 -6.125 L 3.109375 -6.125 L 3.109375 0 L 2.296875 0 L 2.296875 -4.359375 Z M 0.84375 -4.359375 "/>
</g>
<g id="glyph-0-8">
<path d="M 4.59375 -6.046875 L 4.59375 -5.375 C 4.394531 -5.175781 4.128906 -4.835938 3.796875 -4.359375 C 3.472656 -3.890625 3.1875 -3.378906 2.9375 -2.828125 C 2.6875 -2.296875 2.5 -1.8125 2.375 -1.375 C 2.289062 -1.082031 2.179688 -0.625 2.046875 0 L 1.203125 0 C 1.390625 -1.175781 1.816406 -2.34375 2.484375 -3.5 C 2.878906 -4.1875 3.289062 -4.773438 3.71875 -5.265625 L 0.328125 -5.265625 L 0.328125 -6.046875 Z M 4.59375 -6.046875 "/>
</g>
<g id="glyph-0-9">
<path d="M 2.390625 -3.578125 C 2.734375 -3.578125 3 -3.671875 3.1875 -3.859375 C 3.382812 -4.046875 3.484375 -4.273438 3.484375 -4.546875 C 3.484375 -4.773438 3.390625 -4.984375 3.203125 -5.171875 C 3.015625 -5.359375 2.734375 -5.453125 2.359375 -5.453125 C 1.992188 -5.453125 1.726562 -5.359375 1.5625 -5.171875 C 1.394531 -4.984375 1.3125 -4.757812 1.3125 -4.5 C 1.3125 -4.207031 1.414062 -3.976562 1.625 -3.8125 C 1.84375 -3.65625 2.097656 -3.578125 2.390625 -3.578125 Z M 2.4375 -0.53125 C 2.800781 -0.53125 3.097656 -0.625 3.328125 -0.8125 C 3.566406 -1.007812 3.6875 -1.300781 3.6875 -1.6875 C 3.6875 -2.082031 3.5625 -2.382812 3.3125 -2.59375 C 3.070312 -2.800781 2.765625 -2.90625 2.390625 -2.90625 C 2.015625 -2.90625 1.707031 -2.796875 1.46875 -2.578125 C 1.238281 -2.367188 1.125 -2.078125 1.125 -1.703125 C 1.125 -1.390625 1.226562 -1.113281 1.4375 -0.875 C 1.65625 -0.644531 1.988281 -0.53125 2.4375 -0.53125 Z M 1.34375 -3.28125 C 1.125 -3.375 0.957031 -3.476562 0.84375 -3.59375 C 0.613281 -3.820312 0.5 -4.125 0.5 -4.5 C 0.5 -4.957031 0.664062 -5.347656 1 -5.671875 C 1.332031 -6.003906 1.800781 -6.171875 2.40625 -6.171875 C 3 -6.171875 3.460938 -6.015625 3.796875 -5.703125 C 4.128906 -5.390625 4.296875 -5.023438 4.296875 -4.609375 C 4.296875 -4.222656 4.195312 -3.914062 4 -3.6875 C 3.894531 -3.550781 3.726562 -3.414062 3.5 -3.28125 C 3.757812 -3.164062 3.960938 -3.03125 4.109375 -2.875 C 4.378906 -2.59375 4.515625 -2.222656 4.515625 -1.765625 C 4.515625 -1.222656 4.332031 -0.765625 3.96875 -0.390625 C 3.601562 -0.015625 3.085938 0.171875 2.421875 0.171875 C 1.828125 0.171875 1.320312 0.0078125 0.90625 -0.3125 C 0.488281 -0.632812 0.28125 -1.109375 0.28125 -1.734375 C 0.28125 -2.085938 0.367188 -2.394531 0.546875 -2.65625 C 0.722656 -2.925781 0.988281 -3.132812 1.34375 -3.28125 Z M 1.34375 -3.28125 "/>
</g>
<g id="glyph-0-10">
<path d="M 1.171875 -1.484375 C 1.191406 -1.054688 1.351562 -0.757812 1.65625 -0.59375 C 1.820312 -0.507812 2 -0.46875 2.1875 -0.46875 C 2.5625 -0.46875 2.878906 -0.617188 3.140625 -0.921875 C 3.398438 -1.234375 3.582031 -1.863281 3.6875 -2.8125 C 3.519531 -2.539062 3.304688 -2.347656 3.046875 -2.234375 C 2.796875 -2.128906 2.523438 -2.078125 2.234375 -2.078125 C 1.640625 -2.078125 1.171875 -2.257812 0.828125 -2.625 C 0.484375 -2.988281 0.3125 -3.460938 0.3125 -4.046875 C 0.3125 -4.609375 0.476562 -5.097656 0.8125 -5.515625 C 1.15625 -5.941406 1.660156 -6.15625 2.328125 -6.15625 C 3.222656 -6.15625 3.84375 -5.753906 4.1875 -4.953125 C 4.375 -4.503906 4.46875 -3.945312 4.46875 -3.28125 C 4.46875 -2.53125 4.351562 -1.863281 4.125 -1.28125 C 3.75 -0.3125 3.113281 0.171875 2.21875 0.171875 C 1.625 0.171875 1.171875 0.0117188 0.859375 -0.296875 C 0.546875 -0.609375 0.390625 -1.003906 0.390625 -1.484375 Z M 2.34375 -2.75 C 2.644531 -2.75 2.921875 -2.847656 3.171875 -3.046875 C 3.429688 -3.253906 3.5625 -3.609375 3.5625 -4.109375 C 3.5625 -4.566406 3.445312 -4.90625 3.21875 -5.125 C 2.988281 -5.34375 2.695312 -5.453125 2.34375 -5.453125 C 1.96875 -5.453125 1.664062 -5.320312 1.4375 -5.0625 C 1.21875 -4.8125 1.109375 -4.476562 1.109375 -4.0625 C 1.109375 -3.65625 1.207031 -3.332031 1.40625 -3.09375 C 1.601562 -2.863281 1.914062 -2.75 2.34375 -2.75 Z M 2.34375 -2.75 "/>
</g>
<g id="glyph-0-11">
<path d="M 3.90625 -2.578125 L 2.953125 -5.375 L 1.9375 -2.578125 Z M 2.5 -6.3125 L 3.46875 -6.3125 L 5.765625 0 L 4.828125 0 L 4.1875 -1.890625 L 1.6875 -1.890625 L 1 0 L 0.125 0 Z M 2.5 -6.3125 "/>
</g>
<g id="glyph-0-12">
<path d="M 1.0625 -2.25 C 1.0625 -1.75 1.164062 -1.332031 1.375 -1 C 1.582031 -0.675781 1.914062 -0.515625 2.375 -0.515625 C 2.726562 -0.515625 3.019531 -0.664062 3.25 -0.96875 C 3.488281 -1.28125 3.609375 -1.722656 3.609375 -2.296875 C 3.609375 -2.878906 3.488281 -3.304688 3.25 -3.578125 C 3.007812 -3.859375 2.710938 -4 2.359375 -4 C 1.972656 -4 1.660156 -3.847656 1.421875 -3.546875 C 1.179688 -3.253906 1.0625 -2.820312 1.0625 -2.25 Z M 2.21875 -4.6875 C 2.570312 -4.6875 2.867188 -4.609375 3.109375 -4.453125 C 3.242188 -4.367188 3.398438 -4.21875 3.578125 -4 L 3.578125 -6.328125 L 4.3125 -6.328125 L 4.3125 0 L 3.625 0 L 3.625 -0.640625 C 3.4375 -0.359375 3.21875 -0.15625 2.96875 -0.03125 C 2.726562 0.09375 2.453125 0.15625 2.140625 0.15625 C 1.617188 0.15625 1.171875 -0.0546875 0.796875 -0.484375 C 0.421875 -0.910156 0.234375 -1.484375 0.234375 -2.203125 C 0.234375 -2.867188 0.40625 -3.445312 0.75 -3.9375 C 1.09375 -4.4375 1.582031 -4.6875 2.21875 -4.6875 Z M 2.21875 -4.6875 "/>
</g>
<g id="glyph-0-13">
<path d="M 2.484375 -4.703125 C 2.804688 -4.703125 3.117188 -4.625 3.421875 -4.46875 C 3.734375 -4.320312 3.96875 -4.125 4.125 -3.875 C 4.28125 -3.644531 4.382812 -3.375 4.4375 -3.0625 C 4.488281 -2.851562 4.515625 -2.515625 4.515625 -2.046875 L 1.140625 -2.046875 C 1.148438 -1.585938 1.257812 -1.210938 1.46875 -0.921875 C 1.675781 -0.640625 1.992188 -0.5 2.421875 -0.5 C 2.828125 -0.5 3.148438 -0.632812 3.390625 -0.90625 C 3.523438 -1.0625 3.625 -1.238281 3.6875 -1.4375 L 4.453125 -1.4375 C 4.429688 -1.269531 4.363281 -1.082031 4.25 -0.875 C 4.132812 -0.664062 4.003906 -0.5 3.859375 -0.375 C 3.628906 -0.144531 3.34375 0.0078125 3 0.09375 C 2.8125 0.132812 2.597656 0.15625 2.359375 0.15625 C 1.785156 0.15625 1.300781 -0.0507812 0.90625 -0.46875 C 0.507812 -0.882812 0.3125 -1.46875 0.3125 -2.21875 C 0.3125 -2.945312 0.507812 -3.539062 0.90625 -4 C 1.3125 -4.46875 1.835938 -4.703125 2.484375 -4.703125 Z M 3.71875 -2.671875 C 3.6875 -3.003906 3.613281 -3.269531 3.5 -3.46875 C 3.28125 -3.84375 2.925781 -4.03125 2.4375 -4.03125 C 2.082031 -4.03125 1.785156 -3.898438 1.546875 -3.640625 C 1.304688 -3.390625 1.175781 -3.066406 1.15625 -2.671875 Z M 2.40625 -4.71875 Z M 2.40625 -4.71875 "/>
</g>
<g id="glyph-0-14">
<path d="M 0.59375 -6.3125 L 1.359375 -6.3125 L 1.359375 0 L 0.59375 0 Z M 0.59375 -6.3125 "/>
</g>
<g id="glyph-0-15">
<path d="M 0.5625 -4.578125 L 1.359375 -4.578125 L 1.359375 0 L 0.5625 0 Z M 0.5625 -6.3125 L 1.359375 -6.3125 L 1.359375 -5.4375 L 0.5625 -5.4375 Z M 0.5625 -6.3125 "/>
</g>
<g id="glyph-0-16">
<path d="M 3.328125 -6.484375 C 4.128906 -6.484375 4.75 -6.269531 5.1875 -5.84375 C 5.625 -5.425781 5.867188 -4.953125 5.921875 -4.421875 L 5.09375 -4.421875 C 5 -4.828125 4.8125 -5.144531 4.53125 -5.375 C 4.25 -5.613281 3.851562 -5.734375 3.34375 -5.734375 C 2.71875 -5.734375 2.210938 -5.515625 1.828125 -5.078125 C 1.453125 -4.640625 1.265625 -3.972656 1.265625 -3.078125 C 1.265625 -2.335938 1.4375 -1.738281 1.78125 -1.28125 C 2.125 -0.820312 2.632812 -0.59375 3.3125 -0.59375 C 3.945312 -0.59375 4.429688 -0.832031 4.765625 -1.3125 C 4.929688 -1.570312 5.0625 -1.90625 5.15625 -2.3125 L 5.984375 -2.3125 C 5.910156 -1.65625 5.664062 -1.101562 5.25 -0.65625 C 4.75 -0.113281 4.070312 0.15625 3.21875 0.15625 C 2.488281 0.15625 1.875 -0.0625 1.375 -0.5 C 0.71875 -1.09375 0.390625 -2 0.390625 -3.21875 C 0.390625 -4.15625 0.632812 -4.921875 1.125 -5.515625 C 1.65625 -6.160156 2.390625 -6.484375 3.328125 -6.484375 Z M 3.15625 -6.484375 Z M 3.15625 -6.484375 "/>
</g>
<g id="glyph-0-17">
<path d="M 0.5625 -6.328125 L 1.34375 -6.328125 L 1.34375 -3.984375 C 1.519531 -4.210938 1.679688 -4.375 1.828125 -4.46875 C 2.078125 -4.632812 2.390625 -4.71875 2.765625 -4.71875 C 3.429688 -4.71875 3.882812 -4.484375 4.125 -4.015625 C 4.25 -3.753906 4.3125 -3.398438 4.3125 -2.953125 L 4.3125 0 L 3.515625 0 L 3.515625 -2.90625 C 3.515625 -3.238281 3.472656 -3.484375 3.390625 -3.640625 C 3.253906 -3.890625 2.992188 -4.015625 2.609375 -4.015625 C 2.285156 -4.015625 1.992188 -3.90625 1.734375 -3.6875 C 1.472656 -3.46875 1.34375 -3.050781 1.34375 -2.4375 L 1.34375 0 L 0.5625 0 Z M 0.5625 -6.328125 "/>
</g>
<g id="glyph-0-18">
<path d="M 0.5625 -4.59375 L 1.296875 -4.59375 L 1.296875 -3.953125 C 1.515625 -4.210938 1.742188 -4.398438 1.984375 -4.515625 C 2.234375 -4.640625 2.507812 -4.703125 2.8125 -4.703125 C 3.457031 -4.703125 3.894531 -4.472656 4.125 -4.015625 C 4.25 -3.765625 4.3125 -3.410156 4.3125 -2.953125 L 4.3125 0 L 3.53125 0 L 3.53125 -2.90625 C 3.53125 -3.175781 3.488281 -3.398438 3.40625 -3.578125 C 3.269531 -3.859375 3.019531 -4 2.65625 -4 C 2.476562 -4 2.328125 -3.984375 2.203125 -3.953125 C 1.992188 -3.890625 1.8125 -3.765625 1.65625 -3.578125 C 1.519531 -3.421875 1.429688 -3.257812 1.390625 -3.09375 C 1.359375 -2.9375 1.34375 -2.707031 1.34375 -2.40625 L 1.34375 0 L 0.5625 0 Z M 2.390625 -4.71875 Z M 2.390625 -4.71875 "/>
</g>
<g id="glyph-0-19">
<path d="M 1.03125 -1.4375 C 1.050781 -1.1875 1.113281 -0.988281 1.21875 -0.84375 C 1.414062 -0.601562 1.753906 -0.484375 2.234375 -0.484375 C 2.515625 -0.484375 2.765625 -0.539062 2.984375 -0.65625 C 3.203125 -0.78125 3.3125 -0.972656 3.3125 -1.234375 C 3.3125 -1.429688 3.222656 -1.582031 3.046875 -1.6875 C 2.941406 -1.75 2.722656 -1.820312 2.390625 -1.90625 L 1.78125 -2.0625 C 1.382812 -2.164062 1.09375 -2.273438 0.90625 -2.390625 C 0.570312 -2.597656 0.40625 -2.890625 0.40625 -3.265625 C 0.40625 -3.691406 0.5625 -4.039062 0.875 -4.3125 C 1.195312 -4.582031 1.617188 -4.71875 2.140625 -4.71875 C 2.835938 -4.71875 3.335938 -4.515625 3.640625 -4.109375 C 3.835938 -3.847656 3.929688 -3.570312 3.921875 -3.28125 L 3.203125 -3.28125 C 3.179688 -3.457031 3.117188 -3.613281 3.015625 -3.75 C 2.835938 -3.957031 2.53125 -4.0625 2.09375 -4.0625 C 1.800781 -4.0625 1.578125 -4.003906 1.421875 -3.890625 C 1.273438 -3.773438 1.203125 -3.628906 1.203125 -3.453125 C 1.203125 -3.253906 1.300781 -3.09375 1.5 -2.96875 C 1.613281 -2.894531 1.78125 -2.832031 2 -2.78125 L 2.515625 -2.65625 C 3.066406 -2.519531 3.4375 -2.390625 3.625 -2.265625 C 3.925781 -2.066406 4.078125 -1.753906 4.078125 -1.328125 C 4.078125 -0.921875 3.921875 -0.566406 3.609375 -0.265625 C 3.304688 0.0234375 2.832031 0.171875 2.1875 0.171875 C 1.507812 0.171875 1.023438 0.0195312 0.734375 -0.28125 C 0.453125 -0.59375 0.300781 -0.976562 0.28125 -1.4375 Z M 2.171875 -4.71875 Z M 2.171875 -4.71875 "/>
</g>
<g id="glyph-0-20">
<path d="M 0.71875 -5.890625 L 1.5 -5.890625 L 1.5 -4.59375 L 2.234375 -4.59375 L 2.234375 -3.96875 L 1.5 -3.96875 L 1.5 -0.96875 C 1.5 -0.800781 1.554688 -0.691406 1.671875 -0.640625 C 1.722656 -0.609375 1.820312 -0.59375 1.96875 -0.59375 C 2 -0.59375 2.035156 -0.59375 2.078125 -0.59375 C 2.128906 -0.59375 2.179688 -0.597656 2.234375 -0.609375 L 2.234375 0 C 2.148438 0.0195312 2.054688 0.0351562 1.953125 0.046875 C 1.859375 0.0664062 1.757812 0.078125 1.65625 0.078125 C 1.289062 0.078125 1.039062 -0.015625 0.90625 -0.203125 C 0.78125 -0.390625 0.71875 -0.628906 0.71875 -0.921875 L 0.71875 -3.96875 L 0.09375 -3.96875 L 0.09375 -4.59375 L 0.71875 -4.59375 Z M 0.71875 -5.890625 "/>
</g>
<g id="glyph-0-21">
<path d="M 0.59375 -4.59375 L 1.328125 -4.59375 L 1.328125 -3.8125 C 1.378906 -3.957031 1.523438 -4.140625 1.765625 -4.359375 C 2.003906 -4.585938 2.273438 -4.703125 2.578125 -4.703125 C 2.585938 -4.703125 2.609375 -4.695312 2.640625 -4.6875 C 2.679688 -4.6875 2.742188 -4.6875 2.828125 -4.6875 L 2.828125 -3.859375 C 2.773438 -3.867188 2.726562 -3.875 2.6875 -3.875 C 2.65625 -3.882812 2.617188 -3.890625 2.578125 -3.890625 C 2.179688 -3.890625 1.878906 -3.765625 1.671875 -3.515625 C 1.460938 -3.265625 1.359375 -2.972656 1.359375 -2.640625 L 1.359375 0 L 0.59375 0 Z M 0.59375 -4.59375 "/>
</g>
<g id="glyph-0-22">
<path d="M 1.15625 -1.21875 C 1.15625 -1 1.238281 -0.820312 1.40625 -0.6875 C 1.570312 -0.5625 1.765625 -0.5 1.984375 -0.5 C 2.253906 -0.5 2.519531 -0.5625 2.78125 -0.6875 C 3.207031 -0.894531 3.421875 -1.238281 3.421875 -1.71875 L 3.421875 -2.34375 C 3.328125 -2.28125 3.203125 -2.226562 3.046875 -2.1875 C 2.898438 -2.144531 2.753906 -2.117188 2.609375 -2.109375 L 2.140625 -2.046875 C 1.867188 -2.003906 1.660156 -1.945312 1.515625 -1.875 C 1.273438 -1.738281 1.15625 -1.519531 1.15625 -1.21875 Z M 3.03125 -2.78125 C 3.207031 -2.8125 3.328125 -2.890625 3.390625 -3.015625 C 3.421875 -3.078125 3.4375 -3.175781 3.4375 -3.3125 C 3.4375 -3.570312 3.34375 -3.757812 3.15625 -3.875 C 2.96875 -4 2.703125 -4.0625 2.359375 -4.0625 C 1.953125 -4.0625 1.664062 -3.953125 1.5 -3.734375 C 1.40625 -3.609375 1.34375 -3.429688 1.3125 -3.203125 L 0.59375 -3.203125 C 0.601562 -3.765625 0.785156 -4.15625 1.140625 -4.375 C 1.492188 -4.601562 1.90625 -4.71875 2.375 -4.71875 C 2.914062 -4.71875 3.351562 -4.613281 3.6875 -4.40625 C 4.019531 -4.195312 4.1875 -3.875 4.1875 -3.4375 L 4.1875 -0.796875 C 4.1875 -0.710938 4.203125 -0.644531 4.234375 -0.59375 C 4.273438 -0.550781 4.347656 -0.53125 4.453125 -0.53125 C 4.484375 -0.53125 4.519531 -0.53125 4.5625 -0.53125 C 4.601562 -0.53125 4.648438 -0.535156 4.703125 -0.546875 L 4.703125 0.015625 C 4.578125 0.0546875 4.484375 0.078125 4.421875 0.078125 C 4.359375 0.0859375 4.273438 0.09375 4.171875 0.09375 C 3.898438 0.09375 3.707031 0 3.59375 -0.1875 C 3.53125 -0.28125 3.484375 -0.421875 3.453125 -0.609375 C 3.296875 -0.398438 3.070312 -0.21875 2.78125 -0.0625 C 2.488281 0.0820312 2.160156 0.15625 1.796875 0.15625 C 1.367188 0.15625 1.019531 0.0234375 0.75 -0.234375 C 0.488281 -0.492188 0.359375 -0.816406 0.359375 -1.203125 C 0.359375 -1.628906 0.488281 -1.957031 0.75 -2.1875 C 1.019531 -2.425781 1.367188 -2.578125 1.796875 -2.640625 Z M 2.390625 -4.71875 Z M 2.390625 -4.71875 "/>
</g>
<g id="glyph-0-23">
<path d="M 2.515625 -0.515625 C 2.867188 -0.515625 3.164062 -0.664062 3.40625 -0.96875 C 3.644531 -1.269531 3.765625 -1.722656 3.765625 -2.328125 C 3.765625 -2.691406 3.710938 -3.003906 3.609375 -3.265625 C 3.410156 -3.773438 3.046875 -4.03125 2.515625 -4.03125 C 1.972656 -4.03125 1.601562 -3.765625 1.40625 -3.234375 C 1.300781 -2.941406 1.25 -2.578125 1.25 -2.140625 C 1.25 -1.785156 1.300781 -1.484375 1.40625 -1.234375 C 1.601562 -0.753906 1.972656 -0.515625 2.515625 -0.515625 Z M 0.5 -4.578125 L 1.265625 -4.578125 L 1.265625 -3.96875 C 1.410156 -4.175781 1.578125 -4.335938 1.765625 -4.453125 C 2.023438 -4.628906 2.332031 -4.71875 2.6875 -4.71875 C 3.207031 -4.71875 3.648438 -4.515625 4.015625 -4.109375 C 4.378906 -3.710938 4.5625 -3.144531 4.5625 -2.40625 C 4.5625 -1.394531 4.296875 -0.675781 3.765625 -0.25 C 3.429688 0.0195312 3.046875 0.15625 2.609375 0.15625 C 2.265625 0.15625 1.972656 0.0742188 1.734375 -0.078125 C 1.597656 -0.160156 1.445312 -0.304688 1.28125 -0.515625 L 1.28125 1.828125 L 0.5 1.828125 Z M 0.5 -4.578125 "/>
</g>
<g id="glyph-0-24">
<path d="M 3.390625 -6.46875 C 3.984375 -6.46875 4.5 -6.351562 4.9375 -6.125 C 5.5625 -5.800781 5.945312 -5.226562 6.09375 -4.40625 L 5.234375 -4.40625 C 5.128906 -4.863281 4.914062 -5.195312 4.59375 -5.40625 C 4.269531 -5.613281 3.863281 -5.71875 3.375 -5.71875 C 2.789062 -5.71875 2.296875 -5.5 1.890625 -5.0625 C 1.492188 -4.625 1.296875 -3.972656 1.296875 -3.109375 C 1.296875 -2.359375 1.460938 -1.742188 1.796875 -1.265625 C 2.128906 -0.796875 2.664062 -0.5625 3.40625 -0.5625 C 3.976562 -0.5625 4.445312 -0.726562 4.8125 -1.0625 C 5.1875 -1.394531 5.378906 -1.929688 5.390625 -2.671875 L 3.421875 -2.671875 L 3.421875 -3.375 L 6.1875 -3.375 L 6.1875 0 L 5.640625 0 L 5.4375 -0.8125 C 5.144531 -0.488281 4.890625 -0.269531 4.671875 -0.15625 C 4.296875 0.0585938 3.816406 0.171875 3.234375 0.171875 C 2.484375 0.171875 1.84375 -0.0703125 1.3125 -0.5625 C 0.71875 -1.164062 0.421875 -2 0.421875 -3.0625 C 0.421875 -4.113281 0.707031 -4.953125 1.28125 -5.578125 C 1.820312 -6.171875 2.523438 -6.46875 3.390625 -6.46875 Z M 3.25 -6.484375 Z M 3.25 -6.484375 "/>
</g>
<g id="glyph-0-25">
<path d="M 2.390625 -0.5 C 2.898438 -0.5 3.25 -0.691406 3.4375 -1.078125 C 3.632812 -1.460938 3.734375 -1.894531 3.734375 -2.375 C 3.734375 -2.800781 3.664062 -3.148438 3.53125 -3.421875 C 3.3125 -3.847656 2.9375 -4.0625 2.40625 -4.0625 C 1.925781 -4.0625 1.578125 -3.878906 1.359375 -3.515625 C 1.148438 -3.160156 1.046875 -2.726562 1.046875 -2.21875 C 1.046875 -1.726562 1.148438 -1.316406 1.359375 -0.984375 C 1.578125 -0.660156 1.921875 -0.5 2.390625 -0.5 Z M 2.421875 -4.734375 C 3.015625 -4.734375 3.515625 -4.535156 3.921875 -4.140625 C 4.335938 -3.742188 4.546875 -3.160156 4.546875 -2.390625 C 4.546875 -1.648438 4.363281 -1.035156 4 -0.546875 C 3.632812 -0.0664062 3.070312 0.171875 2.3125 0.171875 C 1.6875 0.171875 1.1875 -0.0390625 0.8125 -0.46875 C 0.4375 -0.894531 0.25 -1.472656 0.25 -2.203125 C 0.25 -2.972656 0.445312 -3.585938 0.84375 -4.046875 C 1.238281 -4.503906 1.765625 -4.734375 2.421875 -4.734375 Z M 2.390625 -4.71875 Z M 2.390625 -4.71875 "/>
</g>
<g id="glyph-1-0">
<path d="M 0.359375 0 L 0.359375 -7.890625 L 6.625 -7.890625 L 6.625 0 Z M 5.625 -0.984375 L 5.625 -6.90625 L 1.34375 -6.90625 L 1.34375 -0.984375 Z M 5.625 -0.984375 "/>
</g>
<g id="glyph-1-1">
<path d="M 0.9375 -7.890625 L 6.40625 -7.890625 L 6.40625 -6.921875 L 2.015625 -6.921875 L 2.015625 -4.53125 L 5.875 -4.53125 L 5.875 -3.59375 L 2.015625 -3.59375 L 2.015625 0 L 0.9375 0 Z M 0.9375 -7.890625 "/>
</g>
<g id="glyph-1-2">
<path d="M 0.734375 -7.890625 L 1.703125 -7.890625 L 1.703125 0 L 0.734375 0 Z M 0.734375 -7.890625 "/>
</g>
<g id="glyph-1-3">
<path d="M 0.703125 -5.71875 L 1.6875 -5.71875 L 1.6875 0 L 0.703125 0 Z M 0.703125 -7.890625 L 1.6875 -7.890625 L 1.6875 -6.796875 L 0.703125 -6.796875 Z M 0.703125 -7.890625 "/>
</g>
<g id="glyph-1-4">
<path d="M 3.140625 -0.65625 C 3.585938 -0.65625 3.957031 -0.84375 4.25 -1.21875 C 4.550781 -1.59375 4.703125 -2.15625 4.703125 -2.90625 C 4.703125 -3.363281 4.640625 -3.757812 4.515625 -4.09375 C 4.265625 -4.726562 3.804688 -5.046875 3.140625 -5.046875 C 2.460938 -5.046875 2.003906 -4.710938 1.765625 -4.046875 C 1.628906 -3.679688 1.5625 -3.222656 1.5625 -2.671875 C 1.5625 -2.234375 1.628906 -1.859375 1.765625 -1.546875 C 2.015625 -0.953125 2.472656 -0.65625 3.140625 -0.65625 Z M 0.640625 -5.71875 L 1.578125 -5.71875 L 1.578125 -4.96875 C 1.765625 -5.226562 1.972656 -5.425781 2.203125 -5.5625 C 2.535156 -5.78125 2.921875 -5.890625 3.359375 -5.890625 C 4.003906 -5.890625 4.554688 -5.640625 5.015625 -5.140625 C 5.472656 -4.640625 5.703125 -3.925781 5.703125 -3 C 5.703125 -1.75 5.375 -0.851562 4.71875 -0.3125 C 4.300781 0.0195312 3.816406 0.1875 3.265625 0.1875 C 2.828125 0.1875 2.460938 0.0898438 2.171875 -0.09375 C 2.003906 -0.195312 1.8125 -0.378906 1.59375 -0.640625 L 1.59375 2.296875 L 0.640625 2.296875 Z M 0.640625 -5.71875 "/>
</g>
<g id="glyph-1-5">
<path d="M 3.109375 -5.875 C 3.515625 -5.875 3.90625 -5.78125 4.28125 -5.59375 C 4.664062 -5.40625 4.960938 -5.15625 5.171875 -4.84375 C 5.359375 -4.5625 5.484375 -4.222656 5.546875 -3.828125 C 5.609375 -3.566406 5.640625 -3.144531 5.640625 -2.5625 L 1.421875 -2.5625 C 1.441406 -1.976562 1.578125 -1.507812 1.828125 -1.15625 C 2.085938 -0.8125 2.488281 -0.640625 3.03125 -0.640625 C 3.539062 -0.640625 3.945312 -0.804688 4.25 -1.140625 C 4.414062 -1.328125 4.535156 -1.550781 4.609375 -1.8125 L 5.5625 -1.8125 C 5.53125 -1.59375 5.441406 -1.351562 5.296875 -1.09375 C 5.160156 -0.832031 5.003906 -0.625 4.828125 -0.46875 C 4.535156 -0.175781 4.175781 0.0195312 3.75 0.125 C 3.507812 0.175781 3.242188 0.203125 2.953125 0.203125 C 2.234375 0.203125 1.625 -0.0546875 1.125 -0.578125 C 0.632812 -1.097656 0.390625 -1.828125 0.390625 -2.765625 C 0.390625 -3.691406 0.640625 -4.441406 1.140625 -5.015625 C 1.640625 -5.585938 2.296875 -5.875 3.109375 -5.875 Z M 4.640625 -3.328125 C 4.609375 -3.753906 4.519531 -4.09375 4.375 -4.34375 C 4.101562 -4.800781 3.660156 -5.03125 3.046875 -5.03125 C 2.597656 -5.03125 2.222656 -4.867188 1.921875 -4.546875 C 1.628906 -4.234375 1.472656 -3.828125 1.453125 -3.328125 Z M 3.015625 -5.890625 Z M 3.015625 -5.890625 "/>
</g>
<g id="glyph-1-6">
<path d="M 0.734375 -5.75 L 1.65625 -5.75 L 1.65625 -4.765625 C 1.726562 -4.953125 1.910156 -5.179688 2.203125 -5.453125 C 2.492188 -5.734375 2.832031 -5.875 3.21875 -5.875 C 3.238281 -5.875 3.269531 -5.875 3.3125 -5.875 C 3.351562 -5.875 3.425781 -5.867188 3.53125 -5.859375 L 3.53125 -4.828125 C 3.476562 -4.835938 3.425781 -4.84375 3.375 -4.84375 C 3.320312 -4.851562 3.269531 -4.859375 3.21875 -4.859375 C 2.726562 -4.859375 2.351562 -4.703125 2.09375 -4.390625 C 1.832031 -4.078125 1.703125 -3.71875 1.703125 -3.3125 L 1.703125 0 L 0.734375 0 Z M 0.734375 -5.75 "/>
</g>
<g id="glyph-1-7">
</g>
<g id="glyph-1-8">
<path d="M 0.703125 -5.75 L 1.625 -5.75 L 1.625 -4.9375 C 1.894531 -5.269531 2.179688 -5.507812 2.484375 -5.65625 C 2.796875 -5.800781 3.132812 -5.875 3.5 -5.875 C 4.320312 -5.875 4.875 -5.59375 5.15625 -5.03125 C 5.3125 -4.71875 5.390625 -4.269531 5.390625 -3.6875 L 5.390625 0 L 4.421875 0 L 4.421875 -3.625 C 4.421875 -3.976562 4.367188 -4.257812 4.265625 -4.46875 C 4.085938 -4.832031 3.773438 -5.015625 3.328125 -5.015625 C 3.097656 -5.015625 2.910156 -4.988281 2.765625 -4.9375 C 2.492188 -4.863281 2.257812 -4.707031 2.0625 -4.46875 C 1.90625 -4.28125 1.800781 -4.082031 1.75 -3.875 C 1.695312 -3.675781 1.671875 -3.390625 1.671875 -3.015625 L 1.671875 0 L 0.703125 0 Z M 2.984375 -5.890625 Z M 2.984375 -5.890625 "/>
</g>
<g id="glyph-1-9">
<path d="M 2.734375 -5.859375 C 3.191406 -5.859375 3.585938 -5.742188 3.921875 -5.515625 C 4.097656 -5.390625 4.285156 -5.207031 4.484375 -4.96875 L 4.484375 -5.703125 L 5.375 -5.703125 L 5.375 -0.46875 C 5.375 0.257812 5.265625 0.835938 5.046875 1.265625 C 4.648438 2.046875 3.894531 2.4375 2.78125 2.4375 C 2.15625 2.4375 1.628906 2.296875 1.203125 2.015625 C 0.785156 1.734375 0.550781 1.300781 0.5 0.71875 L 1.484375 0.71875 C 1.535156 0.96875 1.628906 1.164062 1.765625 1.3125 C 1.984375 1.53125 2.328125 1.640625 2.796875 1.640625 C 3.535156 1.640625 4.019531 1.375 4.25 0.84375 C 4.382812 0.539062 4.445312 -0.00390625 4.4375 -0.796875 C 4.25 -0.503906 4.015625 -0.285156 3.734375 -0.140625 C 3.460938 -0.00390625 3.109375 0.0625 2.671875 0.0625 C 2.046875 0.0625 1.5 -0.15625 1.03125 -0.59375 C 0.5625 -1.03125 0.328125 -1.757812 0.328125 -2.78125 C 0.328125 -3.75 0.5625 -4.503906 1.03125 -5.046875 C 1.5 -5.585938 2.066406 -5.859375 2.734375 -5.859375 Z M 4.484375 -2.90625 C 4.484375 -3.613281 4.332031 -4.140625 4.03125 -4.484375 C 3.738281 -4.828125 3.367188 -5 2.921875 -5 C 2.234375 -5 1.765625 -4.679688 1.515625 -4.046875 C 1.390625 -3.703125 1.328125 -3.253906 1.328125 -2.703125 C 1.328125 -2.054688 1.457031 -1.5625 1.71875 -1.21875 C 1.976562 -0.882812 2.332031 -0.71875 2.78125 -0.71875 C 3.46875 -0.71875 3.957031 -1.03125 4.25 -1.65625 C 4.40625 -2.007812 4.484375 -2.425781 4.484375 -2.90625 Z M 2.859375 -5.890625 Z M 2.859375 -5.890625 "/>
</g>
<g id="glyph-1-10">
<path d="M 0.90625 -7.359375 L 1.875 -7.359375 L 1.875 -5.75 L 2.796875 -5.75 L 2.796875 -4.96875 L 1.875 -4.96875 L 1.875 -1.203125 C 1.875 -1.003906 1.941406 -0.875 2.078125 -0.8125 C 2.160156 -0.769531 2.285156 -0.75 2.453125 -0.75 C 2.503906 -0.75 2.554688 -0.75 2.609375 -0.75 C 2.660156 -0.75 2.722656 -0.753906 2.796875 -0.765625 L 2.796875 0 C 2.679688 0.03125 2.5625 0.0507812 2.4375 0.0625 C 2.320312 0.0820312 2.195312 0.09375 2.0625 0.09375 C 1.613281 0.09375 1.304688 -0.0195312 1.140625 -0.25 C 0.984375 -0.488281 0.90625 -0.789062 0.90625 -1.15625 L 0.90625 -4.96875 L 0.125 -4.96875 L 0.125 -5.75 L 0.90625 -5.75 Z M 0.90625 -7.359375 "/>
</g>
<g id="glyph-1-11">
<path d="M 0.703125 -7.921875 L 1.671875 -7.921875 L 1.671875 -4.96875 C 1.898438 -5.257812 2.109375 -5.46875 2.296875 -5.59375 C 2.609375 -5.789062 2.992188 -5.890625 3.453125 -5.890625 C 4.285156 -5.890625 4.851562 -5.597656 5.15625 -5.015625 C 5.3125 -4.691406 5.390625 -4.25 5.390625 -3.6875 L 5.390625 0 L 4.40625 0 L 4.40625 -3.625 C 4.40625 -4.050781 4.351562 -4.363281 4.25 -4.5625 C 4.070312 -4.875 3.738281 -5.03125 3.25 -5.03125 C 2.851562 -5.03125 2.488281 -4.890625 2.15625 -4.609375 C 1.832031 -4.335938 1.671875 -3.816406 1.671875 -3.046875 L 1.671875 0 L 0.703125 0 Z M 0.703125 -7.921875 "/>
</g>
<g id="glyph-1-12">
<path d="M 3.25 -8.015625 C 2.6875 -6.921875 2.320312 -6.117188 2.15625 -5.609375 C 1.90625 -4.828125 1.78125 -3.921875 1.78125 -2.890625 C 1.78125 -1.847656 1.925781 -0.898438 2.21875 -0.046875 C 2.394531 0.480469 2.742188 1.25 3.265625 2.25 L 2.625 2.25 C 2.101562 1.425781 1.78125 0.898438 1.65625 0.671875 C 1.53125 0.453125 1.390625 0.148438 1.234375 -0.234375 C 1.035156 -0.765625 0.898438 -1.332031 0.828125 -1.9375 C 0.785156 -2.25 0.765625 -2.546875 0.765625 -2.828125 C 0.765625 -3.890625 0.929688 -4.832031 1.265625 -5.65625 C 1.472656 -6.1875 1.910156 -6.972656 2.578125 -8.015625 Z M 3.25 -8.015625 "/>
</g>
<g id="glyph-1-13">
<path d="M 0.703125 -5.75 L 1.671875 -5.75 L 1.671875 -4.9375 C 1.898438 -5.21875 2.101562 -5.421875 2.28125 -5.546875 C 2.601562 -5.765625 2.96875 -5.875 3.375 -5.875 C 3.832031 -5.875 4.203125 -5.765625 4.484375 -5.546875 C 4.640625 -5.410156 4.78125 -5.21875 4.90625 -4.96875 C 5.125 -5.28125 5.378906 -5.507812 5.671875 -5.65625 C 5.960938 -5.800781 6.285156 -5.875 6.640625 -5.875 C 7.410156 -5.875 7.9375 -5.597656 8.21875 -5.046875 C 8.375 -4.742188 8.453125 -4.335938 8.453125 -3.828125 L 8.453125 0 L 7.4375 0 L 7.4375 -4 C 7.4375 -4.382812 7.34375 -4.644531 7.15625 -4.78125 C 6.96875 -4.925781 6.734375 -5 6.453125 -5 C 6.078125 -5 5.75 -4.867188 5.46875 -4.609375 C 5.195312 -4.359375 5.0625 -3.9375 5.0625 -3.34375 L 5.0625 0 L 4.078125 0 L 4.078125 -3.75 C 4.078125 -4.144531 4.03125 -4.429688 3.9375 -4.609375 C 3.789062 -4.878906 3.519531 -5.015625 3.125 -5.015625 C 2.757812 -5.015625 2.425781 -4.867188 2.125 -4.578125 C 1.820312 -4.296875 1.671875 -3.785156 1.671875 -3.046875 L 1.671875 0 L 0.703125 0 Z M 0.703125 -5.75 "/>
</g>
<g id="glyph-1-14">
<path d="M 0.375 2.25 C 0.945312 1.132812 1.316406 0.320312 1.484375 -0.1875 C 1.734375 -0.957031 1.859375 -1.859375 1.859375 -2.890625 C 1.859375 -3.921875 1.710938 -4.867188 1.421875 -5.734375 C 1.242188 -6.265625 0.890625 -7.023438 0.359375 -8.015625 L 1.015625 -8.015625 C 1.566406 -7.140625 1.898438 -6.597656 2.015625 -6.390625 C 2.128906 -6.179688 2.253906 -5.894531 2.390625 -5.53125 C 2.566406 -5.082031 2.691406 -4.640625 2.765625 -4.203125 C 2.835938 -3.773438 2.875 -3.359375 2.875 -2.953125 C 2.875 -1.890625 2.707031 -0.941406 2.375 -0.109375 C 2.15625 0.417969 1.710938 1.207031 1.046875 2.25 Z M 0.375 2.25 "/>
</g>
<g id="glyph-1-15">
<path d="M 1.53125 -2.546875 C 1.5625 -2.097656 1.671875 -1.734375 1.859375 -1.453125 C 2.210938 -0.929688 2.835938 -0.671875 3.734375 -0.671875 C 4.128906 -0.671875 4.492188 -0.726562 4.828125 -0.84375 C 5.460938 -1.0625 5.78125 -1.457031 5.78125 -2.03125 C 5.78125 -2.46875 5.644531 -2.773438 5.375 -2.953125 C 5.101562 -3.128906 4.675781 -3.285156 4.09375 -3.421875 L 3.03125 -3.65625 C 2.332031 -3.820312 1.835938 -4 1.546875 -4.1875 C 1.046875 -4.507812 0.796875 -5 0.796875 -5.65625 C 0.796875 -6.363281 1.039062 -6.945312 1.53125 -7.40625 C 2.019531 -7.863281 2.710938 -8.09375 3.609375 -8.09375 C 4.441406 -8.09375 5.144531 -7.890625 5.71875 -7.484375 C 6.300781 -7.085938 6.59375 -6.453125 6.59375 -5.578125 L 5.59375 -5.578125 C 5.53125 -5.992188 5.414062 -6.316406 5.25 -6.546875 C 4.914062 -6.960938 4.359375 -7.171875 3.578125 -7.171875 C 2.953125 -7.171875 2.5 -7.035156 2.21875 -6.765625 C 1.945312 -6.503906 1.8125 -6.195312 1.8125 -5.84375 C 1.8125 -5.457031 1.972656 -5.175781 2.296875 -5 C 2.503906 -4.882812 2.984375 -4.738281 3.734375 -4.5625 L 4.828125 -4.3125 C 5.367188 -4.1875 5.78125 -4.019531 6.0625 -3.8125 C 6.570312 -3.445312 6.828125 -2.910156 6.828125 -2.203125 C 6.828125 -1.328125 6.507812 -0.703125 5.875 -0.328125 C 5.238281 0.0429688 4.5 0.234375 3.65625 0.234375 C 2.675781 0.234375 1.90625 -0.015625 1.34375 -0.515625 C 0.789062 -1.015625 0.519531 -1.691406 0.53125 -2.546875 Z M 3.703125 -8.109375 Z M 3.703125 -8.109375 "/>
</g>
<g id="glyph-1-16">
<path d="M 2.921875 -5.921875 C 3.578125 -5.921875 4.109375 -5.757812 4.515625 -5.4375 C 4.921875 -5.125 5.164062 -4.582031 5.25 -3.8125 L 4.296875 -3.8125 C 4.242188 -4.164062 4.113281 -4.457031 3.90625 -4.6875 C 3.707031 -4.925781 3.378906 -5.046875 2.921875 -5.046875 C 2.304688 -5.046875 1.867188 -4.75 1.609375 -4.15625 C 1.429688 -3.757812 1.34375 -3.273438 1.34375 -2.703125 C 1.34375 -2.128906 1.460938 -1.644531 1.703125 -1.25 C 1.953125 -0.851562 2.335938 -0.65625 2.859375 -0.65625 C 3.265625 -0.65625 3.582031 -0.773438 3.8125 -1.015625 C 4.050781 -1.265625 4.210938 -1.601562 4.296875 -2.03125 L 5.25 -2.03125 C 5.132812 -1.269531 4.863281 -0.710938 4.4375 -0.359375 C 4.007812 -0.00390625 3.457031 0.171875 2.78125 0.171875 C 2.03125 0.171875 1.429688 -0.101562 0.984375 -0.65625 C 0.535156 -1.207031 0.3125 -1.894531 0.3125 -2.71875 C 0.3125 -3.726562 0.554688 -4.515625 1.046875 -5.078125 C 1.535156 -5.640625 2.160156 -5.921875 2.921875 -5.921875 Z M 2.78125 -5.890625 Z M 2.78125 -5.890625 "/>
</g>
<g id="glyph-1-17">
<path d="M 1.28125 -1.8125 C 1.3125 -1.488281 1.394531 -1.238281 1.53125 -1.0625 C 1.769531 -0.75 2.191406 -0.59375 2.796875 -0.59375 C 3.148438 -0.59375 3.460938 -0.671875 3.734375 -0.828125 C 4.003906 -0.984375 4.140625 -1.222656 4.140625 -1.546875 C 4.140625 -1.796875 4.03125 -1.984375 3.8125 -2.109375 C 3.675781 -2.191406 3.398438 -2.285156 2.984375 -2.390625 L 2.21875 -2.578125 C 1.726562 -2.703125 1.367188 -2.835938 1.140625 -2.984375 C 0.722656 -3.253906 0.515625 -3.617188 0.515625 -4.078125 C 0.515625 -4.617188 0.707031 -5.054688 1.09375 -5.390625 C 1.488281 -5.734375 2.019531 -5.90625 2.6875 -5.90625 C 3.550781 -5.90625 4.175781 -5.648438 4.5625 -5.140625 C 4.800781 -4.816406 4.914062 -4.46875 4.90625 -4.09375 L 4 -4.09375 C 3.976562 -4.3125 3.898438 -4.507812 3.765625 -4.6875 C 3.546875 -4.945312 3.160156 -5.078125 2.609375 -5.078125 C 2.242188 -5.078125 1.96875 -5.003906 1.78125 -4.859375 C 1.59375 -4.722656 1.5 -4.539062 1.5 -4.3125 C 1.5 -4.0625 1.625 -3.863281 1.875 -3.71875 C 2.007812 -3.625 2.21875 -3.539062 2.5 -3.46875 L 3.140625 -3.3125 C 3.835938 -3.144531 4.300781 -2.984375 4.53125 -2.828125 C 4.914062 -2.578125 5.109375 -2.191406 5.109375 -1.671875 C 5.109375 -1.148438 4.910156 -0.703125 4.515625 -0.328125 C 4.128906 0.0351562 3.539062 0.21875 2.75 0.21875 C 1.894531 0.21875 1.285156 0.0234375 0.921875 -0.359375 C 0.566406 -0.753906 0.378906 -1.238281 0.359375 -1.8125 Z M 2.71875 -5.890625 Z M 2.71875 -5.890625 "/>
</g>
<g id="glyph-2-0">
<path d="M 0 -0.359375 L -7.890625 -0.359375 L -7.890625 -6.625 L 0 -6.625 Z M -0.984375 -5.625 L -6.90625 -5.625 L -6.90625 -1.34375 L -0.984375 -1.34375 Z M -0.984375 -5.625 "/>
</g>
<g id="glyph-2-1">
<path d="M -7.890625 -0.9375 L -7.890625 -4.484375 C -7.890625 -5.191406 -7.691406 -5.757812 -7.296875 -6.1875 C -6.898438 -6.613281 -6.34375 -6.828125 -5.625 -6.828125 C -5.007812 -6.828125 -4.472656 -6.632812 -4.015625 -6.25 C -3.554688 -5.875 -3.328125 -5.285156 -3.328125 -4.484375 L -3.328125 -2.015625 L 0 -2.015625 L 0 -0.9375 Z M -5.625 -5.75 C -6.207031 -5.75 -6.601562 -5.535156 -6.8125 -5.109375 C -6.914062 -4.867188 -6.96875 -4.546875 -6.96875 -4.140625 L -6.96875 -2.015625 L -4.234375 -2.015625 L -4.234375 -4.140625 C -4.234375 -4.617188 -4.332031 -5.003906 -4.53125 -5.296875 C -4.738281 -5.597656 -5.101562 -5.75 -5.625 -5.75 Z M -5.625 -5.75 "/>
</g>
<g id="glyph-2-2">
<path d="M -5.75 -0.734375 L -5.75 -1.65625 L -4.765625 -1.65625 C -4.953125 -1.726562 -5.179688 -1.910156 -5.453125 -2.203125 C -5.734375 -2.492188 -5.875 -2.832031 -5.875 -3.21875 C -5.875 -3.238281 -5.875 -3.269531 -5.875 -3.3125 C -5.875 -3.351562 -5.867188 -3.425781 -5.859375 -3.53125 L -4.828125 -3.53125 C -4.835938 -3.476562 -4.84375 -3.425781 -4.84375 -3.375 C -4.851562 -3.320312 -4.859375 -3.269531 -4.859375 -3.21875 C -4.859375 -2.726562 -4.703125 -2.351562 -4.390625 -2.09375 C -4.078125 -1.832031 -3.71875 -1.703125 -3.3125 -1.703125 L 0 -1.703125 L 0 -0.734375 Z M -5.75 -0.734375 "/>
</g>
<g id="glyph-2-3">
<path d="M -5.875 -3.109375 C -5.875 -3.515625 -5.78125 -3.90625 -5.59375 -4.28125 C -5.40625 -4.664062 -5.15625 -4.960938 -4.84375 -5.171875 C -4.5625 -5.359375 -4.222656 -5.484375 -3.828125 -5.546875 C -3.566406 -5.609375 -3.144531 -5.640625 -2.5625 -5.640625 L -2.5625 -1.421875 C -1.976562 -1.441406 -1.507812 -1.578125 -1.15625 -1.828125 C -0.8125 -2.085938 -0.640625 -2.488281 -0.640625 -3.03125 C -0.640625 -3.539062 -0.804688 -3.945312 -1.140625 -4.25 C -1.328125 -4.414062 -1.550781 -4.535156 -1.8125 -4.609375 L -1.8125 -5.5625 C -1.59375 -5.53125 -1.351562 -5.441406 -1.09375 -5.296875 C -0.832031 -5.160156 -0.625 -5.003906 -0.46875 -4.828125 C -0.175781 -4.535156 0.0195312 -4.175781 0.125 -3.75 C 0.175781 -3.507812 0.203125 -3.242188 0.203125 -2.953125 C 0.203125 -2.234375 -0.0546875 -1.625 -0.578125 -1.125 C -1.097656 -0.632812 -1.828125 -0.390625 -2.765625 -0.390625 C -3.691406 -0.390625 -4.441406 -0.640625 -5.015625 -1.140625 C -5.585938 -1.640625 -5.875 -2.296875 -5.875 -3.109375 Z M -3.328125 -4.640625 C -3.753906 -4.609375 -4.09375 -4.519531 -4.34375 -4.375 C -4.800781 -4.101562 -5.03125 -3.660156 -5.03125 -3.046875 C -5.03125 -2.597656 -4.867188 -2.222656 -4.546875 -1.921875 C -4.234375 -1.628906 -3.828125 -1.472656 -3.328125 -1.453125 Z M -5.890625 -3.015625 Z M -5.890625 -3.015625 "/>
</g>
<g id="glyph-2-4">
<path d="M -2.8125 -1.328125 C -2.195312 -1.328125 -1.679688 -1.457031 -1.265625 -1.71875 C -0.847656 -1.976562 -0.640625 -2.394531 -0.640625 -2.96875 C -0.640625 -3.414062 -0.832031 -3.78125 -1.21875 -4.0625 C -1.601562 -4.351562 -2.15625 -4.5 -2.875 -4.5 C -3.601562 -4.5 -4.140625 -4.347656 -4.484375 -4.046875 C -4.835938 -3.753906 -5.015625 -3.390625 -5.015625 -2.953125 C -5.015625 -2.472656 -4.828125 -2.082031 -4.453125 -1.78125 C -4.078125 -1.476562 -3.53125 -1.328125 -2.8125 -1.328125 Z M -5.859375 -2.78125 C -5.859375 -3.21875 -5.765625 -3.585938 -5.578125 -3.890625 C -5.472656 -4.054688 -5.285156 -4.25 -5.015625 -4.46875 L -7.921875 -4.46875 L -7.921875 -5.390625 L 0 -5.390625 L 0 -4.53125 L -0.796875 -4.53125 C -0.441406 -4.300781 -0.1875 -4.03125 -0.03125 -3.71875 C 0.121094 -3.414062 0.203125 -3.066406 0.203125 -2.671875 C 0.203125 -2.023438 -0.0625 -1.46875 -0.59375 -1 C -1.132812 -0.53125 -1.851562 -0.296875 -2.75 -0.296875 C -3.59375 -0.296875 -4.320312 -0.507812 -4.9375 -0.9375 C -5.550781 -1.363281 -5.859375 -1.976562 -5.859375 -2.78125 Z M -5.859375 -2.78125 "/>
</g>
<g id="glyph-2-5">
<path d="M -5.71875 -0.703125 L -5.71875 -1.6875 L 0 -1.6875 L 0 -0.703125 Z M -7.890625 -0.703125 L -7.890625 -1.6875 L -6.796875 -1.6875 L -6.796875 -0.703125 Z M -7.890625 -0.703125 "/>
</g>
<g id="glyph-2-6">
<path d="M -5.921875 -2.921875 C -5.921875 -3.578125 -5.757812 -4.109375 -5.4375 -4.515625 C -5.125 -4.921875 -4.582031 -5.164062 -3.8125 -5.25 L -3.8125 -4.296875 C -4.164062 -4.242188 -4.457031 -4.113281 -4.6875 -3.90625 C -4.925781 -3.707031 -5.046875 -3.378906 -5.046875 -2.921875 C -5.046875 -2.304688 -4.75 -1.867188 -4.15625 -1.609375 C -3.757812 -1.429688 -3.273438 -1.34375 -2.703125 -1.34375 C -2.128906 -1.34375 -1.644531 -1.460938 -1.25 -1.703125 C -0.851562 -1.953125 -0.65625 -2.335938 -0.65625 -2.859375 C -0.65625 -3.265625 -0.773438 -3.582031 -1.015625 -3.8125 C -1.265625 -4.050781 -1.601562 -4.210938 -2.03125 -4.296875 L -2.03125 -5.25 C -1.269531 -5.132812 -0.710938 -4.863281 -0.359375 -4.4375 C -0.00390625 -4.007812 0.171875 -3.457031 0.171875 -2.78125 C 0.171875 -2.03125 -0.101562 -1.429688 -0.65625 -0.984375 C -1.207031 -0.535156 -1.894531 -0.3125 -2.71875 -0.3125 C -3.726562 -0.3125 -4.515625 -0.554688 -5.078125 -1.046875 C -5.640625 -1.535156 -5.921875 -2.160156 -5.921875 -2.921875 Z M -5.890625 -2.78125 Z M -5.890625 -2.78125 "/>
</g>
<g id="glyph-2-7">
<path d="M -7.359375 -0.90625 L -7.359375 -1.875 L -5.75 -1.875 L -5.75 -2.796875 L -4.96875 -2.796875 L -4.96875 -1.875 L -1.203125 -1.875 C -1.003906 -1.875 -0.875 -1.941406 -0.8125 -2.078125 C -0.769531 -2.160156 -0.75 -2.285156 -0.75 -2.453125 C -0.75 -2.503906 -0.75 -2.554688 -0.75 -2.609375 C -0.75 -2.660156 -0.753906 -2.722656 -0.765625 -2.796875 L 0 -2.796875 C 0.03125 -2.679688 0.0507812 -2.5625 0.0625 -2.4375 C 0.0820312 -2.320312 0.09375 -2.195312 0.09375 -2.0625 C 0.09375 -1.613281 -0.0195312 -1.304688 -0.25 -1.140625 C -0.488281 -0.984375 -0.789062 -0.90625 -1.15625 -0.90625 L -4.96875 -0.90625 L -4.96875 -0.125 L -5.75 -0.125 L -5.75 -0.90625 Z M -7.359375 -0.90625 "/>
</g>
<g id="glyph-2-8">
</g>
<g id="glyph-2-9">
<path d="M -7.921875 -0.640625 L -7.921875 -1.578125 L -5.046875 -1.578125 C -5.328125 -1.785156 -5.539062 -2.035156 -5.6875 -2.328125 C -5.832031 -2.617188 -5.90625 -2.9375 -5.90625 -3.28125 C -5.90625 -4 -5.65625 -4.582031 -5.15625 -5.03125 C -4.664062 -5.476562 -3.941406 -5.703125 -2.984375 -5.703125 C -2.078125 -5.703125 -1.320312 -5.476562 -0.71875 -5.03125 C -0.113281 -4.59375 0.1875 -3.984375 0.1875 -3.203125 C 0.1875 -2.765625 0.0742188 -2.394531 -0.140625 -2.09375 C -0.265625 -1.914062 -0.460938 -1.726562 -0.734375 -1.53125 L 0 -1.53125 L 0 -0.640625 Z M -0.671875 -3.140625 C -0.671875 -3.671875 -0.878906 -4.0625 -1.296875 -4.3125 C -1.710938 -4.570312 -2.257812 -4.703125 -2.9375 -4.703125 C -3.539062 -4.703125 -4.039062 -4.570312 -4.4375 -4.3125 C -4.832031 -4.0625 -5.03125 -3.679688 -5.03125 -3.171875 C -5.03125 -2.734375 -4.867188 -2.347656 -4.546875 -2.015625 C -4.222656 -1.679688 -3.6875 -1.515625 -2.9375 -1.515625 C -2.394531 -1.515625 -1.957031 -1.582031 -1.625 -1.71875 C -0.988281 -1.976562 -0.671875 -2.453125 -0.671875 -3.140625 Z M -0.671875 -3.140625 "/>
</g>
<g id="glyph-2-10">
<path d="M -0.625 -2.984375 C -0.625 -3.628906 -0.863281 -4.070312 -1.34375 -4.3125 C -1.832031 -4.550781 -2.375 -4.671875 -2.96875 -4.671875 C -3.507812 -4.671875 -3.945312 -4.582031 -4.28125 -4.40625 C -4.8125 -4.132812 -5.078125 -3.664062 -5.078125 -3 C -5.078125 -2.40625 -4.847656 -1.972656 -4.390625 -1.703125 C -3.941406 -1.441406 -3.398438 -1.3125 -2.765625 -1.3125 C -2.148438 -1.3125 -1.640625 -1.441406 -1.234375 -1.703125 C -0.828125 -1.972656 -0.625 -2.398438 -0.625 -2.984375 Z M -5.921875 -3.03125 C -5.921875 -3.769531 -5.671875 -4.394531 -5.171875 -4.90625 C -4.679688 -5.414062 -3.957031 -5.671875 -3 -5.671875 C -2.070312 -5.671875 -1.304688 -5.445312 -0.703125 -5 C -0.0976562 -4.550781 0.203125 -3.851562 0.203125 -2.90625 C 0.203125 -2.113281 -0.0625 -1.484375 -0.59375 -1.015625 C -1.125 -0.546875 -1.84375 -0.3125 -2.75 -0.3125 C -3.71875 -0.3125 -4.488281 -0.554688 -5.0625 -1.046875 C -5.632812 -1.535156 -5.921875 -2.195312 -5.921875 -3.03125 Z M -5.890625 -3 Z M -5.890625 -3 "/>
</g>
<g id="glyph-2-11">
<path d="M -5.75 -4.296875 L -5.75 -5.375 C -5.382812 -5.238281 -4.546875 -4.9375 -3.234375 -4.46875 C -2.242188 -4.113281 -1.4375 -3.816406 -0.8125 -3.578125 C 0.652344 -3.023438 1.550781 -2.632812 1.875 -2.40625 C 2.195312 -2.175781 2.359375 -1.78125 2.359375 -1.21875 C 2.359375 -1.082031 2.351562 -0.976562 2.34375 -0.90625 C 2.332031 -0.832031 2.3125 -0.742188 2.28125 -0.640625 L 1.40625 -0.640625 C 1.445312 -0.804688 1.472656 -0.925781 1.484375 -1 C 1.492188 -1.070312 1.5 -1.140625 1.5 -1.203125 C 1.5 -1.378906 1.46875 -1.507812 1.40625 -1.59375 C 1.351562 -1.675781 1.285156 -1.75 1.203125 -1.8125 C 1.171875 -1.820312 1.019531 -1.882812 0.75 -2 C 0.488281 -2.113281 0.296875 -2.191406 0.171875 -2.234375 L -5.75 -0.109375 L -5.75 -1.203125 L -1.0625 -2.75 Z M -5.890625 -2.75 Z M -5.890625 -2.75 "/>
</g>
<g id="glyph-2-12">
<path d="M -5.75 -0.703125 L -5.75 -1.671875 L -4.9375 -1.671875 C -5.21875 -1.898438 -5.421875 -2.101562 -5.546875 -2.28125 C -5.765625 -2.601562 -5.875 -2.96875 -5.875 -3.375 C -5.875 -3.832031 -5.765625 -4.203125 -5.546875 -4.484375 C -5.410156 -4.640625 -5.21875 -4.78125 -4.96875 -4.90625 C -5.28125 -5.125 -5.507812 -5.378906 -5.65625 -5.671875 C -5.800781 -5.960938 -5.875 -6.285156 -5.875 -6.640625 C -5.875 -7.410156 -5.597656 -7.9375 -5.046875 -8.21875 C -4.742188 -8.375 -4.335938 -8.453125 -3.828125 -8.453125 L 0 -8.453125 L 0 -7.4375 L -4 -7.4375 C -4.382812 -7.4375 -4.644531 -7.34375 -4.78125 -7.15625 C -4.925781 -6.96875 -5 -6.734375 -5 -6.453125 C -5 -6.078125 -4.867188 -5.75 -4.609375 -5.46875 C -4.359375 -5.195312 -3.9375 -5.0625 -3.34375 -5.0625 L 0 -5.0625 L 0 -4.078125 L -3.75 -4.078125 C -4.144531 -4.078125 -4.429688 -4.03125 -4.609375 -3.9375 C -4.878906 -3.789062 -5.015625 -3.519531 -5.015625 -3.125 C -5.015625 -2.757812 -4.867188 -2.425781 -4.578125 -2.125 C -4.296875 -1.820312 -3.785156 -1.671875 -3.046875 -1.671875 L 0 -1.671875 L 0 -0.703125 Z M -5.75 -0.703125 "/>
</g>
<g id="glyph-2-13">
<path d="M -1.53125 -1.453125 C -1.25 -1.453125 -1.023438 -1.550781 -0.859375 -1.75 C -0.703125 -1.957031 -0.625 -2.203125 -0.625 -2.484375 C -0.625 -2.816406 -0.703125 -3.144531 -0.859375 -3.46875 C -1.117188 -4.007812 -1.550781 -4.28125 -2.15625 -4.28125 L -2.921875 -4.28125 C -2.847656 -4.15625 -2.785156 -4 -2.734375 -3.8125 C -2.691406 -3.632812 -2.65625 -3.453125 -2.625 -3.265625 L -2.5625 -2.6875 C -2.507812 -2.332031 -2.4375 -2.066406 -2.34375 -1.890625 C -2.164062 -1.597656 -1.894531 -1.453125 -1.53125 -1.453125 Z M -3.484375 -3.796875 C -3.515625 -4.015625 -3.609375 -4.160156 -3.765625 -4.234375 C -3.847656 -4.273438 -3.972656 -4.296875 -4.140625 -4.296875 C -4.460938 -4.296875 -4.695312 -4.175781 -4.84375 -3.9375 C -5 -3.707031 -5.078125 -3.375 -5.078125 -2.9375 C -5.078125 -2.4375 -4.941406 -2.082031 -4.671875 -1.875 C -4.515625 -1.75 -4.289062 -1.671875 -4 -1.640625 L -4 -0.734375 C -4.707031 -0.753906 -5.195312 -0.984375 -5.46875 -1.421875 C -5.75 -1.867188 -5.890625 -2.382812 -5.890625 -2.96875 C -5.890625 -3.644531 -5.757812 -4.191406 -5.5 -4.609375 C -5.25 -5.035156 -4.847656 -5.25 -4.296875 -5.25 L -0.984375 -5.25 C -0.890625 -5.25 -0.8125 -5.265625 -0.75 -5.296875 C -0.6875 -5.335938 -0.65625 -5.425781 -0.65625 -5.5625 C -0.65625 -5.601562 -0.65625 -5.648438 -0.65625 -5.703125 C -0.664062 -5.765625 -0.675781 -5.820312 -0.6875 -5.875 L 0.03125 -5.875 C 0.0703125 -5.726562 0.0976562 -5.613281 0.109375 -5.53125 C 0.117188 -5.457031 0.125 -5.351562 0.125 -5.21875 C 0.125 -4.882812 0.00390625 -4.640625 -0.234375 -4.484375 C -0.359375 -4.410156 -0.535156 -4.359375 -0.765625 -4.328125 C -0.503906 -4.128906 -0.28125 -3.84375 -0.09375 -3.46875 C 0.0898438 -3.101562 0.1875 -2.695312 0.1875 -2.25 C 0.1875 -1.71875 0.0234375 -1.28125 -0.296875 -0.9375 C -0.617188 -0.601562 -1.023438 -0.4375 -1.515625 -0.4375 C -2.046875 -0.4375 -2.457031 -0.601562 -2.75 -0.9375 C -3.039062 -1.269531 -3.222656 -1.707031 -3.296875 -2.25 Z M -5.890625 -2.984375 Z M -5.890625 -2.984375 "/>
</g>
<g id="glyph-2-14">
<path d="M -1.8125 -1.28125 C -1.488281 -1.3125 -1.238281 -1.394531 -1.0625 -1.53125 C -0.75 -1.769531 -0.59375 -2.191406 -0.59375 -2.796875 C -0.59375 -3.148438 -0.671875 -3.460938 -0.828125 -3.734375 C -0.984375 -4.003906 -1.222656 -4.140625 -1.546875 -4.140625 C -1.796875 -4.140625 -1.984375 -4.03125 -2.109375 -3.8125 C -2.191406 -3.675781 -2.285156 -3.398438 -2.390625 -2.984375 L -2.578125 -2.21875 C -2.703125 -1.726562 -2.835938 -1.367188 -2.984375 -1.140625 C -3.253906 -0.722656 -3.617188 -0.515625 -4.078125 -0.515625 C -4.617188 -0.515625 -5.054688 -0.707031 -5.390625 -1.09375 C -5.734375 -1.488281 -5.90625 -2.019531 -5.90625 -2.6875 C -5.90625 -3.550781 -5.648438 -4.175781 -5.140625 -4.5625 C -4.816406 -4.800781 -4.46875 -4.914062 -4.09375 -4.90625 L -4.09375 -4 C -4.3125 -3.976562 -4.507812 -3.898438 -4.6875 -3.765625 C -4.945312 -3.546875 -5.078125 -3.160156 -5.078125 -2.609375 C -5.078125 -2.242188 -5.003906 -1.96875 -4.859375 -1.78125 C -4.722656 -1.59375 -4.539062 -1.5 -4.3125 -1.5 C -4.0625 -1.5 -3.863281 -1.625 -3.71875 -1.875 C -3.625 -2.007812 -3.539062 -2.21875 -3.46875 -2.5 L -3.3125 -3.140625 C -3.144531 -3.835938 -2.984375 -4.300781 -2.828125 -4.53125 C -2.578125 -4.914062 -2.191406 -5.109375 -1.671875 -5.109375 C -1.148438 -5.109375 -0.703125 -4.910156 -0.328125 -4.515625 C 0.0351562 -4.128906 0.21875 -3.539062 0.21875 -2.75 C 0.21875 -1.894531 0.0234375 -1.285156 -0.359375 -0.921875 C -0.753906 -0.566406 -1.238281 -0.378906 -1.8125 -0.359375 Z M -5.890625 -2.71875 Z M -5.890625 -2.71875 "/>
</g>
<g id="glyph-2-15">
<path d="M -8.015625 -3.25 C -6.921875 -2.6875 -6.117188 -2.320312 -5.609375 -2.15625 C -4.828125 -1.90625 -3.921875 -1.78125 -2.890625 -1.78125 C -1.847656 -1.78125 -0.898438 -1.925781 -0.046875 -2.21875 C 0.480469 -2.394531 1.25 -2.742188 2.25 -3.265625 L 2.25 -2.625 C 1.425781 -2.101562 0.898438 -1.78125 0.671875 -1.65625 C 0.453125 -1.53125 0.148438 -1.390625 -0.234375 -1.234375 C -0.765625 -1.035156 -1.332031 -0.898438 -1.9375 -0.828125 C -2.25 -0.785156 -2.546875 -0.765625 -2.828125 -0.765625 C -3.890625 -0.765625 -4.832031 -0.929688 -5.65625 -1.265625 C -6.1875 -1.472656 -6.972656 -1.910156 -8.015625 -2.578125 Z M -8.015625 -3.25 "/>
</g>
<g id="glyph-2-16">
<path d="M -5.859375 -2.734375 C -5.859375 -3.191406 -5.742188 -3.585938 -5.515625 -3.921875 C -5.390625 -4.097656 -5.207031 -4.285156 -4.96875 -4.484375 L -5.703125 -4.484375 L -5.703125 -5.375 L -0.46875 -5.375 C 0.257812 -5.375 0.835938 -5.265625 1.265625 -5.046875 C 2.046875 -4.648438 2.4375 -3.894531 2.4375 -2.78125 C 2.4375 -2.15625 2.296875 -1.628906 2.015625 -1.203125 C 1.734375 -0.785156 1.300781 -0.550781 0.71875 -0.5 L 0.71875 -1.484375 C 0.96875 -1.535156 1.164062 -1.628906 1.3125 -1.765625 C 1.53125 -1.984375 1.640625 -2.328125 1.640625 -2.796875 C 1.640625 -3.535156 1.375 -4.019531 0.84375 -4.25 C 0.539062 -4.382812 -0.00390625 -4.445312 -0.796875 -4.4375 C -0.503906 -4.25 -0.285156 -4.015625 -0.140625 -3.734375 C -0.00390625 -3.460938 0.0625 -3.109375 0.0625 -2.671875 C 0.0625 -2.046875 -0.15625 -1.5 -0.59375 -1.03125 C -1.03125 -0.5625 -1.757812 -0.328125 -2.78125 -0.328125 C -3.75 -0.328125 -4.503906 -0.5625 -5.046875 -1.03125 C -5.585938 -1.5 -5.859375 -2.066406 -5.859375 -2.734375 Z M -2.90625 -4.484375 C -3.613281 -4.484375 -4.140625 -4.332031 -4.484375 -4.03125 C -4.828125 -3.738281 -5 -3.367188 -5 -2.921875 C -5 -2.234375 -4.679688 -1.765625 -4.046875 -1.515625 C -3.703125 -1.390625 -3.253906 -1.328125 -2.703125 -1.328125 C -2.054688 -1.328125 -1.5625 -1.457031 -1.21875 -1.71875 C -0.882812 -1.976562 -0.71875 -2.332031 -0.71875 -2.78125 C -0.71875 -3.46875 -1.03125 -3.957031 -1.65625 -4.25 C -2.007812 -4.40625 -2.425781 -4.484375 -2.90625 -4.484375 Z M -5.890625 -2.859375 Z M -5.890625 -2.859375 "/>
</g>
<g id="glyph-2-17">
<path d="M 2.25 -0.375 C 1.132812 -0.945312 0.320312 -1.316406 -0.1875 -1.484375 C -0.957031 -1.734375 -1.859375 -1.859375 -2.890625 -1.859375 C -3.921875 -1.859375 -4.867188 -1.710938 -5.734375 -1.421875 C -6.265625 -1.242188 -7.023438 -0.890625 -8.015625 -0.359375 L -8.015625 -1.015625 C -7.140625 -1.566406 -6.597656 -1.898438 -6.390625 -2.015625 C -6.179688 -2.128906 -5.894531 -2.253906 -5.53125 -2.390625 C -5.082031 -2.566406 -4.640625 -2.691406 -4.203125 -2.765625 C -3.773438 -2.835938 -3.359375 -2.875 -2.953125 -2.875 C -1.890625 -2.875 -0.941406 -2.707031 -0.109375 -2.375 C 0.417969 -2.15625 1.207031 -1.710938 2.25 -1.046875 Z M 2.25 -0.375 "/>
</g>
</g>
<clipPath id="clip-0">
<path clip-rule="nonzero" d="M 44.152344 203 L 488.84375 203 L 488.84375 204 L 44.152344 204 Z M 44.152344 203 "/>
</clipPath>
<clipPath id="clip-1">
<path clip-rule="nonzero" d="M 44.152344 149 L 488.84375 149 L 488.84375 150 L 44.152344 150 Z M 44.152344 149 "/>
</clipPath>
<clipPath id="clip-2">
<path clip-rule="nonzero" d="M 44.152344 95 L 488.84375 95 L 488.84375 97 L 44.152344 97 Z M 44.152344 95 "/>
</clipPath>
<clipPath id="clip-3">
<path clip-rule="nonzero" d="M 44.152344 41 L 488.84375 41 L 488.84375 43 L 44.152344 43 Z M 44.152344 41 "/>
</clipPath>
<clipPath id="clip-4">
<path clip-rule="nonzero" d="M 84 5.480469 L 86 5.480469 L 86 232.851562 L 84 232.851562 Z M 84 5.480469 "/>
</clipPath>
<clipPath id="clip-5">
<path clip-rule="nonzero" d="M 153 5.480469 L 154 5.480469 L 154 232.851562 L 153 232.851562 Z M 153 5.480469 "/>
</clipPath>
<clipPath id="clip-6">
<path clip-rule="nonzero" d="M 221 5.480469 L 223 5.480469 L 223 232.851562 L 221 232.851562 Z M 221 5.480469 "/>
</clipPath>
<clipPath id="clip-7">
<path clip-rule="nonzero" d="M 290 5.480469 L 291 5.480469 L 291 232.851562 L 290 232.851562 Z M 290 5.480469 "/>
</clipPath>
<clipPath id="clip-8">
<path clip-rule="nonzero" d="M 358 5.480469 L 360 5.480469 L 360 232.851562 L 358 232.851562 Z M 358 5.480469 "/>
</clipPath>
<clipPath id="clip-9">
<path clip-rule="nonzero" d="M 427 5.480469 L 428 5.480469 L 428 232.851562 L 427 232.851562 Z M 427 5.480469 "/>
</clipPath>
<clipPath id="clip-10">
<path clip-rule="nonzero" d="M 44.152344 229 L 488.84375 229 L 488.84375 231 L 44.152344 231 Z M 44.152344 229 "/>
</clipPath>
<clipPath id="clip-11">
<path clip-rule="nonzero" d="M 44.152344 175 L 488.84375 175 L 488.84375 178 L 44.152344 178 Z M 44.152344 175 "/>
</clipPath>
<clipPath id="clip-12">
<path clip-rule="nonzero" d="M 44.152344 122 L 488.84375 122 L 488.84375 124 L 44.152344 124 Z M 44.152344 122 "/>
</clipPath>
<clipPath id="clip-13">
<path clip-rule="nonzero" d="M 44.152344 68 L 488.84375 68 L 488.84375 70 L 44.152344 70 Z M 44.152344 68 "/>
</clipPath>
<clipPath id="clip-14">
<path clip-rule="nonzero" d="M 44.152344 14 L 488.84375 14 L 488.84375 16 L 44.152344 16 Z M 44.152344 14 "/>
</clipPath>
<clipPath id="clip-15">
<path clip-rule="nonzero" d="M 50 5.480469 L 52 5.480469 L 52 232.851562 L 50 232.851562 Z M 50 5.480469 "/>
</clipPath>
<clipPath id="clip-16">
<path clip-rule="nonzero" d="M 118 5.480469 L 120 5.480469 L 120 232.851562 L 118 232.851562 Z M 118 5.480469 "/>
</clipPath>
<clipPath id="clip-17">
<path clip-rule="nonzero" d="M 187 5.480469 L 189 5.480469 L 189 232.851562 L 187 232.851562 Z M 187 5.480469 "/>
</clipPath>
<clipPath id="clip-18">
<path clip-rule="nonzero" d="M 255 5.480469 L 257 5.480469 L 257 232.851562 L 255 232.851562 Z M 255 5.480469 "/>
</clipPath>
<clipPath id="clip-19">
<path clip-rule="nonzero" d="M 324 5.480469 L 326 5.480469 L 326 232.851562 L 324 232.851562 Z M 324 5.480469 "/>
</clipPath>
<clipPath id="clip-20">
<path clip-rule="nonzero" d="M 392 5.480469 L 394 5.480469 L 394 232.851562 L 392 232.851562 Z M 392 5.480469 "/>
</clipPath>
<clipPath id="clip-21">
<path clip-rule="nonzero" d="M 461 5.480469 L 463 5.480469 L 463 232.851562 L 461 232.851562 Z M 461 5.480469 "/>
</clipPath>
</defs>
<rect x="-57.6" y="-26.6" width="691.2" height="319.2" fill="rgb(100%, 100%, 100%)" fill-opacity="1"/>
<rect x="-57.6" y="-26.6" width="691.2" height="319.2" fill="rgb(100%, 100%, 100%)" fill-opacity="1"/>
<g clip-path="url(#clip-0)">
<path fill="none" stroke-width="0.533489" stroke-linecap="butt" stroke-linejoin="round" stroke="rgb(92.156863%, 92.156863%, 92.156863%)" stroke-opacity="1" stroke-miterlimit="10" d="M 44.152344 203.402344 L 488.84375 203.402344 "/>
</g>
<g clip-path="url(#clip-1)">
<path fill="none" stroke-width="0.533489" stroke-linecap="butt" stroke-linejoin="round" stroke="rgb(92.156863%, 92.156863%, 92.156863%)" stroke-opacity="1" stroke-miterlimit="10" d="M 44.152344 149.578125 L 488.84375 149.578125 "/>
</g>
<g clip-path="url(#clip-2)">
<path fill="none" stroke-width="0.533489" stroke-linecap="butt" stroke-linejoin="round" stroke="rgb(92.156863%, 92.156863%, 92.156863%)" stroke-opacity="1" stroke-miterlimit="10" d="M 44.152344 95.753906 L 488.84375 95.753906 "/>
</g>
<g clip-path="url(#clip-3)">
<path fill="none" stroke-width="0.533489" stroke-linecap="butt" stroke-linejoin="round" stroke="rgb(92.156863%, 92.156863%, 92.156863%)" stroke-opacity="1" stroke-miterlimit="10" d="M 44.152344 41.925781 L 488.84375 41.925781 "/>
</g>
<g clip-path="url(#clip-4)">
<path fill="none" stroke-width="0.533489" stroke-linecap="butt" stroke-linejoin="round" stroke="rgb(92.156863%, 92.156863%, 92.156863%)" stroke-opacity="1" stroke-miterlimit="10" d="M 84.917969 232.847656 L 84.917969 5.480469 "/>
</g>
<g clip-path="url(#clip-5)">
<path fill="none" stroke-width="0.533489" stroke-linecap="butt" stroke-linejoin="round" stroke="rgb(92.156863%, 92.156863%, 92.156863%)" stroke-opacity="1" stroke-miterlimit="10" d="M 153.441406 232.847656 L 153.441406 5.480469 "/>
</g>
<g clip-path="url(#clip-6)">
<path fill="none" stroke-width="0.533489" stroke-linecap="butt" stroke-linejoin="round" stroke="rgb(92.156863%, 92.156863%, 92.156863%)" stroke-opacity="1" stroke-miterlimit="10" d="M 221.960938 232.847656 L 221.960938 5.480469 "/>
</g>
<g clip-path="url(#clip-7)">
<path fill="none" stroke-width="0.533489" stroke-linecap="butt" stroke-linejoin="round" stroke="rgb(92.156863%, 92.156863%, 92.156863%)" stroke-opacity="1" stroke-miterlimit="10" d="M 290.480469 232.847656 L 290.480469 5.480469 "/>
</g>
<g clip-path="url(#clip-8)">
<path fill="none" stroke-width="0.533489" stroke-linecap="butt" stroke-linejoin="round" stroke="rgb(92.156863%, 92.156863%, 92.156863%)" stroke-opacity="1" stroke-miterlimit="10" d="M 359 232.847656 L 359 5.480469 "/>
</g>
<g clip-path="url(#clip-9)">
<path fill="none" stroke-width="0.533489" stroke-linecap="butt" stroke-linejoin="round" stroke="rgb(92.156863%, 92.156863%, 92.156863%)" stroke-opacity="1" stroke-miterlimit="10" d="M 427.519531 232.847656 L 427.519531 5.480469 "/>
</g>
<g clip-path="url(#clip-10)">
<path fill="none" stroke-width="1.066978" stroke-linecap="butt" stroke-linejoin="round" stroke="rgb(92.156863%, 92.156863%, 92.156863%)" stroke-opacity="1" stroke-miterlimit="10" d="M 44.152344 230.3125 L 488.84375 230.3125 "/>
</g>
<g clip-path="url(#clip-11)">
<path fill="none" stroke-width="1.066978" stroke-linecap="butt" stroke-linejoin="round" stroke="rgb(92.156863%, 92.156863%, 92.156863%)" stroke-opacity="1" stroke-miterlimit="10" d="M 44.152344 176.488281 L 488.84375 176.488281 "/>
</g>
<g clip-path="url(#clip-12)">
<path fill="none" stroke-width="1.066978" stroke-linecap="butt" stroke-linejoin="round" stroke="rgb(92.156863%, 92.156863%, 92.156863%)" stroke-opacity="1" stroke-miterlimit="10" d="M 44.152344 122.664062 L 488.84375 122.664062 "/>
</g>
<g clip-path="url(#clip-13)">
<path fill="none" stroke-width="1.066978" stroke-linecap="butt" stroke-linejoin="round" stroke="rgb(92.156863%, 92.156863%, 92.156863%)" stroke-opacity="1" stroke-miterlimit="10" d="M 44.152344 68.839844 L 488.84375 68.839844 "/>
</g>
<g clip-path="url(#clip-14)">
<path fill="none" stroke-width="1.066978" stroke-linecap="butt" stroke-linejoin="round" stroke="rgb(92.156863%, 92.156863%, 92.156863%)" stroke-opacity="1" stroke-miterlimit="10" d="M 44.152344 15.015625 L 488.84375 15.015625 "/>
</g>
<g clip-path="url(#clip-15)">
<path fill="none" stroke-width="1.066978" stroke-linecap="butt" stroke-linejoin="round" stroke="rgb(92.156863%, 92.156863%, 92.156863%)" stroke-opacity="1" stroke-miterlimit="10" d="M 50.660156 232.847656 L 50.660156 5.480469 "/>
</g>
<g clip-path="url(#clip-16)">
<path fill="none" stroke-width="1.066978" stroke-linecap="butt" stroke-linejoin="round" stroke="rgb(92.156863%, 92.156863%, 92.156863%)" stroke-opacity="1" stroke-miterlimit="10" d="M 119.179688 232.847656 L 119.179688 5.480469 "/>
</g>
<g clip-path="url(#clip-17)">
<path fill="none" stroke-width="1.066978" stroke-linecap="butt" stroke-linejoin="round" stroke="rgb(92.156863%, 92.156863%, 92.156863%)" stroke-opacity="1" stroke-miterlimit="10" d="M 187.699219 232.847656 L 187.699219 5.480469 "/>
</g>
<g clip-path="url(#clip-18)">
<path fill="none" stroke-width="1.066978" stroke-linecap="butt" stroke-linejoin="round" stroke="rgb(92.156863%, 92.156863%, 92.156863%)" stroke-opacity="1" stroke-miterlimit="10" d="M 256.21875 232.847656 L 256.21875 5.480469 "/>
</g>
<g clip-path="url(#clip-19)">
<path fill="none" stroke-width="1.066978" stroke-linecap="butt" stroke-linejoin="round" stroke="rgb(92.156863%, 92.156863%, 92.156863%)" stroke-opacity="1" stroke-miterlimit="10" d="M 324.738281 232.847656 L 324.738281 5.480469 "/>
</g>
<g clip-path="url(#clip-20)">
<path fill="none" stroke-width="1.066978" stroke-linecap="butt" stroke-linejoin="round" stroke="rgb(92.156863%, 92.156863%, 92.156863%)" stroke-opacity="1" stroke-miterlimit="10" d="M 393.257812 232.847656 L 393.257812 5.480469 "/>
</g>
<g clip-path="url(#clip-21)">
<path fill="none" stroke-width="1.066978" stroke-linecap="butt" stroke-linejoin="round" stroke="rgb(92.156863%, 92.156863%, 92.156863%)" stroke-opacity="1" stroke-miterlimit="10" d="M 461.777344 232.847656 L 461.777344 5.480469 "/>
</g>
<path fill-rule="nonzero" fill="rgb(97.254902%, 46.27451%, 42.745098%)" fill-opacity="0.101961" d="M 64.363281 161.179688 L 72.613281 159.601562 L 80.863281 158.019531 L 89.113281 156.429688 L 97.367188 154.832031 L 105.617188 153.226562 L 113.867188 151.609375 L 122.117188 149.976562 L 130.367188 148.320312 L 138.617188 146.640625 L 146.867188 144.929688 L 155.117188 143.171875 L 163.367188 141.355469 L 171.617188 139.46875 L 179.867188 137.488281 L 188.117188 135.402344 L 196.371094 133.214844 L 204.621094 130.921875 L 212.871094 128.539062 L 221.121094 126.085938 L 229.371094 123.582031 L 237.621094 121.03125 L 245.871094 118.449219 L 254.121094 115.84375 L 262.371094 113.21875 L 270.621094 110.578125 L 278.871094 107.925781 L 287.121094 105.265625 L 295.375 102.597656 L 303.625 99.925781 L 311.875 97.246094 L 328.375 91.878906 L 344.875 86.496094 L 361.375 81.105469 L 386.125 73.007812 L 394.378906 70.304688 L 419.128906 62.195312 L 468.628906 45.953125 L 468.628906 86.527344 L 460.378906 88.074219 L 452.128906 89.625 L 443.878906 91.171875 L 435.628906 92.722656 L 427.378906 94.269531 L 410.878906 97.371094 L 402.628906 98.925781 L 394.378906 100.476562 L 386.125 102.03125 L 369.625 105.140625 L 353.125 108.257812 L 336.625 111.382812 L 328.375 112.949219 L 311.875 116.089844 L 303.625 117.667969 L 295.375 119.25 L 287.121094 120.839844 L 278.871094 122.433594 L 270.621094 124.039062 L 262.371094 125.652344 L 254.121094 127.285156 L 245.871094 128.933594 L 237.621094 130.609375 L 229.371094 132.3125 L 221.121094 134.0625 L 212.871094 135.867188 L 204.621094 137.742188 L 196.371094 139.703125 L 188.117188 141.769531 L 179.867188 143.941406 L 171.617188 146.214844 L 163.367188 148.582031 L 155.117188 151.023438 L 146.867188 153.519531 L 138.617188 156.0625 L 130.367188 158.640625 L 122.117188 161.242188 L 113.867188 163.863281 L 105.617188 166.5 L 97.367188 169.152344 L 89.113281 171.808594 L 80.863281 174.476562 L 72.613281 177.148438 L 64.363281 179.828125 Z M 64.363281 161.179688 "/>
<path fill-rule="nonzero" fill="rgb(0%, 72.941176%, 21.960784%)" fill-opacity="0.101961" d="M 64.363281 164.71875 L 72.613281 163.25 L 80.863281 161.777344 L 89.113281 160.300781 L 97.367188 158.816406 L 105.617188 157.328125 L 113.867188 155.835938 L 122.117188 154.332031 L 130.367188 152.816406 L 138.617188 151.292969 L 146.867188 149.75 L 155.117188 148.191406 L 163.367188 146.609375 L 171.617188 144.996094 L 179.867188 143.34375 L 188.117188 141.640625 L 196.371094 139.875 L 204.621094 138.027344 L 212.871094 136.078125 L 221.121094 134.007812 L 229.371094 131.804688 L 237.621094 129.46875 L 245.871094 127.003906 L 254.121094 124.425781 L 262.371094 121.753906 L 270.621094 119.011719 L 278.871094 116.207031 L 287.121094 113.359375 L 295.375 110.480469 L 303.625 107.570312 L 311.875 104.640625 L 320.125 101.691406 L 328.375 98.730469 L 336.625 95.757812 L 344.875 92.777344 L 353.125 89.789062 L 361.375 86.792969 L 377.875 80.785156 L 386.125 77.773438 L 394.378906 74.761719 L 402.628906 71.746094 L 410.878906 68.726562 L 435.628906 59.65625 L 452.128906 53.601562 L 468.628906 47.539062 L 468.628906 95.601562 L 460.378906 97.050781 L 435.628906 101.410156 L 419.128906 104.324219 L 410.878906 105.785156 L 394.378906 108.714844 L 386.125 110.179688 L 377.875 111.652344 L 369.625 113.128906 L 361.375 114.609375 L 353.125 116.09375 L 344.875 117.585938 L 336.625 119.085938 L 328.375 120.59375 L 320.125 122.113281 L 311.875 123.648438 L 303.625 125.199219 L 295.375 126.769531 L 287.121094 128.371094 L 278.871094 130.003906 L 270.621094 131.683594 L 262.371094 133.421875 L 254.121094 135.230469 L 245.871094 137.136719 L 237.621094 139.152344 L 229.371094 141.292969 L 221.121094 143.574219 L 212.871094 145.988281 L 204.621094 148.519531 L 196.371094 151.152344 L 188.117188 153.867188 L 179.867188 156.644531 L 171.617188 159.476562 L 163.367188 162.34375 L 155.117188 165.242188 L 146.867188 168.164062 L 138.617188 171.105469 L 130.367188 174.058594 L 122.117188 177.027344 L 113.867188 180.003906 L 105.617188 182.992188 L 97.367188 185.984375 L 89.113281 188.984375 L 80.863281 191.988281 L 72.613281 194.996094 L 64.363281 198.007812 Z M 64.363281 164.71875 "/>
<path fill-rule="nonzero" fill="rgb(38.039216%, 61.176471%, 100%)" fill-opacity="0.101961" d="M 64.363281 172.683594 L 72.613281 169.796875 L 89.113281 164.015625 L 97.367188 161.125 L 105.617188 158.234375 L 113.867188 155.339844 L 122.117188 152.449219 L 163.367188 137.976562 L 188.117188 129.28125 L 196.371094 126.378906 L 204.621094 123.476562 L 212.871094 120.570312 L 237.621094 111.839844 L 245.871094 108.921875 L 254.121094 106 L 262.371094 103.074219 L 270.621094 100.140625 L 278.871094 97.203125 L 287.121094 94.253906 L 295.375 91.292969 L 303.625 88.316406 L 311.875 85.324219 L 320.125 82.304688 L 328.375 79.257812 L 336.625 76.164062 L 344.875 73.019531 L 353.125 69.800781 L 361.375 66.492188 L 369.625 63.074219 L 377.875 59.539062 L 386.125 55.882812 L 394.378906 52.117188 L 402.628906 48.257812 L 410.878906 44.328125 L 419.128906 40.339844 L 427.378906 36.3125 L 435.628906 32.253906 L 443.878906 28.167969 L 452.128906 24.0625 L 460.378906 19.945312 L 468.628906 15.8125 L 468.628906 32.460938 L 460.378906 35.410156 L 452.128906 38.371094 L 443.878906 41.347656 L 435.628906 44.34375 L 427.378906 47.363281 L 419.128906 50.414062 L 410.878906 53.507812 L 402.628906 56.65625 L 394.378906 59.878906 L 386.125 63.191406 L 377.875 66.617188 L 369.625 70.160156 L 361.375 73.824219 L 353.125 77.59375 L 344.875 81.457031 L 336.625 85.390625 L 328.375 89.378906 L 320.125 93.410156 L 311.875 97.472656 L 303.625 101.558594 L 295.375 105.664062 L 287.121094 109.785156 L 278.871094 113.914062 L 270.621094 118.054688 L 262.371094 122.203125 L 254.121094 126.355469 L 245.871094 130.515625 L 237.621094 134.679688 L 221.121094 143.015625 L 212.871094 147.1875 L 196.371094 155.539062 L 188.117188 159.71875 L 179.867188 163.898438 L 171.617188 168.082031 L 163.367188 172.261719 L 155.117188 176.445312 L 146.867188 180.632812 L 138.617188 184.816406 L 97.367188 205.753906 L 89.113281 209.945312 L 80.863281 214.132812 L 64.363281 222.515625 Z M 64.363281 172.683594 "/>
<path fill="none" stroke-width="1.066978" stroke-linecap="butt" stroke-linejoin="round" stroke="rgb(97.254902%, 46.27451%, 42.745098%)" stroke-opacity="1" stroke-miterlimit="10" d="M 64.363281 170.503906 L 80.863281 166.246094 L 89.113281 164.121094 L 97.367188 161.992188 L 105.617188 159.863281 L 113.867188 157.738281 L 138.617188 151.351562 L 146.867188 149.226562 L 171.617188 142.839844 L 179.867188 140.714844 L 188.117188 138.585938 L 196.371094 136.457031 L 204.621094 134.332031 L 229.371094 127.945312 L 237.621094 125.820312 L 254.121094 121.5625 L 262.371094 119.4375 L 287.121094 113.050781 L 295.375 110.925781 L 311.875 106.667969 L 320.125 104.542969 L 344.875 98.15625 L 353.125 96.03125 L 369.625 91.773438 L 377.875 89.648438 L 386.125 87.519531 L 394.378906 85.390625 L 402.628906 83.261719 L 410.878906 81.136719 L 427.378906 76.878906 L 435.628906 74.753906 L 460.378906 68.367188 L 468.628906 66.242188 "/>
<path fill="none" stroke-width="1.066978" stroke-linecap="butt" stroke-linejoin="round" stroke="rgb(0%, 72.941176%, 21.960784%)" stroke-opacity="1" stroke-miterlimit="10" d="M 64.363281 181.363281 L 72.613281 179.125 L 89.113281 174.640625 L 97.367188 172.402344 L 105.617188 170.160156 L 113.867188 167.921875 L 130.367188 163.4375 L 138.617188 161.199219 L 155.117188 156.714844 L 163.367188 154.476562 L 171.617188 152.234375 L 179.867188 149.996094 L 188.117188 147.753906 L 196.371094 145.511719 L 204.621094 143.273438 L 212.871094 141.03125 L 221.121094 138.792969 L 237.621094 134.308594 L 245.871094 132.070312 L 262.371094 127.585938 L 270.621094 125.347656 L 278.871094 123.105469 L 287.121094 120.867188 L 295.375 118.625 L 303.625 116.382812 L 311.875 114.144531 L 320.125 111.902344 L 328.375 109.664062 L 344.875 105.179688 L 353.125 102.941406 L 361.375 100.699219 L 369.625 98.460938 L 386.125 93.976562 L 394.378906 91.738281 L 410.878906 87.253906 L 419.128906 85.015625 L 427.378906 82.773438 L 435.628906 80.535156 L 452.128906 76.050781 L 460.378906 73.8125 L 468.628906 71.570312 "/>
<path fill="none" stroke-width="1.066978" stroke-linecap="butt" stroke-linejoin="round" stroke="rgb(38.039216%, 61.176471%, 100%)" stroke-opacity="1" stroke-miterlimit="10" d="M 64.363281 197.601562 L 72.613281 194.058594 L 89.113281 186.980469 L 97.367188 183.441406 L 105.617188 179.898438 L 130.367188 169.28125 L 138.617188 165.738281 L 163.367188 155.121094 L 171.617188 151.578125 L 188.117188 144.5 L 196.371094 140.960938 L 204.621094 137.417969 L 221.121094 130.339844 L 229.371094 126.796875 L 254.121094 116.179688 L 262.371094 112.636719 L 287.121094 102.019531 L 295.375 98.476562 L 320.125 87.859375 L 328.375 84.316406 L 353.125 73.699219 L 361.375 70.15625 L 386.125 59.539062 L 394.378906 55.996094 L 419.128906 45.378906 L 427.378906 41.835938 L 452.128906 31.21875 L 460.378906 27.675781 L 468.628906 24.136719 "/>
<path fill="none" stroke-width="1.066978" stroke-linecap="butt" stroke-linejoin="round" stroke="rgb(97.254902%, 46.27451%, 42.745098%)" stroke-opacity="1" stroke-miterlimit="10" d="M 64.363281 170.503906 L 80.863281 166.246094 L 89.113281 164.121094 L 97.367188 161.992188 L 105.617188 159.863281 L 113.867188 157.738281 L 138.617188 151.351562 L 146.867188 149.226562 L 171.617188 142.839844 L 179.867188 140.714844 L 188.117188 138.585938 L 196.371094 136.457031 L 204.621094 134.332031 L 229.371094 127.945312 L 237.621094 125.820312 L 254.121094 121.5625 L 262.371094 119.4375 L 287.121094 113.050781 L 295.375 110.925781 L 311.875 106.667969 L 320.125 104.542969 L 344.875 98.15625 L 353.125 96.03125 L 369.625 91.773438 L 377.875 89.648438 L 386.125 87.519531 L 394.378906 85.390625 L 402.628906 83.261719 L 410.878906 81.136719 L 427.378906 76.878906 L 435.628906 74.753906 L 460.378906 68.367188 L 468.628906 66.242188 "/>
<path fill="none" stroke-width="1.066978" stroke-linecap="butt" stroke-linejoin="round" stroke="rgb(0%, 72.941176%, 21.960784%)" stroke-opacity="1" stroke-miterlimit="10" d="M 64.363281 181.363281 L 72.613281 179.125 L 89.113281 174.640625 L 97.367188 172.402344 L 105.617188 170.160156 L 113.867188 167.921875 L 130.367188 163.4375 L 138.617188 161.199219 L 155.117188 156.714844 L 163.367188 154.476562 L 171.617188 152.234375 L 179.867188 149.996094 L 188.117188 147.753906 L 196.371094 145.511719 L 204.621094 143.273438 L 212.871094 141.03125 L 221.121094 138.792969 L 237.621094 134.308594 L 245.871094 132.070312 L 262.371094 127.585938 L 270.621094 125.347656 L 278.871094 123.105469 L 287.121094 120.867188 L 295.375 118.625 L 303.625 116.382812 L 311.875 114.144531 L 320.125 111.902344 L 328.375 109.664062 L 344.875 105.179688 L 353.125 102.941406 L 361.375 100.699219 L 369.625 98.460938 L 386.125 93.976562 L 394.378906 91.738281 L 410.878906 87.253906 L 419.128906 85.015625 L 427.378906 82.773438 L 435.628906 80.535156 L 452.128906 76.050781 L 460.378906 73.8125 L 468.628906 71.570312 "/>
<path fill="none" stroke-width="1.066978" stroke-linecap="butt" stroke-linejoin="round" stroke="rgb(38.039216%, 61.176471%, 100%)" stroke-opacity="1" stroke-miterlimit="10" d="M 64.363281 197.601562 L 72.613281 194.058594 L 89.113281 186.980469 L 97.367188 183.441406 L 105.617188 179.898438 L 130.367188 169.28125 L 138.617188 165.738281 L 163.367188 155.121094 L 171.617188 151.578125 L 188.117188 144.5 L 196.371094 140.960938 L 204.621094 137.417969 L 221.121094 130.339844 L 229.371094 126.796875 L 254.121094 116.179688 L 262.371094 112.636719 L 287.121094 102.019531 L 295.375 98.476562 L 320.125 87.859375 L 328.375 84.316406 L 353.125 73.699219 L 361.375 70.15625 L 386.125 59.539062 L 394.378906 55.996094 L 419.128906 45.378906 L 427.378906 41.835938 L 452.128906 31.21875 L 460.378906 27.675781 L 468.628906 24.136719 "/>
<g fill="rgb(30.196078%, 30.196078%, 30.196078%)" fill-opacity="1">
<use xlink:href="#glyph-0-1" x="19.21875" y="233.588867"/>
<use xlink:href="#glyph-0-2" x="24.21875" y="233.588867"/>
<use xlink:href="#glyph-0-2" x="29.21875" y="233.588867"/>
<use xlink:href="#glyph-0-2" x="34.21875" y="233.588867"/>
</g>
<g fill="rgb(30.196078%, 30.196078%, 30.196078%)" fill-opacity="1">
<use xlink:href="#glyph-0-3" x="19.21875" y="179.764648"/>
<use xlink:href="#glyph-0-2" x="24.21875" y="179.764648"/>
<use xlink:href="#glyph-0-2" x="29.21875" y="179.764648"/>
<use xlink:href="#glyph-0-2" x="34.21875" y="179.764648"/>
</g>
<g fill="rgb(30.196078%, 30.196078%, 30.196078%)" fill-opacity="1">
<use xlink:href="#glyph-0-4" x="19.21875" y="125.94043"/>
<use xlink:href="#glyph-0-2" x="24.21875" y="125.94043"/>
<use xlink:href="#glyph-0-2" x="29.21875" y="125.94043"/>
<use xlink:href="#glyph-0-2" x="34.21875" y="125.94043"/>
</g>
<g fill="rgb(30.196078%, 30.196078%, 30.196078%)" fill-opacity="1">
<use xlink:href="#glyph-0-5" x="19.21875" y="72.116211"/>
<use xlink:href="#glyph-0-2" x="24.21875" y="72.116211"/>
<use xlink:href="#glyph-0-2" x="29.21875" y="72.116211"/>
<use xlink:href="#glyph-0-2" x="34.21875" y="72.116211"/>
</g>
<g fill="rgb(30.196078%, 30.196078%, 30.196078%)" fill-opacity="1">
<use xlink:href="#glyph-0-6" x="19.21875" y="18.291992"/>
<use xlink:href="#glyph-0-2" x="24.21875" y="18.291992"/>
<use xlink:href="#glyph-0-2" x="29.21875" y="18.291992"/>
<use xlink:href="#glyph-0-2" x="34.21875" y="18.291992"/>
</g>
<g fill="rgb(30.196078%, 30.196078%, 30.196078%)" fill-opacity="1">
<use xlink:href="#glyph-0-7" x="43.160156" y="244.557617"/>
<use xlink:href="#glyph-0-8" x="48.160156" y="244.557617"/>
<use xlink:href="#glyph-0-2" x="53.160156" y="244.557617"/>
</g>
<g fill="rgb(30.196078%, 30.196078%, 30.196078%)" fill-opacity="1">
<use xlink:href="#glyph-0-7" x="111.679688" y="244.557617"/>
<use xlink:href="#glyph-0-9" x="116.679688" y="244.557617"/>
<use xlink:href="#glyph-0-2" x="121.679688" y="244.557617"/>
</g>
<g fill="rgb(30.196078%, 30.196078%, 30.196078%)" fill-opacity="1">
<use xlink:href="#glyph-0-7" x="180.199219" y="244.557617"/>
<use xlink:href="#glyph-0-10" x="185.199219" y="244.557617"/>
<use xlink:href="#glyph-0-2" x="190.199219" y="244.557617"/>
</g>
<g fill="rgb(30.196078%, 30.196078%, 30.196078%)" fill-opacity="1">
<use xlink:href="#glyph-0-1" x="248.71875" y="244.557617"/>
<use xlink:href="#glyph-0-2" x="253.71875" y="244.557617"/>
<use xlink:href="#glyph-0-2" x="258.71875" y="244.557617"/>
</g>
<g fill="rgb(30.196078%, 30.196078%, 30.196078%)" fill-opacity="1">
<use xlink:href="#glyph-0-1" x="317.238281" y="244.557617"/>
<use xlink:href="#glyph-0-7" x="322.238281" y="244.557617"/>
<use xlink:href="#glyph-0-2" x="327.238281" y="244.557617"/>
</g>
<g fill="rgb(30.196078%, 30.196078%, 30.196078%)" fill-opacity="1">
<use xlink:href="#glyph-0-1" x="385.757812" y="244.557617"/>
<use xlink:href="#glyph-0-1" x="390.757812" y="244.557617"/>
<use xlink:href="#glyph-0-2" x="395.757812" y="244.557617"/>
</g>
<g fill="rgb(30.196078%, 30.196078%, 30.196078%)" fill-opacity="1">
<use xlink:href="#glyph-0-1" x="454.277344" y="244.557617"/>
<use xlink:href="#glyph-0-3" x="459.277344" y="244.557617"/>
<use xlink:href="#glyph-0-2" x="464.277344" y="244.557617"/>
</g>
<g fill="rgb(0%, 0%, 0%)" fill-opacity="1">
<use xlink:href="#glyph-1-1" x="219.496094" y="256.990234"/>
<use xlink:href="#glyph-1-2" x="226.496094" y="256.990234"/>
<use xlink:href="#glyph-1-3" x="228.496094" y="256.990234"/>
<use xlink:href="#glyph-1-4" x="230.496094" y="256.990234"/>
<use xlink:href="#glyph-1-4" x="236.496094" y="256.990234"/>
<use xlink:href="#glyph-1-5" x="242.496094" y="256.990234"/>
<use xlink:href="#glyph-1-6" x="248.496094" y="256.990234"/>
<use xlink:href="#glyph-1-7" x="252.496094" y="256.990234"/>
<use xlink:href="#glyph-1-2" x="255.496094" y="256.990234"/>
<use xlink:href="#glyph-1-5" x="257.496094" y="256.990234"/>
<use xlink:href="#glyph-1-8" x="263.496094" y="256.990234"/>
<use xlink:href="#glyph-1-9" x="269.496094" y="256.990234"/>
<use xlink:href="#glyph-1-10" x="275.496094" y="256.990234"/>
<use xlink:href="#glyph-1-11" x="278.496094" y="256.990234"/>
<use xlink:href="#glyph-1-7" x="284.496094" y="256.990234"/>
<use xlink:href="#glyph-1-12" x="287.496094" y="256.990234"/>
<use xlink:href="#glyph-1-13" x="291.496094" y="256.990234"/>
<use xlink:href="#glyph-1-13" x="300.496094" y="256.990234"/>
<use xlink:href="#glyph-1-14" x="309.496094" y="256.990234"/>
</g>
<g fill="rgb(0%, 0%, 0%)" fill-opacity="1">
<use xlink:href="#glyph-2-1" x="12.951172" y="179.164062"/>
<use xlink:href="#glyph-2-2" x="12.951172" y="172.164062"/>
<use xlink:href="#glyph-2-3" x="12.951172" y="168.164062"/>
<use xlink:href="#glyph-2-4" x="12.951172" y="162.164062"/>
<use xlink:href="#glyph-2-5" x="12.951172" y="156.164062"/>
<use xlink:href="#glyph-2-6" x="12.951172" y="154.164062"/>
<use xlink:href="#glyph-2-7" x="12.951172" y="148.164062"/>
<use xlink:href="#glyph-2-3" x="12.951172" y="145.164062"/>
<use xlink:href="#glyph-2-4" x="12.951172" y="139.164062"/>
<use xlink:href="#glyph-2-8" x="12.951172" y="133.164062"/>
<use xlink:href="#glyph-2-9" x="12.951172" y="130.164062"/>
<use xlink:href="#glyph-2-10" x="12.951172" y="124.164062"/>
<use xlink:href="#glyph-2-4" x="12.951172" y="118.164062"/>
<use xlink:href="#glyph-2-11" x="12.951172" y="112.164062"/>
<use xlink:href="#glyph-2-8" x="12.951172" y="106.164062"/>
<use xlink:href="#glyph-2-12" x="12.951172" y="103.164062"/>
<use xlink:href="#glyph-2-13" x="12.951172" y="94.164062"/>
<use xlink:href="#glyph-2-14" x="12.951172" y="88.164062"/>
<use xlink:href="#glyph-2-14" x="12.951172" y="82.164062"/>
<use xlink:href="#glyph-2-8" x="12.951172" y="76.164062"/>
<use xlink:href="#glyph-2-15" x="12.951172" y="73.164062"/>
<use xlink:href="#glyph-2-16" x="12.951172" y="69.164062"/>
<use xlink:href="#glyph-2-17" x="12.951172" y="63.164062"/>
</g>
<g fill="rgb(0%, 0%, 0%)" fill-opacity="1">
<use xlink:href="#glyph-1-15" x="505.28125" y="93.974609"/>
<use xlink:href="#glyph-1-4" x="512.28125" y="93.974609"/>
<use xlink:href="#glyph-1-5" x="518.28125" y="93.974609"/>
<use xlink:href="#glyph-1-16" x="524.28125" y="93.974609"/>
<use xlink:href="#glyph-1-3" x="530.28125" y="93.974609"/>
<use xlink:href="#glyph-1-5" x="532.28125" y="93.974609"/>
<use xlink:href="#glyph-1-17" x="538.28125" y="93.974609"/>
</g>
<path fill-rule="nonzero" fill="rgb(97.254902%, 46.27451%, 42.745098%)" fill-opacity="0.101961" d="M 505.992188 118.054688 L 521.855469 118.054688 L 521.855469 102.191406 L 505.992188 102.191406 Z M 505.992188 118.054688 "/>
<path fill="none" stroke-width="1.066978" stroke-linecap="butt" stroke-linejoin="round" stroke="rgb(97.254902%, 46.27451%, 42.745098%)" stroke-opacity="1" stroke-miterlimit="10" d="M 507.007812 110.125 L 520.832031 110.125 "/>
<path fill="none" stroke-width="1.066978" stroke-linecap="butt" stroke-linejoin="round" stroke="rgb(97.254902%, 46.27451%, 42.745098%)" stroke-opacity="1" stroke-miterlimit="10" d="M 507.007812 110.125 L 520.832031 110.125 "/>
<path fill-rule="nonzero" fill="rgb(0%, 72.941176%, 21.960784%)" fill-opacity="0.101961" d="M 505.992188 135.335938 L 521.855469 135.335938 L 521.855469 119.472656 L 505.992188 119.472656 Z M 505.992188 135.335938 "/>
<path fill="none" stroke-width="1.066978" stroke-linecap="butt" stroke-linejoin="round" stroke="rgb(0%, 72.941176%, 21.960784%)" stroke-opacity="1" stroke-miterlimit="10" d="M 507.007812 127.402344 L 520.832031 127.402344 "/>
<path fill="none" stroke-width="1.066978" stroke-linecap="butt" stroke-linejoin="round" stroke="rgb(0%, 72.941176%, 21.960784%)" stroke-opacity="1" stroke-miterlimit="10" d="M 507.007812 127.402344 L 520.832031 127.402344 "/>
<path fill-rule="nonzero" fill="rgb(38.039216%, 61.176471%, 100%)" fill-opacity="0.101961" d="M 505.992188 152.617188 L 521.855469 152.617188 L 521.855469 136.753906 L 505.992188 136.753906 Z M 505.992188 152.617188 "/>
<path fill="none" stroke-width="1.066978" stroke-linecap="butt" stroke-linejoin="round" stroke="rgb(38.039216%, 61.176471%, 100%)" stroke-opacity="1" stroke-miterlimit="10" d="M 507.007812 144.683594 L 520.832031 144.683594 "/>
<path fill="none" stroke-width="1.066978" stroke-linecap="butt" stroke-linejoin="round" stroke="rgb(38.039216%, 61.176471%, 100%)" stroke-opacity="1" stroke-miterlimit="10" d="M 507.007812 144.683594 L 520.832031 144.683594 "/>
<g fill="rgb(0%, 0%, 0%)" fill-opacity="1">
<use xlink:href="#glyph-0-11" x="528.042969" y="113.401367"/>
<use xlink:href="#glyph-0-12" x="534.042969" y="113.401367"/>
<use xlink:href="#glyph-0-13" x="539.042969" y="113.401367"/>
<use xlink:href="#glyph-0-14" x="544.042969" y="113.401367"/>
<use xlink:href="#glyph-0-15" x="546.042969" y="113.401367"/>
<use xlink:href="#glyph-0-13" x="548.042969" y="113.401367"/>
</g>
<g fill="rgb(0%, 0%, 0%)" fill-opacity="1">
<use xlink:href="#glyph-0-16" x="528.042969" y="130.678711"/>
<use xlink:href="#glyph-0-17" x="534.042969" y="130.678711"/>
<use xlink:href="#glyph-0-15" x="539.042969" y="130.678711"/>
<use xlink:href="#glyph-0-18" x="541.042969" y="130.678711"/>
<use xlink:href="#glyph-0-19" x="546.042969" y="130.678711"/>
<use xlink:href="#glyph-0-20" x="550.042969" y="130.678711"/>
<use xlink:href="#glyph-0-21" x="552.042969" y="130.678711"/>
<use xlink:href="#glyph-0-22" x="555.042969" y="130.678711"/>
<use xlink:href="#glyph-0-23" x="560.042969" y="130.678711"/>
</g>
<g fill="rgb(0%, 0%, 0%)" fill-opacity="1">
<use xlink:href="#glyph-0-24" x="528.042969" y="147.959961"/>
<use xlink:href="#glyph-0-13" x="535.042969" y="147.959961"/>
<use xlink:href="#glyph-0-18" x="540.042969" y="147.959961"/>
<use xlink:href="#glyph-0-20" x="545.042969" y="147.959961"/>
<use xlink:href="#glyph-0-25" x="547.042969" y="147.959961"/>
<use xlink:href="#glyph-0-25" x="552.042969" y="147.959961"/>
</g>
</svg>
