<?xml version="1.0" encoding="UTF-8"?>
<svg xmlns="http://www.w3.org/2000/svg" xmlns:xlink="http://www.w3.org/1999/xlink" width="453.543pt" height="255.118pt" viewBox="0 0 453.543 255.118">
<defs>
<g>
<g id="glyph-0-0">
<path d="M 7.171875 -4.734375 L 7.171875 -5.59375 L 2.53125 -5.59375 L 2.53125 -9.03125 L 4.46875 -9.03125 C 4.640625 -9.03125 4.8125 -9.015625 4.984375 -9.015625 L 7.578125 -9.015625 L 7.578125 -9.921875 L 1.296875 -9.921875 L 1.296875 0 L 7.765625 0 L 7.765625 -0.96875 L 5.875 -0.96875 C 5.703125 -0.96875 5.53125 -0.96875 5.359375 -0.96875 L 2.53125 -0.96875 L 2.53125 -4.734375 Z M 7.171875 -4.734375 "/>
</g>
<g id="glyph-0-1">
<path d="M 10 -4.3125 C 10 -5.3125 9.734375 -6.515625 8.0625 -6.515625 C 6.84375 -6.515625 6.171875 -5.671875 5.953125 -5.34375 C 5.6875 -6.25 4.90625 -6.515625 4.15625 -6.515625 C 2.984375 -6.515625 2.359375 -5.75 2.125 -5.453125 L 2.125 -6.4375 L 1.109375 -6.4375 L 1.109375 0 L 2.1875 0 L 2.1875 -3.578125 C 2.1875 -4.515625 2.5625 -5.65625 3.609375 -5.65625 C 4.9375 -5.65625 5 -4.75 5 -4.21875 L 5 0 L 6.09375 0 L 6.09375 -3.578125 C 6.09375 -4.515625 6.46875 -5.65625 7.515625 -5.65625 C 8.828125 -5.65625 8.90625 -4.75 8.90625 -4.21875 L 8.90625 0 L 10 0 Z M 10 -4.3125 "/>
</g>
<g id="glyph-0-2">
<path d="M 2.203125 -0.640625 C 2.703125 -0.203125 3.296875 0.140625 4.078125 0.140625 C 5.453125 0.140625 6.6875 -1.25 6.6875 -3.203125 C 6.6875 -4.9375 5.765625 -6.515625 4.4375 -6.515625 C 3.84375 -6.515625 2.921875 -6.328125 2.1875 -5.6875 L 2.1875 -6.375 L 1.125 -6.375 L 1.125 2.78125 L 2.203125 2.78125 Z M 2.203125 -4.8125 C 2.53125 -5.3125 3.078125 -5.625 3.671875 -5.625 C 4.734375 -5.625 5.59375 -4.546875 5.59375 -3.1875 C 5.59375 -1.75 4.609375 -0.71875 3.546875 -0.71875 C 3.140625 -0.71875 2.875 -0.859375 2.609375 -1.0625 C 2.25 -1.375 2.203125 -1.640625 2.203125 -1.859375 Z M 2.203125 -4.8125 "/>
</g>
<g id="glyph-0-3">
<path d="M 2.265625 -9.734375 L 1.03125 -9.734375 L 1.03125 -8.5 L 2.265625 -8.5 Z M 2.1875 -6.375 L 1.125 -6.375 L 1.125 0 L 2.1875 0 Z M 2.1875 -6.375 "/>
</g>
<g id="glyph-0-4">
<path d="M 2.1875 -3.140625 C 2.1875 -4.59375 3.265625 -5.53125 4.5625 -5.546875 L 4.5625 -6.515625 C 3.25 -6.5 2.5 -5.734375 2.109375 -5.171875 L 2.109375 -6.4375 L 1.125 -6.4375 L 1.125 0 L 2.1875 0 Z M 2.1875 -3.140625 "/>
</g>
<g id="glyph-0-5">
<path d="M 5.75 -1.546875 C 5.09375 -1.015625 4.359375 -0.75 3.5625 -0.75 C 2.359375 -0.75 1.59375 -1.8125 1.59375 -3.203125 C 1.59375 -4.390625 2.171875 -5.6875 3.59375 -5.6875 C 4.5625 -5.6875 4.96875 -5.46875 5.578125 -5.046875 L 5.75 -5.984375 C 4.921875 -6.46875 4.453125 -6.578125 3.59375 -6.578125 C 1.625 -6.578125 0.5 -4.828125 0.5 -3.203125 C 0.5 -1.359375 1.828125 0.140625 3.546875 0.140625 C 4.25 0.140625 5.046875 -0.03125 5.84375 -0.609375 C 5.84375 -0.640625 5.796875 -1.09375 5.78125 -1.140625 Z M 5.75 -1.546875 "/>
</g>
<g id="glyph-0-6">
<path d="M 5.609375 -4.203125 C 5.609375 -5.578125 4.625 -6.578125 3.28125 -6.578125 C 2.421875 -6.578125 1.78125 -6.390625 1.078125 -5.984375 L 1.15625 -5.03125 C 1.796875 -5.5 2.453125 -5.75 3.28125 -5.75 C 3.9375 -5.75 4.515625 -5.21875 4.515625 -4.171875 L 4.515625 -3.578125 C 3.875 -3.5625 3.015625 -3.515625 2.15625 -3.234375 C 1.1875 -2.890625 0.625 -2.359375 0.625 -1.65625 C 0.625 -1.015625 1 0.140625 2.21875 0.140625 C 3.015625 0.140625 4.015625 -0.09375 4.546875 -0.53125 L 4.546875 0 L 5.609375 0 Z M 4.515625 -1.921875 C 4.515625 -1.640625 4.515625 -1.296875 4.046875 -1 C 3.65625 -0.765625 3.171875 -0.71875 2.953125 -0.71875 C 2.1875 -0.71875 1.65625 -1.140625 1.65625 -1.65625 C 1.65625 -2.640625 3.640625 -2.859375 4.515625 -2.859375 Z M 4.515625 -1.921875 "/>
</g>
<g id="glyph-0-7">
<path d="M 2.1875 -9.953125 L 1.125 -9.953125 L 1.125 0 L 2.1875 0 Z M 2.1875 -9.953125 "/>
</g>
<g id="glyph-0-8">
<path d="M 6.53125 -9.546875 C 5.9375 -9.875 5.21875 -10.25 3.9375 -10.25 C 2.015625 -10.25 0.78125 -8.875 0.78125 -7.4375 C 0.78125 -6.421875 1.390625 -5.765625 1.46875 -5.6875 C 2.171875 -4.984375 2.65625 -4.84375 3.578125 -4.625 C 4.796875 -4.3125 4.984375 -4.265625 5.453125 -3.78125 C 5.6875 -3.53125 5.90625 -3.0625 5.90625 -2.5625 C 5.90625 -1.578125 5.09375 -0.65625 3.859375 -0.65625 C 2.8125 -0.65625 1.6875 -1.078125 0.84375 -1.84375 L 0.625 -0.6875 C 1.9375 0.171875 3.203125 0.296875 3.859375 0.296875 C 5.703125 0.296875 7.015625 -1.125 7.015625 -2.71875 C 7.015625 -3.625 6.5625 -4.3125 6.25 -4.671875 C 5.59375 -5.375 5.0625 -5.515625 4.109375 -5.765625 C 3.125 -6.015625 2.765625 -6.09375 2.453125 -6.390625 C 2.265625 -6.59375 1.875 -6.953125 1.875 -7.609375 C 1.875 -8.484375 2.671875 -9.328125 3.9375 -9.328125 C 5.15625 -9.328125 5.796875 -8.84375 6.3125 -8.390625 Z M 6.53125 -9.546875 "/>
</g>
<g id="glyph-0-9">
<path d="M 2.453125 -5.53125 L 4.4375 -5.53125 L 4.4375 -6.375 L 2.453125 -6.375 L 2.453125 -8.1875 L 1.46875 -8.1875 L 1.46875 -6.375 L 0.265625 -6.375 L 0.265625 -5.53125 L 1.4375 -5.53125 L 1.4375 -1.671875 C 1.4375 -0.84375 1.625 0.140625 2.609375 0.140625 C 3.578125 0.140625 4.234375 -0.1875 4.671875 -0.421875 L 4.453125 -1.25 C 3.953125 -0.796875 3.421875 -0.75 3.171875 -0.75 C 2.53125 -0.75 2.453125 -1.421875 2.453125 -1.921875 Z M 2.453125 -5.53125 "/>
</g>
<g id="glyph-0-10">
<path d="M 5.84375 -3.234375 C 5.84375 -3.84375 5.78125 -4.71875 5.328125 -5.484375 C 4.734375 -6.46875 3.734375 -6.578125 3.3125 -6.578125 C 1.765625 -6.578125 0.46875 -5.09375 0.46875 -3.234375 C 0.46875 -1.328125 1.84375 0.140625 3.515625 0.140625 C 4.171875 0.140625 4.96875 -0.046875 5.75 -0.609375 C 5.75 -0.671875 5.703125 -1.125 5.703125 -1.140625 C 5.6875 -1.15625 5.671875 -1.484375 5.671875 -1.53125 C 4.8125 -0.8125 3.96875 -0.71875 3.546875 -0.71875 C 2.4375 -0.71875 1.484375 -1.703125 1.46875 -3.234375 Z M 1.546875 -4 C 1.796875 -4.96875 2.46875 -5.71875 3.3125 -5.71875 C 3.765625 -5.71875 4.75 -5.515625 4.984375 -4 Z M 1.546875 -4 "/>
</g>
<g id="glyph-0-11">
<path d="M 4.890625 -5.65625 C 4.890625 -5.65625 4.921875 -5.625 4.9375 -5.59375 C 5.234375 -5.625 5.546875 -5.671875 6.078125 -5.671875 C 6.125 -5.671875 6.453125 -5.671875 6.8125 -5.640625 L 6.65625 -6.515625 C 6.390625 -6.515625 5.40625 -6.5 4.453125 -6.03125 C 3.984375 -6.4375 3.40625 -6.515625 3.125 -6.515625 C 1.875 -6.515625 0.875 -5.46875 0.875 -4.203125 C 0.875 -3.6875 1.03125 -3.21875 1.34375 -2.78125 C 1.015625 -2.328125 0.9375 -1.890625 0.9375 -1.546875 C 0.9375 -1.015625 1.140625 -0.65625 1.296875 -0.46875 C 0.5625 0 0.390625 0.609375 0.390625 1.015625 C 0.390625 2.0625 1.75 2.9375 3.5 2.9375 C 5.25 2.9375 6.625 2.09375 6.625 1 C 6.625 -1 4.296875 -1 3.71875 -1 L 2.5 -1 C 2.296875 -1 1.671875 -1 1.671875 -1.765625 C 1.671875 -2.078125 1.734375 -2.171875 1.828125 -2.296875 C 2.0625 -2.125 2.53125 -1.875 3.109375 -1.875 C 4.34375 -1.875 5.359375 -2.890625 5.359375 -4.203125 C 5.359375 -4.71875 5.171875 -5.25 4.875 -5.640625 Z M 3.125 -2.671875 C 2.5 -2.671875 1.859375 -3.09375 1.859375 -4.1875 C 1.859375 -5.46875 2.671875 -5.71875 3.109375 -5.71875 C 3.75 -5.71875 4.375 -5.296875 4.375 -4.203125 C 4.375 -2.921875 3.578125 -2.671875 3.125 -2.671875 Z M 3.734375 0.03125 C 4.046875 0.03125 5.625 0.03125 5.625 1.015625 C 5.625 1.671875 4.640625 2.15625 3.515625 2.15625 C 2.390625 2.15625 1.390625 1.703125 1.390625 1 C 1.390625 0.96875 1.390625 0.03125 2.484375 0.03125 Z M 3.734375 0.03125 "/>
</g>
<g id="glyph-0-12">
<path d="M 6.203125 -6.375 L 5.140625 -6.375 C 4.46875 -4.671875 3.375 -1.859375 3.3125 -0.828125 L 3.296875 -0.828125 C 3.234375 -1.671875 2.46875 -3.578125 2.359375 -3.859375 L 1.328125 -6.375 L 0.203125 -6.375 L 2.875 0 L 2.359375 1.3125 C 2.046875 2.015625 1.84375 2.09375 1.578125 2.09375 C 1.375 2.09375 0.921875 2.046875 0.46875 1.875 L 0.5625 2.8125 C 0.640625 2.828125 1.125 2.921875 1.578125 2.921875 C 1.921875 2.921875 2.59375 2.921875 3.21875 1.34375 Z M 6.203125 -6.375 "/>
</g>
<g id="glyph-1-0">
<path d="M 2.109375 -8.296875 L 1.078125 -8.296875 L 1.078125 0 L 2.109375 0 Z M 2.109375 -8.296875 "/>
</g>
<g id="glyph-1-1">
<path d="M 5.0625 -8.296875 L 4.171875 -8.296875 L 4.171875 -4.8125 C 3.625 -5.265625 3 -5.421875 2.484375 -5.421875 C 1.34375 -5.421875 0.421875 -4.203125 0.421875 -2.65625 C 0.421875 -1.109375 1.296875 0.125 2.4375 0.125 C 2.875 0.125 3.546875 -0.03125 4.140625 -0.609375 L 4.140625 0 L 5.0625 0 Z M 4.140625 -1.40625 C 3.859375 -0.890625 3.4375 -0.59375 2.921875 -0.59375 C 2.1875 -0.59375 1.328125 -1.15625 1.328125 -2.640625 C 1.328125 -4.234375 2.34375 -4.703125 3.03125 -4.703125 C 3.5 -4.703125 3.890625 -4.46875 4.140625 -4.078125 Z M 4.140625 -1.40625 "/>
</g>
<g id="glyph-1-2">
<path d="M 4.859375 -2.6875 C 4.859375 -3.203125 4.8125 -3.9375 4.4375 -4.5625 C 3.9375 -5.390625 3.109375 -5.484375 2.765625 -5.484375 C 1.46875 -5.484375 0.390625 -4.25 0.390625 -2.6875 C 0.390625 -1.109375 1.546875 0.125 2.921875 0.125 C 3.484375 0.125 4.140625 -0.03125 4.796875 -0.515625 C 4.796875 -0.5625 4.75 -0.9375 4.75 -0.953125 C 4.75 -0.96875 4.71875 -1.234375 4.71875 -1.28125 C 4.015625 -0.6875 3.3125 -0.59375 2.953125 -0.59375 C 2.03125 -0.59375 1.25 -1.421875 1.21875 -2.6875 Z M 1.296875 -3.328125 C 1.5 -4.140625 2.0625 -4.765625 2.765625 -4.765625 C 3.125 -4.765625 3.953125 -4.609375 4.15625 -3.328125 Z M 1.296875 -3.328125 "/>
</g>
<g id="glyph-1-3">
<path d="M 5.0625 -3.59375 C 5.0625 -4.328125 4.90625 -5.421875 3.46875 -5.421875 C 2.796875 -5.421875 2.21875 -5.125 1.765625 -4.546875 L 1.765625 -5.359375 L 0.921875 -5.359375 L 0.921875 0 L 1.828125 0 L 1.828125 -2.96875 C 1.828125 -3.71875 2.109375 -4.703125 3.015625 -4.703125 C 4.125 -4.703125 4.15625 -3.9375 4.15625 -3.515625 L 4.15625 0 L 5.0625 0 Z M 5.0625 -3.59375 "/>
</g>
<g id="glyph-1-4">
<path d="M 2.046875 -4.609375 L 3.6875 -4.609375 L 3.6875 -5.3125 L 2.046875 -5.3125 L 2.046875 -6.828125 L 1.21875 -6.828125 L 1.21875 -5.3125 L 0.21875 -5.3125 L 0.21875 -4.609375 L 1.1875 -4.609375 L 1.1875 -1.40625 C 1.1875 -0.703125 1.34375 0.125 2.171875 0.125 C 2.96875 0.125 3.53125 -0.15625 3.890625 -0.34375 L 3.71875 -1.046875 C 3.296875 -0.671875 2.859375 -0.625 2.640625 -0.625 C 2.109375 -0.625 2.046875 -1.1875 2.046875 -1.609375 Z M 2.046875 -4.609375 "/>
</g>
<g id="glyph-1-5">
<path d="M 1.890625 -8.109375 L 0.859375 -8.109375 L 0.859375 -7.09375 L 1.890625 -7.09375 Z M 1.8125 -5.3125 L 0.9375 -5.3125 L 0.9375 0 L 1.8125 0 Z M 1.8125 -5.3125 "/>
</g>
<g id="glyph-1-6">
<path d="M 5.34375 -8.3125 L 4.375 -8.3125 L 4.375 -7.34375 L 5.34375 -7.34375 Z M 5.3125 -5.3125 L 4.421875 -5.3125 L 4.421875 0 L 5.3125 0 Z M 2.0625 -4.609375 L 3.4375 -4.609375 L 3.4375 -5.3125 L 2.046875 -5.3125 L 2.046875 -6.765625 C 2.046875 -7.484375 2.421875 -7.703125 2.75 -7.703125 C 3.015625 -7.703125 3.28125 -7.609375 3.4375 -7.484375 L 3.4375 -8.296875 C 3.203125 -8.390625 3.125 -8.421875 2.75 -8.421875 C 1.859375 -8.421875 1.1875 -7.5625 1.1875 -6.40625 L 1.1875 -5.3125 L 0.3125 -5.3125 L 0.3125 -4.609375 L 1.1875 -4.609375 L 1.1875 0 L 2.0625 0 Z M 2.0625 -4.609375 "/>
</g>
<g id="glyph-1-7">
<path d="M 4.796875 -1.296875 C 4.25 -0.84375 3.640625 -0.625 2.96875 -0.625 C 1.96875 -0.625 1.328125 -1.5 1.328125 -2.671875 C 1.328125 -3.65625 1.8125 -4.75 3 -4.75 C 3.796875 -4.75 4.140625 -4.546875 4.65625 -4.203125 L 4.796875 -4.984375 C 4.09375 -5.390625 3.703125 -5.484375 3 -5.484375 C 1.34375 -5.484375 0.421875 -4.03125 0.421875 -2.671875 C 0.421875 -1.140625 1.515625 0.125 2.953125 0.125 C 3.53125 0.125 4.203125 -0.03125 4.859375 -0.5 C 4.859375 -0.53125 4.828125 -0.90625 4.8125 -0.953125 Z M 4.796875 -1.296875 "/>
</g>
<g id="glyph-1-8">
<path d="M 4.671875 -3.5 C 4.671875 -4.65625 3.84375 -5.484375 2.734375 -5.484375 C 2.015625 -5.484375 1.484375 -5.3125 0.890625 -4.984375 L 0.96875 -4.203125 C 1.5 -4.578125 2.046875 -4.796875 2.734375 -4.796875 C 3.28125 -4.796875 3.765625 -4.34375 3.765625 -3.484375 L 3.765625 -2.984375 C 3.234375 -2.96875 2.515625 -2.921875 1.796875 -2.6875 C 0.984375 -2.421875 0.53125 -1.96875 0.53125 -1.375 C 0.53125 -0.84375 0.84375 0.125 1.859375 0.125 C 2.515625 0.125 3.34375 -0.078125 3.796875 -0.4375 L 3.796875 0 L 4.671875 0 Z M 3.765625 -1.609375 C 3.765625 -1.359375 3.765625 -1.078125 3.375 -0.84375 C 3.046875 -0.640625 2.640625 -0.59375 2.46875 -0.59375 C 1.8125 -0.59375 1.375 -0.9375 1.375 -1.390625 C 1.375 -2.203125 3.03125 -2.375 3.765625 -2.375 Z M 3.765625 -1.609375 "/>
</g>
<g id="glyph-1-9">
<path d="M 5.484375 -2.625 C 5.484375 -4.25 4.296875 -5.484375 2.921875 -5.484375 C 1.515625 -5.484375 0.359375 -4.21875 0.359375 -2.625 C 0.359375 -1.0625 1.546875 0.125 2.921875 0.125 C 4.328125 0.125 5.484375 -1.09375 5.484375 -2.625 Z M 2.921875 -0.625 C 2.0625 -0.625 1.265625 -1.34375 1.265625 -2.75 C 1.265625 -4.203125 2.15625 -4.765625 2.921875 -4.765625 C 3.734375 -4.765625 4.578125 -4.140625 4.578125 -2.75 C 4.578125 -1.28125 3.734375 -0.625 2.921875 -0.625 Z M 2.921875 -0.625 "/>
</g>
<g id="glyph-1-10">
<path d="M 4.390625 -8.296875 L 3.328125 -8.296875 L 0.328125 0 L 1.203125 0 L 2.078125 -2.421875 L 5.453125 -2.421875 L 6.328125 0 L 7.40625 0 Z M 3.765625 -7.4375 L 5.203125 -3.09375 L 2.34375 -3.09375 Z M 3.765625 -7.4375 "/>
</g>
<g id="glyph-1-11">
<path d="M 4.015625 -5.109375 C 3.25 -5.46875 2.609375 -5.484375 2.328125 -5.484375 C 2.0625 -5.484375 0.390625 -5.484375 0.390625 -3.9375 C 0.390625 -3.40625 0.6875 -3.046875 0.859375 -2.875 C 1.296875 -2.515625 1.59375 -2.453125 2.296875 -2.3125 C 2.6875 -2.21875 3.375 -2.078125 3.375 -1.453125 C 3.375 -0.625 2.453125 -0.625 2.28125 -0.625 C 1.8125 -0.625 1.109375 -0.75 0.46875 -1.21875 L 0.328125 -0.40625 C 0.375 -0.375 1.1875 0.125 2.296875 0.125 C 3.84375 0.125 4.203125 -0.8125 4.203125 -1.515625 C 4.203125 -2.125 3.84375 -2.515625 3.796875 -2.5625 C 3.34375 -3.03125 2.984375 -3.09375 2.265625 -3.234375 C 1.828125 -3.328125 1.21875 -3.4375 1.21875 -4.046875 C 1.21875 -4.78125 2.0625 -4.78125 2.21875 -4.78125 C 2.84375 -4.78125 3.34375 -4.640625 3.875 -4.34375 Z M 4.015625 -5.109375 "/>
</g>
<g id="glyph-1-12">
<path d="M 5.0625 -5.3125 L 4.15625 -5.3125 L 4.15625 -1.890625 C 4.15625 -0.984375 3.53125 -0.53125 2.75 -0.53125 C 1.90625 -0.53125 1.828125 -0.84375 1.828125 -1.375 L 1.828125 -5.3125 L 0.921875 -5.3125 L 0.921875 -1.328125 C 0.921875 -0.46875 1.1875 0.125 2.171875 0.125 C 2.515625 0.125 3.453125 0.0625 4.1875 -0.59375 L 4.1875 0 L 5.0625 0 Z M 5.0625 -5.3125 "/>
</g>
<g id="glyph-1-13">
<path d="M 8.328125 -3.59375 C 8.328125 -4.421875 8.109375 -5.421875 6.71875 -5.421875 C 5.703125 -5.421875 5.140625 -4.71875 4.953125 -4.453125 C 4.75 -5.21875 4.09375 -5.421875 3.46875 -5.421875 C 2.484375 -5.421875 1.96875 -4.796875 1.765625 -4.546875 L 1.765625 -5.359375 L 0.921875 -5.359375 L 0.921875 0 L 1.828125 0 L 1.828125 -2.96875 C 1.828125 -3.765625 2.140625 -4.703125 3.015625 -4.703125 C 4.109375 -4.703125 4.171875 -3.953125 4.171875 -3.515625 L 4.171875 0 L 5.078125 0 L 5.078125 -2.96875 C 5.078125 -3.765625 5.390625 -4.703125 6.265625 -4.703125 C 7.359375 -4.703125 7.421875 -3.953125 7.421875 -3.515625 L 7.421875 0 L 8.328125 0 Z M 8.328125 -3.59375 "/>
</g>
<g id="glyph-1-14">
<path d="M 1.84375 -0.53125 C 2.25 -0.171875 2.75 0.125 3.390625 0.125 C 4.546875 0.125 5.5625 -1.046875 5.5625 -2.671875 C 5.5625 -4.109375 4.8125 -5.421875 3.6875 -5.421875 C 3.203125 -5.421875 2.4375 -5.265625 1.8125 -4.75 L 1.8125 -5.3125 L 0.9375 -5.3125 L 0.9375 2.3125 L 1.84375 2.3125 Z M 1.84375 -4.015625 C 2.109375 -4.421875 2.5625 -4.6875 3.0625 -4.6875 C 3.9375 -4.6875 4.65625 -3.796875 4.65625 -2.65625 C 4.65625 -1.453125 3.84375 -0.59375 2.953125 -0.59375 C 2.625 -0.59375 2.390625 -0.71875 2.171875 -0.890625 C 1.875 -1.140625 1.84375 -1.359375 1.84375 -1.546875 Z M 1.84375 -4.015625 "/>
</g>
<g id="glyph-2-0">
<path d="M 4.109375 -7.5625 L 3.15625 -7.5625 L 0.3125 0 L 1.109375 0 L 1.953125 -2.21875 L 5.125 -2.21875 L 5.953125 0 L 6.953125 0 Z M 4.890625 -2.828125 L 2.1875 -2.828125 L 2.890625 -4.8125 C 3.125 -5.453125 3.453125 -6.375 3.53125 -6.78125 L 3.546875 -6.78125 C 3.5625 -6.625 3.640625 -6.359375 3.890625 -5.640625 Z M 4.890625 -2.828125 "/>
</g>
<g id="glyph-2-1">
<path d="M 1.71875 -7.5625 L 0.890625 -7.5625 L 0.890625 0 L 1.75 0 L 1.75 -0.5 C 2 -0.265625 2.46875 0.125 3.203125 0.125 C 4.296875 0.125 5.234375 -0.96875 5.234375 -2.4375 C 5.234375 -3.78125 4.5 -4.96875 3.46875 -4.96875 C 3.046875 -4.96875 2.359375 -4.859375 1.71875 -4.3125 Z M 1.75 -3.65625 C 1.921875 -3.921875 2.3125 -4.296875 2.90625 -4.296875 C 3.5625 -4.296875 4.390625 -3.828125 4.390625 -2.4375 C 4.390625 -1.015625 3.46875 -0.546875 2.796875 -0.546875 C 2.375 -0.546875 2.015625 -0.734375 1.75 -1.25 Z M 1.75 -3.65625 "/>
</g>
<g id="glyph-2-2">
<path d="M 3.734375 -4.671875 C 3.171875 -4.9375 2.71875 -5.03125 2.171875 -5.03125 C 1.890625 -5.03125 0.359375 -5.03125 0.359375 -3.59375 C 0.359375 -3.0625 0.671875 -2.71875 0.953125 -2.515625 C 1.28125 -2.265625 1.53125 -2.21875 2.125 -2.109375 C 2.515625 -2.03125 3.15625 -1.890625 3.15625 -1.3125 C 3.15625 -0.5625 2.296875 -0.5625 2.125 -0.5625 C 1.25 -0.5625 0.625 -0.96875 0.4375 -1.09375 L 0.3125 -0.359375 C 0.65625 -0.1875 1.25 0.125 2.140625 0.125 C 2.328125 0.125 2.9375 0.125 3.40625 -0.234375 C 3.734375 -0.484375 3.921875 -0.921875 3.921875 -1.390625 C 3.921875 -2 3.515625 -2.359375 3.5 -2.40625 C 3.078125 -2.78125 2.78125 -2.84375 2.234375 -2.9375 C 1.640625 -3.0625 1.140625 -3.171875 1.140625 -3.703125 C 1.140625 -4.390625 1.921875 -4.390625 2.0625 -4.390625 C 2.40625 -4.390625 2.984375 -4.34375 3.609375 -3.96875 Z M 3.734375 -4.671875 "/>
</g>
<g id="glyph-2-3">
<path d="M 4.515625 -2.390625 C 4.515625 -2.765625 4.5 -3.578125 4.078125 -4.234375 C 3.625 -4.90625 2.96875 -5.03125 2.578125 -5.03125 C 1.359375 -5.03125 0.375 -3.875 0.375 -2.46875 C 0.375 -1.03125 1.421875 0.125 2.734375 0.125 C 3.421875 0.125 4.046875 -0.140625 4.46875 -0.453125 L 4.40625 -1.15625 C 3.71875 -0.59375 3 -0.546875 2.75 -0.546875 C 1.875 -0.546875 1.171875 -1.3125 1.140625 -2.390625 Z M 1.203125 -2.984375 C 1.375 -3.8125 1.953125 -4.359375 2.578125 -4.359375 C 3.140625 -4.359375 3.75 -3.984375 3.890625 -2.984375 Z M 1.203125 -2.984375 "/>
</g>
<g id="glyph-2-4">
<path d="M 4.75 -3.25 C 4.75 -3.96875 4.578125 -4.96875 3.25 -4.96875 C 2.265625 -4.96875 1.734375 -4.21875 1.671875 -4.140625 L 1.671875 -4.90625 L 0.890625 -4.90625 L 0.890625 0 L 1.734375 0 L 1.734375 -2.671875 C 1.734375 -3.390625 2 -4.296875 2.828125 -4.296875 C 3.875 -4.296875 3.890625 -3.515625 3.890625 -3.171875 L 3.890625 0 L 4.75 0 Z M 4.75 -3.25 "/>
</g>
<g id="glyph-2-5">
<path d="M 1.90625 -4.203125 L 3.453125 -4.203125 L 3.453125 -4.84375 L 1.90625 -4.84375 L 1.90625 -6.234375 L 1.15625 -6.234375 L 1.15625 -4.84375 L 0.203125 -4.84375 L 0.203125 -4.203125 L 1.125 -4.203125 L 1.125 -1.296875 C 1.125 -0.640625 1.28125 0.125 2.03125 0.125 C 2.796875 0.125 3.34375 -0.15625 3.625 -0.296875 L 3.453125 -0.9375 C 3.15625 -0.703125 2.8125 -0.578125 2.46875 -0.578125 C 2.0625 -0.578125 1.90625 -0.90625 1.90625 -1.484375 Z M 1.90625 -4.203125 "/>
</g>
<g id="glyph-2-6">
<path d="M 4.75 -3.25 C 4.75 -3.96875 4.578125 -4.96875 3.25 -4.96875 C 2.578125 -4.96875 2.046875 -4.625 1.703125 -4.171875 L 1.703125 -7.5625 L 0.890625 -7.5625 L 0.890625 0 L 1.734375 0 L 1.734375 -2.671875 C 1.734375 -3.390625 2 -4.296875 2.828125 -4.296875 C 3.875 -4.296875 3.890625 -3.515625 3.890625 -3.171875 L 3.890625 0 L 4.75 0 Z M 4.75 -3.25 "/>
</g>
<g id="glyph-2-7">
<path d="M 1.71875 -2.328125 C 1.71875 -3.421875 2.5 -4.203125 3.5625 -4.234375 L 3.5625 -4.96875 C 2.59375 -4.953125 2 -4.421875 1.65625 -3.921875 L 1.65625 -4.90625 L 0.890625 -4.90625 L 0.890625 0 L 1.71875 0 Z M 1.71875 -2.328125 "/>
</g>
<g id="glyph-2-8">
<path d="M 1.921875 -4.203125 L 3.125 -4.203125 L 3.125 -4.84375 L 1.890625 -4.84375 L 1.890625 -6.140625 C 1.890625 -6.953125 2.625 -7.03125 2.90625 -7.03125 C 3.125 -7.03125 3.40625 -7 3.78125 -6.84375 L 3.78125 -7.5625 C 3.65625 -7.609375 3.3125 -7.6875 2.90625 -7.6875 C 1.890625 -7.6875 1.09375 -6.921875 1.09375 -5.828125 L 1.09375 -4.84375 L 0.296875 -4.84375 L 0.296875 -4.203125 L 1.09375 -4.203125 L 1.09375 0 L 1.921875 0 Z M 1.921875 -4.203125 "/>
</g>
<g id="glyph-2-9">
<path d="M 5.109375 -2.40625 C 5.109375 -3.859375 4.03125 -5.03125 2.71875 -5.03125 C 1.390625 -5.03125 0.328125 -3.828125 0.328125 -2.40625 C 0.328125 -0.953125 1.4375 0.125 2.71875 0.125 C 4.03125 0.125 5.109375 -0.984375 5.109375 -2.40625 Z M 2.71875 -0.578125 C 1.96875 -0.578125 1.171875 -1.1875 1.171875 -2.515625 C 1.171875 -3.828125 2 -4.359375 2.71875 -4.359375 C 3.484375 -4.359375 4.265625 -3.796875 4.265625 -2.515625 C 4.265625 -1.21875 3.515625 -0.578125 2.71875 -0.578125 Z M 2.71875 -0.578125 "/>
</g>
<g id="glyph-2-10">
<path d="M 7.78125 -3.25 C 7.78125 -3.984375 7.609375 -4.96875 6.28125 -4.96875 C 5.625 -4.96875 5.0625 -4.65625 4.65625 -4.0625 C 4.375 -4.890625 3.609375 -4.96875 3.265625 -4.96875 C 2.46875 -4.96875 1.96875 -4.515625 1.671875 -4.125 L 1.671875 -4.90625 L 0.890625 -4.90625 L 0.890625 0 L 1.734375 0 L 1.734375 -2.671875 C 1.734375 -3.40625 2.03125 -4.296875 2.828125 -4.296875 C 3.84375 -4.296875 3.90625 -3.59375 3.90625 -3.171875 L 3.90625 0 L 4.75 0 L 4.75 -2.671875 C 4.75 -3.40625 5.046875 -4.296875 5.859375 -4.296875 C 6.875 -4.296875 6.921875 -3.59375 6.921875 -3.171875 L 6.921875 0 L 7.78125 0 Z M 7.78125 -3.25 "/>
</g>
<g id="glyph-2-11">
<path d="M 1.96875 -0.015625 L 1.96875 -0.90625 L 1.0625 -0.90625 L 1.0625 0 L 1.328125 0 L 1.0625 1.359375 L 1.5 1.359375 Z M 1.96875 -0.015625 "/>
</g>
<g id="glyph-2-12">
<path d="M 4.359375 -3.15625 C 4.359375 -4.265625 3.5625 -5.03125 2.546875 -5.03125 C 1.84375 -5.03125 1.359375 -4.859375 0.84375 -4.5625 L 0.90625 -3.84375 C 1.46875 -4.25 2.015625 -4.390625 2.546875 -4.390625 C 3.0625 -4.390625 3.5 -3.953125 3.5 -3.140625 L 3.5 -2.671875 C 1.859375 -2.65625 0.484375 -2.1875 0.484375 -1.234375 C 0.484375 -0.765625 0.78125 0.125 1.71875 0.125 C 1.875 0.125 2.90625 0.09375 3.53125 -0.390625 L 3.53125 0 L 4.359375 0 Z M 3.5 -1.4375 C 3.5 -1.234375 3.5 -0.953125 3.125 -0.75 C 2.8125 -0.5625 2.40625 -0.546875 2.28125 -0.546875 C 1.75 -0.546875 1.265625 -0.796875 1.265625 -1.25 C 1.265625 -2.015625 3.03125 -2.09375 3.5 -2.109375 Z M 3.5 -1.4375 "/>
</g>
<g id="glyph-2-13">
<path d="M 4.734375 -7.5625 L 3.921875 -7.5625 L 3.921875 -4.359375 C 3.34375 -4.84375 2.71875 -4.96875 2.328125 -4.96875 C 1.25 -4.96875 0.390625 -3.828125 0.390625 -2.421875 C 0.390625 -1 1.234375 0.125 2.265625 0.125 C 2.625 0.125 3.265625 0.015625 3.875 -0.5625 L 3.875 0 L 4.734375 0 Z M 3.875 -1.515625 C 3.875 -1.359375 3.875 -1.171875 3.515625 -0.84375 C 3.265625 -0.625 3 -0.546875 2.71875 -0.546875 C 2.046875 -0.546875 1.25 -1.0625 1.25 -2.40625 C 1.25 -3.84375 2.1875 -4.296875 2.828125 -4.296875 C 3.3125 -4.296875 3.640625 -4.046875 3.875 -3.703125 Z M 3.875 -1.515625 "/>
</g>
<g id="glyph-2-14">
<path d="M 4.46875 -4.5625 C 3.828125 -4.921875 3.453125 -5.03125 2.796875 -5.03125 C 1.28125 -5.03125 0.390625 -3.703125 0.390625 -2.421875 C 0.390625 -1.0625 1.390625 0.125 2.75 0.125 C 3.34375 0.125 3.9375 -0.03125 4.53125 -0.4375 L 4.453125 -1.171875 C 3.90625 -0.734375 3.3125 -0.578125 2.765625 -0.578125 C 1.859375 -0.578125 1.25 -1.359375 1.25 -2.4375 C 1.25 -3.28125 1.640625 -4.328125 2.796875 -4.328125 C 3.375 -4.328125 3.734375 -4.25 4.34375 -3.84375 Z M 4.46875 -4.5625 "/>
</g>
<g id="glyph-2-15">
<path d="M 1.703125 -7.5625 L 0.890625 -7.5625 L 0.890625 0 L 1.703125 0 Z M 1.703125 -7.5625 "/>
</g>
<g id="glyph-2-16">
<path d="M 4.75 -4.84375 L 3.890625 -4.84375 L 3.890625 -1.671875 C 3.890625 -0.859375 3.28125 -0.484375 2.578125 -0.484375 C 1.8125 -0.484375 1.734375 -0.765625 1.734375 -1.234375 L 1.734375 -4.84375 L 0.890625 -4.84375 L 0.890625 -1.1875 C 0.890625 -0.40625 1.140625 0.125 2.046875 0.125 C 2.625 0.125 3.390625 -0.046875 3.921875 -0.53125 L 3.921875 0 L 4.75 0 Z M 4.75 -4.84375 "/>
</g>
<g id="glyph-2-17">
<path d="M 1.78125 -7.421875 L 0.8125 -7.421875 L 0.8125 -6.453125 L 1.78125 -6.453125 Z M 1.703125 -4.84375 L 0.890625 -4.84375 L 0.890625 0 L 1.703125 0 Z M 1.703125 -4.84375 "/>
</g>
<g id="glyph-2-18">
<path d="M 1.75 -0.5 C 2.078125 -0.1875 2.5625 0.125 3.21875 0.125 C 4.28125 0.125 5.234375 -0.953125 5.234375 -2.4375 C 5.234375 -3.734375 4.546875 -4.96875 3.5 -4.96875 C 2.84375 -4.96875 2.21875 -4.734375 1.71875 -4.3125 L 1.71875 -4.84375 L 0.890625 -4.84375 L 0.890625 2.109375 L 1.75 2.109375 Z M 1.75 -3.625 C 2 -4.015625 2.4375 -4.265625 2.90625 -4.265625 C 3.734375 -4.265625 4.390625 -3.4375 4.390625 -2.4375 C 4.390625 -1.3125 3.609375 -0.546875 2.796875 -0.546875 C 2.359375 -0.546875 2.078125 -0.765625 1.859375 -1.0625 C 1.75 -1.21875 1.75 -1.25 1.75 -1.4375 Z M 1.75 -3.625 "/>
</g>
<g id="glyph-2-19">
<path d="M 7.28125 -4.84375 L 6.484375 -4.84375 L 5.796875 -2.53125 C 5.671875 -2.140625 5.34375 -1.0625 5.296875 -0.59375 L 5.28125 -0.59375 C 5.234375 -0.921875 4.96875 -1.890625 4.78125 -2.515625 L 4.0625 -4.84375 L 3.296875 -4.84375 L 2.6875 -2.796875 C 2.5625 -2.40625 2.1875 -1.15625 2.15625 -0.59375 L 2.140625 -0.59375 C 2.078125 -1.125 1.71875 -2.359375 1.546875 -2.953125 L 0.984375 -4.84375 L 0.15625 -4.84375 L 1.640625 0 L 2.515625 0 C 2.5625 -0.171875 2.9375 -1.390625 3.1875 -2.25 C 3.34375 -2.75 3.640625 -3.828125 3.671875 -4.234375 L 3.6875 -4.234375 C 3.703125 -3.921875 3.890625 -3.171875 4.03125 -2.703125 L 4.828125 0 L 5.796875 0 Z M 7.28125 -4.84375 "/>
</g>
<g id="glyph-2-20">
<path d="M 4.859375 -4.84375 L 4.046875 -4.84375 L 3.1875 -2.578125 C 2.953125 -1.96875 2.625 -1.09375 2.53125 -0.578125 L 2.515625 -0.578125 C 2.453125 -0.96875 2.171875 -1.71875 2.0625 -2.015625 L 1 -4.84375 L 0.15625 -4.84375 L 2.03125 0 L 2.984375 0 Z M 4.859375 -4.84375 "/>
</g>
<g id="glyph-2-21">
<path d="M 1.96875 -0.90625 L 1.0625 -0.90625 L 1.0625 0 L 1.96875 0 Z M 1.96875 -0.90625 "/>
</g>
<g id="glyph-2-22">
<path d="M 5.078125 -7.265625 C 4.46875 -7.625 3.875 -7.8125 3.078125 -7.8125 C 1.5625 -7.8125 0.609375 -6.734375 0.609375 -5.65625 C 0.609375 -5.1875 0.765625 -4.734375 1.203125 -4.28125 C 1.65625 -3.78125 2.140625 -3.65625 2.78125 -3.5 C 3.703125 -3.265625 3.8125 -3.234375 4.125 -2.96875 C 4.34375 -2.78125 4.578125 -2.421875 4.578125 -1.953125 C 4.578125 -1.234375 3.984375 -0.515625 2.984375 -0.515625 C 2.546875 -0.515625 1.5625 -0.625 0.640625 -1.390625 L 0.484375 -0.515625 C 1.4375 0.09375 2.3125 0.234375 3 0.234375 C 4.4375 0.234375 5.4375 -0.859375 5.4375 -2.0625 C 5.4375 -2.765625 5.109375 -3.296875 4.859375 -3.5625 C 4.359375 -4.09375 3.984375 -4.203125 2.984375 -4.453125 C 2.359375 -4.609375 2.1875 -4.640625 1.859375 -4.921875 C 1.78125 -5 1.46875 -5.3125 1.46875 -5.796875 C 1.46875 -6.4375 2.0625 -7.09375 3.0625 -7.09375 C 3.984375 -7.09375 4.5 -6.734375 4.90625 -6.390625 Z M 5.078125 -7.265625 "/>
</g>
<g id="glyph-2-23">
<path d="M 3.84375 -4.265625 C 4.078125 -4.265625 4.390625 -4.3125 4.640625 -4.3125 C 4.84375 -4.3125 5.265625 -4.28125 5.296875 -4.28125 L 5.171875 -4.96875 C 4.40625 -4.96875 3.78125 -4.75 3.453125 -4.609375 C 3.21875 -4.796875 2.84375 -4.96875 2.40625 -4.96875 C 1.46875 -4.96875 0.671875 -4.171875 0.671875 -3.1875 C 0.671875 -2.78125 0.8125 -2.390625 1.03125 -2.109375 C 0.71875 -1.65625 0.71875 -1.234375 0.71875 -1.171875 C 0.71875 -0.890625 0.8125 -0.578125 1 -0.34375 C 0.4375 -0.015625 0.3125 0.484375 0.3125 0.78125 C 0.3125 1.59375 1.390625 2.25 2.71875 2.25 C 4.0625 2.25 5.140625 1.609375 5.140625 0.765625 C 5.140625 -0.75 3.3125 -0.75 2.890625 -0.75 L 1.9375 -0.75 C 1.78125 -0.75 1.296875 -0.75 1.296875 -1.328125 C 1.296875 -1.453125 1.34375 -1.625 1.421875 -1.71875 C 1.640625 -1.5625 2 -1.40625 2.40625 -1.40625 C 3.390625 -1.40625 4.15625 -2.21875 4.15625 -3.1875 C 4.15625 -3.703125 3.921875 -4.109375 3.796875 -4.28125 Z M 2.40625 -2.03125 C 2 -2.03125 1.4375 -2.28125 1.4375 -3.1875 C 1.4375 -4.09375 2 -4.34375 2.40625 -4.34375 C 2.875 -4.34375 3.390625 -4.03125 3.390625 -3.1875 C 3.390625 -2.328125 2.875 -2.03125 2.40625 -2.03125 Z M 2.90625 0.03125 C 3.140625 0.03125 4.375 0.03125 4.375 0.78125 C 4.375 1.265625 3.625 1.625 2.71875 1.625 C 1.84375 1.625 1.0625 1.28125 1.0625 0.78125 C 1.0625 0.734375 1.0625 0.03125 1.921875 0.03125 Z M 2.90625 0.03125 "/>
</g>
<g id="glyph-2-24">
<path d="M 4.859375 -4.84375 L 4.046875 -4.84375 C 2.625 -1.375 2.609375 -0.875 2.59375 -0.625 L 2.578125 -0.625 C 2.515625 -1.359375 1.640625 -3.375 1.609375 -3.484375 L 1.015625 -4.84375 L 0.15625 -4.84375 L 2.265625 0 C 2.140625 0.34375 1.921875 0.890625 1.875 0.984375 C 1.59375 1.609375 1.40625 1.609375 1.25 1.609375 C 1.078125 1.609375 0.734375 1.578125 0.40625 1.4375 L 0.46875 2.15625 C 0.703125 2.203125 1.015625 2.234375 1.25 2.234375 C 1.640625 2.234375 2.046875 2.109375 2.484375 1 Z M 4.859375 -4.84375 "/>
</g>
<g id="glyph-2-25">
<path d="M 2.953125 -8.171875 C 2.609375 -7.859375 1.875 -7.1875 1.375 -5.84375 C 0.9375 -4.671875 0.859375 -3.515625 0.859375 -2.71875 C 0.859375 0.796875 2.4375 2.25 2.953125 2.71875 L 3.625 2.71875 C 3.09375 2.203125 1.71875 0.796875 1.71875 -2.71875 C 1.71875 -3.34375 1.75 -4.609375 2.1875 -5.90625 C 2.640625 -7.171875 3.265625 -7.8125 3.625 -8.171875 Z M 2.953125 -8.171875 "/>
</g>
<g id="glyph-2-26">
<path d="M 1.890625 -2.046875 L 0.546875 -0.703125 L 0.546875 0 L 4.890625 0 L 4.890625 -0.78125 L 2.90625 -0.78125 C 2.78125 -0.78125 2.65625 -0.765625 2.515625 -0.765625 L 1.328125 -0.765625 C 1.671875 -1.0625 2.515625 -1.890625 2.84375 -2.203125 C 3.046875 -2.40625 3.609375 -2.859375 3.8125 -3.046875 C 4.3125 -3.546875 4.890625 -4.125 4.890625 -5.046875 C 4.890625 -6.296875 4.015625 -7.390625 2.578125 -7.390625 C 1.328125 -7.390625 0.71875 -6.546875 0.453125 -5.609375 C 0.59375 -5.421875 0.640625 -5.359375 0.671875 -5.328125 C 0.6875 -5.296875 0.796875 -5.15625 0.90625 -5 C 1.125 -5.84375 1.421875 -6.703125 2.421875 -6.703125 C 3.453125 -6.703125 4 -5.875 4 -5.03125 C 4 -4.09375 3.375 -3.484375 2.734375 -2.828125 Z M 1.890625 -2.046875 "/>
</g>
<g id="glyph-2-27">
<path d="M 4.984375 -3.5625 C 4.984375 -4.421875 4.9375 -5.4375 4.484375 -6.3125 C 4.03125 -7.125 3.28125 -7.390625 2.71875 -7.390625 C 2.078125 -7.390625 1.3125 -7.09375 0.875 -6.125 C 0.515625 -5.328125 0.453125 -4.421875 0.453125 -3.5625 C 0.453125 -2.6875 0.5 -1.890625 0.828125 -1.09375 C 1.265625 -0.046875 2.09375 0.234375 2.71875 0.234375 C 3.515625 0.234375 4.203125 -0.203125 4.546875 -0.953125 C 4.875 -1.671875 4.984375 -2.390625 4.984375 -3.5625 Z M 2.71875 -0.421875 C 2.15625 -0.421875 1.71875 -0.84375 1.5 -1.625 C 1.3125 -2.25 1.3125 -2.828125 1.3125 -3.6875 C 1.3125 -4.375 1.3125 -5.03125 1.5 -5.625 C 1.5625 -5.828125 1.828125 -6.734375 2.71875 -6.734375 C 3.5625 -6.734375 3.84375 -5.90625 3.921875 -5.703125 C 4.140625 -5.09375 4.140625 -4.359375 4.140625 -3.6875 C 4.140625 -2.96875 4.140625 -2.28125 3.9375 -1.59375 C 3.65625 -0.59375 3.078125 -0.421875 2.71875 -0.421875 Z M 2.71875 -0.421875 "/>
</g>
<g id="glyph-2-28">
<path d="M 3.484375 -3.875 C 4.453125 -4.1875 4.828125 -4.90625 4.828125 -5.484375 C 4.828125 -6.515625 3.90625 -7.390625 2.71875 -7.390625 C 1.5 -7.390625 0.609375 -6.484375 0.609375 -5.484375 C 0.609375 -4.90625 0.984375 -4.1875 1.953125 -3.875 C 1.171875 -3.59375 0.453125 -2.90625 0.453125 -1.96875 C 0.453125 -0.78125 1.46875 0.234375 2.71875 0.234375 C 4.015625 0.234375 4.984375 -0.8125 4.984375 -1.96875 C 4.984375 -2.953125 4.21875 -3.625 3.484375 -3.875 Z M 2.71875 -4.203125 C 1.890625 -4.203125 1.375 -4.734375 1.375 -5.484375 C 1.375 -6.234375 1.90625 -6.765625 2.71875 -6.765625 C 3.578125 -6.765625 4.0625 -6.1875 4.0625 -5.484375 C 4.0625 -4.703125 3.515625 -4.203125 2.71875 -4.203125 Z M 2.71875 -0.421875 C 1.96875 -0.421875 1.34375 -0.953125 1.34375 -1.96875 C 1.34375 -3.125 2.125 -3.53125 2.71875 -3.53125 C 3.34375 -3.53125 4.09375 -3.09375 4.09375 -1.96875 C 4.09375 -0.921875 3.421875 -0.421875 2.71875 -0.421875 Z M 2.71875 -0.421875 "/>
</g>
<g id="glyph-2-29">
<path d="M 5.4375 -2.65625 L 5.4375 -3.328125 L 0 -3.328125 L 0 -2.65625 Z M 5.4375 -2.65625 "/>
</g>
<g id="glyph-2-30">
<path d="M 3.265625 -7.390625 L 3.046875 -7.390625 C 2.40625 -6.734375 1.5 -6.703125 0.96875 -6.671875 L 0.96875 -6.046875 C 1.328125 -6.046875 1.859375 -6.078125 2.40625 -6.296875 L 2.40625 -0.625 L 1.03125 -0.625 L 1.03125 0 L 4.625 0 L 4.625 -0.625 L 3.265625 -0.625 Z M 3.265625 -7.390625 "/>
</g>
<g id="glyph-2-31">
<path d="M 1.671875 -6.453125 L 4.53125 -6.453125 L 4.53125 -7.15625 L 0.890625 -7.15625 L 0.890625 -3.125 L 1.609375 -3.125 C 1.78125 -3.5625 2.1875 -3.984375 2.828125 -3.984375 C 3.34375 -3.984375 3.921875 -3.546875 3.921875 -2.234375 C 3.921875 -0.421875 2.59375 -0.421875 2.5 -0.421875 C 1.765625 -0.421875 1.09375 -0.84375 0.78125 -1.4375 L 0.421875 -0.828125 C 0.875 -0.203125 1.625 0.234375 2.515625 0.234375 C 3.8125 0.234375 4.890625 -0.84375 4.890625 -2.21875 C 4.890625 -3.578125 3.953125 -4.65625 2.828125 -4.65625 C 2.40625 -4.65625 1.984375 -4.5 1.671875 -4.203125 Z M 1.671875 -6.453125 "/>
</g>
<g id="glyph-2-32">
<path d="M 1.28125 2.71875 C 1.625 2.40625 2.359375 1.734375 2.859375 0.390625 C 3.296875 -0.78125 3.375 -1.9375 3.375 -2.71875 C 3.375 -6.25 1.796875 -7.703125 1.28125 -8.171875 L 0.609375 -8.171875 C 1.140625 -7.65625 2.515625 -6.25 2.515625 -2.71875 C 2.515625 -2.109375 2.484375 -0.84375 2.046875 0.453125 C 1.59375 1.71875 0.96875 2.359375 0.609375 2.71875 Z M 1.28125 2.71875 "/>
</g>
<g id="glyph-2-33">
<path d="M 5.59375 -3.59375 L 5.59375 -4.25 L 2 -4.25 L 2 -6.84375 L 3.5 -6.84375 C 3.625 -6.84375 3.765625 -6.828125 3.890625 -6.828125 L 5.890625 -6.828125 L 5.890625 -7.53125 L 1.03125 -7.53125 L 1.03125 0 L 6.046875 0 L 6.046875 -0.78125 L 4.671875 -0.78125 C 4.53125 -0.78125 4.40625 -0.765625 4.28125 -0.765625 L 2 -0.765625 L 2 -3.59375 Z M 5.59375 -3.59375 "/>
</g>
<g id="glyph-2-34">
<path d="M 3.015625 -2.109375 L 3.015625 -2.734375 L 0.125 -2.734375 L 0.125 -2.109375 Z M 3.015625 -2.109375 "/>
</g>
<g id="glyph-2-35">
<path d="M 4.984375 -7.578125 L 4.078125 -7.578125 L 4.078125 -6.671875 L 4.984375 -6.671875 Z M 4.9375 -4.84375 L 4.125 -4.84375 L 4.125 0 L 4.9375 0 Z M 1.921875 -4.203125 L 3.203125 -4.203125 L 3.203125 -4.84375 L 1.890625 -4.84375 L 1.890625 -6.15625 C 1.890625 -6.859375 2.28125 -7.03125 2.546875 -7.03125 C 2.78125 -7.03125 3.015625 -6.953125 3.203125 -6.828125 L 3.203125 -7.5625 C 3.140625 -7.59375 2.875 -7.6875 2.546875 -7.6875 C 1.75 -7.6875 1.09375 -6.921875 1.09375 -5.828125 L 1.09375 -4.84375 L 0.296875 -4.84375 L 0.296875 -4.203125 L 1.09375 -4.203125 L 1.09375 0 L 1.921875 0 Z M 1.921875 -4.203125 "/>
</g>
<g id="glyph-2-36">
<path d="M 2.828125 -2.5 L 4.828125 -4.84375 L 3.9375 -4.84375 L 2.46875 -3.046875 L 0.96875 -4.84375 L 0.0625 -4.84375 L 2.109375 -2.5 L 0 0 L 0.890625 0 L 2.46875 -2.046875 L 4.109375 0 L 5.015625 0 Z M 2.828125 -2.5 "/>
</g>
<g id="glyph-2-37">
<path d="M 1.921875 -4.203125 L 3.125 -4.203125 L 3.125 -4.84375 L 1.890625 -4.84375 L 1.890625 -6.140625 C 1.890625 -6.953125 2.625 -7.03125 2.90625 -7.03125 C 3.125 -7.03125 3.40625 -7 3.78125 -6.84375 L 3.78125 -7.5625 C 3.65625 -7.609375 3.3125 -7.6875 2.90625 -7.6875 C 1.890625 -7.6875 1.09375 -6.921875 1.09375 -5.828125 L 1.09375 -4.84375 L 0.296875 -4.84375 L 0.296875 -4.203125 L 1.09375 -4.203125 L 1.09375 0 L 1.921875 0 Z M 4.9375 -4.203125 L 6.140625 -4.203125 L 6.140625 -4.84375 L 4.90625 -4.84375 L 4.90625 -6.140625 C 4.90625 -6.953125 5.640625 -7.03125 5.921875 -7.03125 C 6.140625 -7.03125 6.4375 -7 6.8125 -6.84375 L 6.8125 -7.5625 C 6.671875 -7.609375 6.34375 -7.6875 5.9375 -7.6875 C 4.90625 -7.6875 4.125 -6.921875 4.125 -5.828125 L 4.125 0 L 4.9375 0 Z M 4.9375 -4.203125 "/>
</g>
<g id="glyph-3-0">
<path d="M 7.34375 -2.46875 C 7.53125 -2.546875 7.5625 -2.625 7.5625 -2.71875 C 7.5625 -2.796875 7.53125 -2.875 7.34375 -2.96875 L 1.3125 -5.796875 C 1.171875 -5.875 1.15625 -5.875 1.140625 -5.875 C 0.90625 -5.875 0.90625 -5.6875 0.90625 -5.484375 L 0.90625 0.046875 C 0.90625 0.234375 0.90625 0.4375 1.125 0.4375 C 1.15625 0.4375 1.171875 0.4375 1.3125 0.359375 Z M 7.34375 -2.46875 "/>
</g>
</g>
<clipPath id="clip-0">
<path clip-rule="nonzero" d="M 0 0 L 453.542969 0 L 453.542969 255.117188 L 0 255.117188 Z M 0 0 "/>
</clipPath>
</defs>
<g clip-path="url(#clip-0)">
<path fill-rule="nonzero" fill="rgb(100%, 100%, 100%)" fill-opacity="1" d="M 0 255.117188 L 453.542969 255.117188 L 453.542969 0 L 0 0 Z M 0 255.117188 "/>
</g>
<g fill="rgb(16.862488%, 25.489807%, 38.430786%)" fill-opacity="1">
<use xlink:href="#glyph-0-0" x="8.504" y="21.057"/>
<use xlink:href="#glyph-0-1" x="16.872138" y="21.057"/>
<use xlink:href="#glyph-0-2" x="27.980401" y="21.057"/>
<use xlink:href="#glyph-0-3" x="35.186497" y="21.057"/>
<use xlink:href="#glyph-0-4" x="38.490427" y="21.057"/>
<use xlink:href="#glyph-0-3" x="43.264843" y="21.057"/>
<use xlink:href="#glyph-0-5" x="46.568772" y="21.057"/>
<use xlink:href="#glyph-0-6" x="52.812239" y="21.057"/>
<use xlink:href="#glyph-0-7" x="59.536303" y="21.057"/>
</g>
<g fill="rgb(16.862488%, 25.489807%, 38.430786%)" fill-opacity="1">
<use xlink:href="#glyph-0-8" x="67.517094" y="21.057"/>
<use xlink:href="#glyph-0-9" x="75.321426" y="21.057"/>
<use xlink:href="#glyph-0-4" x="80.394243" y="21.057"/>
<use xlink:href="#glyph-0-6" x="85.168658" y="21.057"/>
<use xlink:href="#glyph-0-9" x="91.892722" y="21.057"/>
<use xlink:href="#glyph-0-10" x="96.965538" y="21.057"/>
<use xlink:href="#glyph-0-11" x="103.209005" y="21.057"/>
<use xlink:href="#glyph-0-12" x="110.232904" y="21.057"/>
</g>
<path fill-rule="nonzero" fill="rgb(93.348694%, 94.039917%, 95.072937%)" fill-opacity="1" d="M 24.710938 94.078125 L 428.832031 94.078125 L 428.832031 75.832031 L 24.710938 75.832031 Z M 24.710938 94.078125 "/>
<g fill="rgb(16.862488%, 25.489807%, 38.430786%)" fill-opacity="1">
<use xlink:href="#glyph-1-0" x="28.346" y="87.77"/>
<use xlink:href="#glyph-1-1" x="31.528474" y="87.77"/>
<use xlink:href="#glyph-1-2" x="37.533571" y="87.77"/>
<use xlink:href="#glyph-1-3" x="42.736474" y="87.77"/>
<use xlink:href="#glyph-1-4" x="48.741571" y="87.77"/>
<use xlink:href="#glyph-1-5" x="52.96893" y="87.77"/>
<use xlink:href="#glyph-1-6" x="55.722212" y="87.77"/>
<use xlink:href="#glyph-1-7" x="61.975978" y="87.77"/>
<use xlink:href="#glyph-1-8" x="67.178881" y="87.77"/>
<use xlink:href="#glyph-1-4" x="72.782283" y="87.77"/>
<use xlink:href="#glyph-1-5" x="77.009642" y="87.77"/>
<use xlink:href="#glyph-1-9" x="79.762924" y="87.77"/>
<use xlink:href="#glyph-1-3" x="85.61619" y="87.77"/>
</g>
<g fill="rgb(16.862488%, 25.489807%, 38.430786%)" fill-opacity="1">
<use xlink:href="#glyph-1-10" x="95.518682" y="87.77"/>
<use xlink:href="#glyph-1-11" x="103.253697" y="87.77"/>
<use xlink:href="#glyph-1-11" x="107.740483" y="87.77"/>
</g>
<g fill="rgb(16.862488%, 25.489807%, 38.430786%)" fill-opacity="1">
<use xlink:href="#glyph-1-12" x="112.239225" y="87.77"/>
<use xlink:href="#glyph-1-13" x="118.244322" y="87.77"/>
<use xlink:href="#glyph-1-14" x="127.501233" y="87.77"/>
<use xlink:href="#glyph-1-4" x="133.50633" y="87.77"/>
<use xlink:href="#glyph-1-5" x="137.733689" y="87.77"/>
<use xlink:href="#glyph-1-9" x="140.486972" y="87.77"/>
<use xlink:href="#glyph-1-3" x="146.340237" y="87.77"/>
</g>
<path fill-rule="nonzero" fill="rgb(96.673584%, 97.019958%, 97.535706%)" fill-opacity="1" d="M 24.710938 124.316406 L 428.832031 124.316406 L 428.832031 93.582031 L 24.710938 93.582031 Z M 24.710938 124.316406 "/>
<g fill="rgb(0%, 0%, 0%)" fill-opacity="1">
<use xlink:href="#glyph-2-0" x="28.346" y="107.13"/>
<use xlink:href="#glyph-2-1" x="35.619097" y="107.13"/>
<use xlink:href="#glyph-2-2" x="41.255829" y="107.13"/>
<use xlink:href="#glyph-2-3" x="45.437287" y="107.13"/>
<use xlink:href="#glyph-2-4" x="50.285291" y="107.13"/>
<use xlink:href="#glyph-2-5" x="55.922023" y="107.13"/>
</g>
<g fill="rgb(0%, 0%, 0%)" fill-opacity="1">
<use xlink:href="#glyph-2-5" x="63.494029" y="107.13"/>
<use xlink:href="#glyph-2-6" x="67.433305" y="107.13"/>
<use xlink:href="#glyph-2-3" x="73.070037" y="107.13"/>
</g>
<g fill="rgb(0%, 0%, 0%)" fill-opacity="1">
<use xlink:href="#glyph-2-7" x="81.561681" y="107.13"/>
<use xlink:href="#glyph-2-3" x="85.28932" y="107.13"/>
<use xlink:href="#glyph-2-8" x="90.137324" y="107.13"/>
<use xlink:href="#glyph-2-9" x="93.471145" y="107.13"/>
</g>
<g fill="rgb(0%, 0%, 0%)" fill-opacity="1">
<use xlink:href="#glyph-2-7" x="98.62024" y="107.13"/>
<use xlink:href="#glyph-2-10" x="102.34788" y="107.13"/>
<use xlink:href="#glyph-2-11" x="111.014069" y="107.13"/>
</g>
<g fill="rgb(0%, 0%, 0%)" fill-opacity="1">
<use xlink:href="#glyph-2-5" x="117.677347" y="107.13"/>
<use xlink:href="#glyph-2-7" x="121.616623" y="107.13"/>
<use xlink:href="#glyph-2-3" x="125.344263" y="107.13"/>
<use xlink:href="#glyph-2-12" x="130.192267" y="107.13"/>
<use xlink:href="#glyph-2-5" x="135.43518" y="107.13"/>
<use xlink:href="#glyph-2-3" x="139.374456" y="107.13"/>
<use xlink:href="#glyph-2-13" x="144.22246" y="107.13"/>
</g>
<g fill="rgb(0%, 0%, 0%)" fill-opacity="1">
<use xlink:href="#glyph-2-12" x="153.502832" y="107.13"/>
<use xlink:href="#glyph-2-4" x="158.745745" y="107.13"/>
<use xlink:href="#glyph-2-13" x="164.382477" y="107.13"/>
</g>
<g fill="rgb(0%, 0%, 0%)" fill-opacity="1">
<use xlink:href="#glyph-2-14" x="173.651939" y="107.13"/>
<use xlink:href="#glyph-2-9" x="178.499943" y="107.13"/>
<use xlink:href="#glyph-2-4" x="183.954493" y="107.13"/>
<use xlink:href="#glyph-2-5" x="189.591225" y="107.13"/>
<use xlink:href="#glyph-2-7" x="193.530501" y="107.13"/>
<use xlink:href="#glyph-2-9" x="197.258141" y="107.13"/>
<use xlink:href="#glyph-2-15" x="202.712691" y="107.13"/>
</g>
<g fill="rgb(0%, 0%, 0%)" fill-opacity="1">
<use xlink:href="#glyph-2-10" x="208.951605" y="107.13"/>
<use xlink:href="#glyph-2-16" x="217.617794" y="107.13"/>
<use xlink:href="#glyph-2-4" x="223.254526" y="107.13"/>
<use xlink:href="#glyph-2-17" x="228.891258" y="107.13"/>
<use xlink:href="#glyph-2-14" x="231.497442" y="107.13"/>
<use xlink:href="#glyph-2-17" x="236.345446" y="107.13"/>
<use xlink:href="#glyph-2-18" x="238.95163" y="107.13"/>
<use xlink:href="#glyph-2-12" x="244.588362" y="107.13"/>
<use xlink:href="#glyph-2-15" x="249.831275" y="107.13"/>
<use xlink:href="#glyph-2-17" x="252.437459" y="107.13"/>
<use xlink:href="#glyph-2-5" x="255.043643" y="107.13"/>
<use xlink:href="#glyph-2-17" x="258.982919" y="107.13"/>
<use xlink:href="#glyph-2-3" x="261.589103" y="107.13"/>
<use xlink:href="#glyph-2-2" x="266.437108" y="107.13"/>
</g>
<g fill="rgb(0%, 0%, 0%)" fill-opacity="1">
<use xlink:href="#glyph-2-19" x="274.251296" y="107.13"/>
</g>
<g fill="rgb(0%, 0%, 0%)" fill-opacity="1">
<use xlink:href="#glyph-2-9" x="281.410938" y="107.13"/>
<use xlink:href="#glyph-2-16" x="286.865488" y="107.13"/>
<use xlink:href="#glyph-2-15" x="292.50222" y="107.13"/>
<use xlink:href="#glyph-2-13" x="295.108404" y="107.13"/>
</g>
<g fill="rgb(0%, 0%, 0%)" fill-opacity="1">
<use xlink:href="#glyph-2-6" x="304.377866" y="107.13"/>
<use xlink:href="#glyph-2-12" x="310.014598" y="107.13"/>
<use xlink:href="#glyph-2-20" x="315.257512" y="107.13"/>
<use xlink:href="#glyph-2-3" x="320.287698" y="107.13"/>
</g>
<g fill="rgb(0%, 0%, 0%)" fill-opacity="1">
<use xlink:href="#glyph-2-8" x="328.768432" y="107.13"/>
<use xlink:href="#glyph-2-9" x="332.102253" y="107.13"/>
<use xlink:href="#glyph-2-15" x="337.556803" y="107.13"/>
<use xlink:href="#glyph-2-15" x="340.162987" y="107.13"/>
<use xlink:href="#glyph-2-9" x="342.769171" y="107.13"/>
</g>
<g fill="rgb(0%, 0%, 0%)" fill-opacity="1">
<use xlink:href="#glyph-2-19" x="347.918266" y="107.13"/>
</g>
<g fill="rgb(0%, 0%, 0%)" fill-opacity="1">
<use xlink:href="#glyph-2-3" x="355.077909" y="107.13"/>
<use xlink:href="#glyph-2-13" x="359.925913" y="107.13"/>
</g>
<g fill="rgb(0%, 0%, 0%)" fill-opacity="1">
<use xlink:href="#glyph-2-18" x="369.195375" y="107.13"/>
<use xlink:href="#glyph-2-12" x="374.832107" y="107.13"/>
</g>
<g fill="rgb(0%, 0%, 0%)" fill-opacity="1">
<use xlink:href="#glyph-2-7" x="379.769566" y="107.13"/>
<use xlink:href="#glyph-2-12" x="383.497205" y="107.13"/>
<use xlink:href="#glyph-2-15" x="388.740119" y="107.13"/>
<use xlink:href="#glyph-2-15" x="391.346303" y="107.13"/>
<use xlink:href="#glyph-2-3" x="393.952486" y="107.13"/>
<use xlink:href="#glyph-2-15" x="398.800491" y="107.13"/>
</g>
<g fill="rgb(0%, 0%, 0%)" fill-opacity="1">
<use xlink:href="#glyph-2-5" x="28.346" y="120.68"/>
<use xlink:href="#glyph-2-7" x="32.285276" y="120.68"/>
<use xlink:href="#glyph-2-3" x="36.012915" y="120.68"/>
<use xlink:href="#glyph-2-4" x="40.86092" y="120.68"/>
<use xlink:href="#glyph-2-13" x="46.497651" y="120.68"/>
<use xlink:href="#glyph-2-2" x="52.134383" y="120.68"/>
<use xlink:href="#glyph-2-21" x="56.315841" y="120.68"/>
</g>
<g fill="rgb(16.862488%, 25.489807%, 38.430786%)" fill-opacity="1">
<use xlink:href="#glyph-3-0" x="36.225" y="142.597"/>
</g>
<g fill="rgb(0%, 0%, 0%)" fill-opacity="1">
<use xlink:href="#glyph-2-22" x="50.165" y="143.843"/>
<use xlink:href="#glyph-2-5" x="56.226096" y="143.843"/>
<use xlink:href="#glyph-2-12" x="60.165372" y="143.843"/>
<use xlink:href="#glyph-2-23" x="65.408285" y="143.843"/>
<use xlink:href="#glyph-2-23" x="70.862835" y="143.843"/>
<use xlink:href="#glyph-2-3" x="76.317385" y="143.843"/>
<use xlink:href="#glyph-2-7" x="81.165389" y="143.843"/>
<use xlink:href="#glyph-2-3" x="84.893029" y="143.843"/>
<use xlink:href="#glyph-2-13" x="89.741033" y="143.843"/>
</g>
<g fill="rgb(0%, 0%, 0%)" fill-opacity="1">
<use xlink:href="#glyph-2-7" x="99.010495" y="143.843"/>
<use xlink:href="#glyph-2-9" x="102.738135" y="143.843"/>
<use xlink:href="#glyph-2-15" x="108.192685" y="143.843"/>
<use xlink:href="#glyph-2-15" x="110.798869" y="143.843"/>
<use xlink:href="#glyph-2-9" x="113.405053" y="143.843"/>
<use xlink:href="#glyph-2-16" x="118.859603" y="143.843"/>
<use xlink:href="#glyph-2-5" x="124.496335" y="143.843"/>
</g>
<g fill="rgb(0%, 0%, 0%)" fill-opacity="1">
<use xlink:href="#glyph-2-9" x="132.07925" y="143.843"/>
<use xlink:href="#glyph-2-8" x="137.5338" y="143.843"/>
</g>
<g fill="rgb(0%, 0%, 0%)" fill-opacity="1">
<use xlink:href="#glyph-2-5" x="144.500351" y="143.843"/>
<use xlink:href="#glyph-2-6" x="148.439627" y="143.843"/>
<use xlink:href="#glyph-2-3" x="154.076359" y="143.843"/>
</g>
<g fill="rgb(0%, 0%, 0%)" fill-opacity="1">
<use xlink:href="#glyph-2-14" x="162.557094" y="143.843"/>
<use xlink:href="#glyph-2-6" x="167.405098" y="143.843"/>
<use xlink:href="#glyph-2-17" x="173.04183" y="143.843"/>
<use xlink:href="#glyph-2-15" x="175.648014" y="143.843"/>
<use xlink:href="#glyph-2-13" x="178.254198" y="143.843"/>
<use xlink:href="#glyph-2-14" x="183.89093" y="143.843"/>
<use xlink:href="#glyph-2-12" x="188.738934" y="143.843"/>
</g>
<g fill="rgb(0%, 0%, 0%)" fill-opacity="1">
<use xlink:href="#glyph-2-7" x="193.676392" y="143.843"/>
<use xlink:href="#glyph-2-3" x="197.404032" y="143.843"/>
</g>
<g fill="rgb(0%, 0%, 0%)" fill-opacity="1">
<use xlink:href="#glyph-2-2" x="205.895675" y="143.843"/>
<use xlink:href="#glyph-2-16" x="210.077133" y="143.843"/>
<use xlink:href="#glyph-2-1" x="215.713865" y="143.843"/>
<use xlink:href="#glyph-2-2" x="221.350597" y="143.843"/>
<use xlink:href="#glyph-2-17" x="225.532055" y="143.843"/>
<use xlink:href="#glyph-2-13" x="228.138239" y="143.843"/>
<use xlink:href="#glyph-2-24" x="233.774971" y="143.843"/>
</g>
<g fill="rgb(0%, 0%, 0%)" fill-opacity="1">
<use xlink:href="#glyph-2-25" x="242.437888" y="143.843"/>
<use xlink:href="#glyph-2-26" x="246.680436" y="143.843"/>
<use xlink:href="#glyph-2-27" x="252.134986" y="143.843"/>
<use xlink:href="#glyph-2-27" x="257.589536" y="143.843"/>
<use xlink:href="#glyph-2-28" x="263.044086" y="143.843"/>
<use xlink:href="#glyph-2-29" x="268.498636" y="143.843"/>
<use xlink:href="#glyph-2-26" x="273.953186" y="143.843"/>
<use xlink:href="#glyph-2-27" x="279.407736" y="143.843"/>
<use xlink:href="#glyph-2-30" x="284.862286" y="143.843"/>
<use xlink:href="#glyph-2-31" x="290.316836" y="143.843"/>
<use xlink:href="#glyph-2-32" x="295.771386" y="143.843"/>
</g>
<g fill="rgb(16.862488%, 25.489807%, 38.430786%)" fill-opacity="1">
<use xlink:href="#glyph-3-0" x="36.225" y="159.135"/>
</g>
<g fill="rgb(0%, 0%, 0%)" fill-opacity="1">
<use xlink:href="#glyph-2-33" x="50.165" y="160.381"/>
<use xlink:href="#glyph-2-20" x="56.679915" y="160.381"/>
<use xlink:href="#glyph-2-3" x="61.710101" y="160.381"/>
<use xlink:href="#glyph-2-4" x="66.558105" y="160.381"/>
<use xlink:href="#glyph-2-5" x="72.194837" y="160.381"/>
<use xlink:href="#glyph-2-34" x="76.134113" y="160.381"/>
<use xlink:href="#glyph-2-2" x="79.770116" y="160.381"/>
<use xlink:href="#glyph-2-5" x="83.951574" y="160.381"/>
<use xlink:href="#glyph-2-16" x="87.89085" y="160.381"/>
<use xlink:href="#glyph-2-13" x="93.527582" y="160.381"/>
<use xlink:href="#glyph-2-24" x="99.164314" y="160.381"/>
</g>
<g fill="rgb(0%, 0%, 0%)" fill-opacity="1">
<use xlink:href="#glyph-2-2" x="107.82723" y="160.381"/>
<use xlink:href="#glyph-2-18" x="112.008688" y="160.381"/>
</g>
<g fill="rgb(0%, 0%, 0%)" fill-opacity="1">
<use xlink:href="#glyph-2-3" x="117.950875" y="160.381"/>
<use xlink:href="#glyph-2-14" x="122.798879" y="160.381"/>
<use xlink:href="#glyph-2-17" x="127.646883" y="160.381"/>
<use xlink:href="#glyph-2-35" x="130.253067" y="160.381"/>
<use xlink:href="#glyph-2-14" x="136.101435" y="160.381"/>
<use xlink:href="#glyph-2-12" x="140.949439" y="160.381"/>
<use xlink:href="#glyph-2-5" x="146.192353" y="160.381"/>
<use xlink:href="#glyph-2-17" x="150.131629" y="160.381"/>
<use xlink:href="#glyph-2-9" x="152.737813" y="160.381"/>
<use xlink:href="#glyph-2-4" x="158.192363" y="160.381"/>
</g>
<g fill="rgb(0%, 0%, 0%)" fill-opacity="1">
<use xlink:href="#glyph-2-19" x="167.472734" y="160.381"/>
<use xlink:href="#glyph-2-17" x="174.926922" y="160.381"/>
<use xlink:href="#glyph-2-5" x="177.533106" y="160.381"/>
<use xlink:href="#glyph-2-6" x="181.472382" y="160.381"/>
</g>
<g fill="rgb(0%, 0%, 0%)" fill-opacity="1">
<use xlink:href="#glyph-2-10" x="190.741844" y="160.381"/>
<use xlink:href="#glyph-2-16" x="199.408033" y="160.381"/>
<use xlink:href="#glyph-2-4" x="205.044765" y="160.381"/>
<use xlink:href="#glyph-2-17" x="210.681497" y="160.381"/>
<use xlink:href="#glyph-2-14" x="213.287681" y="160.381"/>
<use xlink:href="#glyph-2-17" x="218.135685" y="160.381"/>
<use xlink:href="#glyph-2-18" x="220.741869" y="160.381"/>
<use xlink:href="#glyph-2-12" x="226.378601" y="160.381"/>
<use xlink:href="#glyph-2-15" x="231.621515" y="160.381"/>
<use xlink:href="#glyph-2-17" x="234.227699" y="160.381"/>
<use xlink:href="#glyph-2-5" x="236.833883" y="160.381"/>
</g>
<g fill="rgb(0%, 0%, 0%)" fill-opacity="1">
<use xlink:href="#glyph-2-24" x="240.467704" y="160.381"/>
</g>
<g fill="rgb(0%, 0%, 0%)" fill-opacity="1">
<use xlink:href="#glyph-2-12" x="249.13062" y="160.381"/>
<use xlink:href="#glyph-2-4" x="254.373534" y="160.381"/>
<use xlink:href="#glyph-2-13" x="260.010266" y="160.381"/>
</g>
<g fill="rgb(0%, 0%, 0%)" fill-opacity="1">
<use xlink:href="#glyph-2-24" x="269.290637" y="160.381"/>
</g>
<g fill="rgb(0%, 0%, 0%)" fill-opacity="1">
<use xlink:href="#glyph-2-3" x="274.015368" y="160.381"/>
<use xlink:href="#glyph-2-12" x="278.863372" y="160.381"/>
</g>
<g fill="rgb(0%, 0%, 0%)" fill-opacity="1">
<use xlink:href="#glyph-2-7" x="283.800831" y="160.381"/>
</g>
<g fill="rgb(0%, 0%, 0%)" fill-opacity="1">
<use xlink:href="#glyph-2-35" x="291.161201" y="160.381"/>
<use xlink:href="#glyph-2-36" x="297.009569" y="160.381"/>
<use xlink:href="#glyph-2-3" x="302.039755" y="160.381"/>
<use xlink:href="#glyph-2-13" x="306.887759" y="160.381"/>
</g>
<g fill="rgb(0%, 0%, 0%)" fill-opacity="1">
<use xlink:href="#glyph-2-3" x="316.168131" y="160.381"/>
<use xlink:href="#glyph-2-37" x="321.016135" y="160.381"/>
<use xlink:href="#glyph-2-3" x="327.379413" y="160.381"/>
<use xlink:href="#glyph-2-14" x="332.227417" y="160.381"/>
<use xlink:href="#glyph-2-5" x="337.075421" y="160.381"/>
<use xlink:href="#glyph-2-2" x="341.014697" y="160.381"/>
</g>
<g fill="rgb(16.862488%, 25.489807%, 38.430786%)" fill-opacity="1">
<use xlink:href="#glyph-3-0" x="36.225" y="175.673"/>
</g>
<g fill="rgb(0%, 0%, 0%)" fill-opacity="1">
<use xlink:href="#glyph-2-22" x="50.165" y="176.919"/>
<use xlink:href="#glyph-2-5" x="56.226096" y="176.919"/>
<use xlink:href="#glyph-2-12" x="60.165372" y="176.919"/>
<use xlink:href="#glyph-2-4" x="65.408285" y="176.919"/>
<use xlink:href="#glyph-2-13" x="71.045017" y="176.919"/>
<use xlink:href="#glyph-2-12" x="76.681749" y="176.919"/>
</g>
<g fill="rgb(0%, 0%, 0%)" fill-opacity="1">
<use xlink:href="#glyph-2-7" x="81.619208" y="176.919"/>
<use xlink:href="#glyph-2-13" x="85.346847" y="176.919"/>
</g>
<g fill="rgb(0%, 0%, 0%)" fill-opacity="1">
<use xlink:href="#glyph-2-3" x="94.61631" y="176.919"/>
<use xlink:href="#glyph-2-7" x="99.464314" y="176.919"/>
<use xlink:href="#glyph-2-7" x="103.191953" y="176.919"/>
<use xlink:href="#glyph-2-9" x="106.919593" y="176.919"/>
</g>
<g fill="rgb(0%, 0%, 0%)" fill-opacity="1">
<use xlink:href="#glyph-2-7" x="112.068688" y="176.919"/>
<use xlink:href="#glyph-2-2" x="115.796327" y="176.919"/>
</g>
<g fill="rgb(0%, 0%, 0%)" fill-opacity="1">
<use xlink:href="#glyph-2-14" x="123.621425" y="176.919"/>
<use xlink:href="#glyph-2-15" x="128.469429" y="176.919"/>
<use xlink:href="#glyph-2-16" x="131.075613" y="176.919"/>
<use xlink:href="#glyph-2-2" x="136.712345" y="176.919"/>
<use xlink:href="#glyph-2-5" x="140.893803" y="176.919"/>
<use xlink:href="#glyph-2-3" x="144.833079" y="176.919"/>
<use xlink:href="#glyph-2-7" x="149.681083" y="176.919"/>
<use xlink:href="#glyph-2-3" x="153.408722" y="176.919"/>
<use xlink:href="#glyph-2-13" x="158.256726" y="176.919"/>
</g>
<g fill="rgb(0%, 0%, 0%)" fill-opacity="1">
<use xlink:href="#glyph-2-12" x="167.526189" y="176.919"/>
<use xlink:href="#glyph-2-5" x="172.769102" y="176.919"/>
</g>
<g fill="rgb(0%, 0%, 0%)" fill-opacity="1">
<use xlink:href="#glyph-2-5" x="180.352018" y="176.919"/>
<use xlink:href="#glyph-2-6" x="184.291294" y="176.919"/>
<use xlink:href="#glyph-2-3" x="189.928026" y="176.919"/>
</g>
<g fill="rgb(0%, 0%, 0%)" fill-opacity="1">
<use xlink:href="#glyph-2-10" x="198.40876" y="176.919"/>
<use xlink:href="#glyph-2-16" x="207.074949" y="176.919"/>
<use xlink:href="#glyph-2-4" x="212.711681" y="176.919"/>
<use xlink:href="#glyph-2-17" x="218.348413" y="176.919"/>
<use xlink:href="#glyph-2-14" x="220.954597" y="176.919"/>
<use xlink:href="#glyph-2-17" x="225.802601" y="176.919"/>
<use xlink:href="#glyph-2-18" x="228.408785" y="176.919"/>
<use xlink:href="#glyph-2-12" x="234.045517" y="176.919"/>
<use xlink:href="#glyph-2-15" x="239.28843" y="176.919"/>
<use xlink:href="#glyph-2-17" x="241.894614" y="176.919"/>
<use xlink:href="#glyph-2-5" x="244.500798" y="176.919"/>
</g>
<g fill="rgb(0%, 0%, 0%)" fill-opacity="1">
<use xlink:href="#glyph-2-24" x="248.13462" y="176.919"/>
</g>
<g fill="rgb(0%, 0%, 0%)" fill-opacity="1">
<use xlink:href="#glyph-2-15" x="256.797536" y="176.919"/>
<use xlink:href="#glyph-2-3" x="259.40372" y="176.919"/>
<use xlink:href="#glyph-2-20" x="264.251724" y="176.919"/>
<use xlink:href="#glyph-2-3" x="269.28191" y="176.919"/>
<use xlink:href="#glyph-2-15" x="274.129914" y="176.919"/>
</g>
</svg>
