<svg class="typst-doc" viewBox="0 0 211.48425196850394 103.02007874015747" width="211.48425196850394pt" height="103.02007874015747pt" xmlns="http://www.w3.org/2000/svg" xmlns:xlink="http://www.w3.org/1999/xlink" xmlns:h5="http://www.w3.org/1999/xhtml">
    <g>
        <g class="typst-group" transform="matrix(1 0 0 1 6 6)">
            <g>
                <path class="typst-shape" fill="#dbebef" fill-rule="nonzero" stroke="#131516" stroke-width="1.1" stroke-linecap="butt" stroke-linejoin="miter" stroke-miterlimit="4" transform="matrix(1 0 0 1 0 26.010590551181103)" d="M 0 0m 11.905512 0 c -6.569271 0 -11.905512 5.336241 -11.905512 11.905512 c 0 6.569271 5.336241 11.905512 11.905512 11.905512 c 6.569271 0 11.905512 -5.336241 11.905512 -11.905512 c 0 -6.569271 -5.336241 -11.905512 -11.905512 -11.905512 Z "/>
                <path class="typst-shape" fill="none" transform="matrix(1 0 0 1 5.217511811023622 33.80760236220472)" d="M 0 0h 13.376 v 8.217 h -13.376 v -8.217 Z "/>
                <g class="typst-group">
                    <g>
                        <g class="typst-group" transform="matrix(1 0 0 1 5.217511748031495 33.807602362204726)">
                            <g>
                                <g class="typst-text" transform="matrix(1 0 0 -1 0 8.063)">
                                    <use xlink:href="#g4D0E96506D43DD8638EB4236E8CF5E07" x="0" y="0" fill="#131516" fill-rule="nonzero"/>
                                    <use xlink:href="#g5CC242E84FFD0225700CE56202778863" x="7.106" y="0" fill="#131516" fill-rule="nonzero"/>
                                </g>
                            </g>
                        </g>
                    </g>
                </g>
                <path class="typst-shape" fill="#dbebef" fill-rule="nonzero" stroke="#131516" stroke-width="1.1" stroke-linecap="butt" stroke-linejoin="miter" stroke-miterlimit="4" transform="matrix(1 0 0 1 56.69291338582677 26.010590551181103)" d="M 0 0m 11.905512 0 c -6.569271 0 -11.905512 5.336241 -11.905512 11.905512 c 0 6.569271 5.336241 11.905512 11.905512 11.905512 c 6.569271 0 11.905512 -5.336241 11.905512 -11.905512 c 0 -6.569271 -5.336241 -11.905512 -11.905512 -11.905512 Z "/>
                <path class="typst-shape" fill="none" transform="matrix(1 0 0 1 61.9104251968504 33.80760236220472)" d="M 0 0h 13.376 v 8.217 h -13.376 v -8.217 Z "/>
                <g class="typst-group">
                    <g>
                        <g class="typst-group" transform="matrix(1 0 0 1 61.91042513385827 33.807602362204726)">
                            <g>
                                <g class="typst-text" transform="matrix(1 0 0 -1 0 8.063)">
                                    <use xlink:href="#g4D0E96506D43DD8638EB4236E8CF5E07" x="0" y="0" fill="#131516" fill-rule="nonzero"/>
                                    <use xlink:href="#g549049BFDC030E39B7DF54875D53E0D3" x="7.106" y="0" fill="#131516" fill-rule="nonzero"/>
                                </g>
                            </g>
                        </g>
                    </g>
                </g>
                <path class="typst-shape" fill="#dbebef" fill-rule="nonzero" stroke="#131516" stroke-width="1.1" stroke-linecap="butt" stroke-linejoin="miter" stroke-miterlimit="4" transform="matrix(1 0 0 1 113.38582677165354 26.010590551181103)" d="M 0 0m 11.905512 0 c -6.569271 0 -11.905512 5.336241 -11.905512 11.905512 c 0 6.569271 5.336241 11.905512 11.905512 11.905512 c 6.569271 0 11.905512 -5.336241 11.905512 -11.905512 c 0 -6.569271 -5.336241 -11.905512 -11.905512 -11.905512 Z "/>
                <path class="typst-shape" fill="none" transform="matrix(1 0 0 1 118.60333858267718 33.80760236220472)" d="M 0 0h 13.376 v 8.217 h -13.376 v -8.217 Z "/>
                <g class="typst-group">
                    <g>
                        <g class="typst-group" transform="matrix(1 0 0 1 118.60333851968504 33.807602362204726)">
                            <g>
                                <g class="typst-text" transform="matrix(1 0 0 -1 0 8.063)">
                                    <use xlink:href="#g4D0E96506D43DD8638EB4236E8CF5E07" x="0" y="0" fill="#131516" fill-rule="nonzero"/>
                                    <use xlink:href="#g863F22EBDB3607D9E33AD874A99572BC" x="7.106" y="0" fill="#131516" fill-rule="nonzero"/>
                                </g>
                            </g>
                        </g>
                    </g>
                </g>
                <path class="typst-shape" fill="#dbebef" fill-rule="nonzero" stroke="#131516" stroke-width="1.1" stroke-linecap="butt" stroke-linejoin="miter" stroke-miterlimit="4" transform="matrix(1 0 0 1 170.07874015748033 26.010590551181103)" d="M 0 0m 11.905512 0 c -6.569271 0 -11.905512 5.336241 -11.905512 11.905512 c 0 6.569271 5.336241 11.905512 11.905512 11.905512 c 6.569271 0 11.905512 -5.336241 11.905512 -11.905512 c 0 -6.569271 -5.336241 -11.905512 -11.905512 -11.905512 Z "/>
                <path class="typst-shape" fill="none" transform="matrix(1 0 0 1 175.29625196850392 33.80760236220472)" d="M 0 0h 13.376 v 8.217 h -13.376 v -8.217 Z "/>
                <g class="typst-group">
                    <g>
                        <g class="typst-group" transform="matrix(1 0 0 1 175.2962519055118 33.807602362204726)">
                            <g>
                                <g class="typst-text" transform="matrix(1 0 0 -1 0 8.063)">
                                    <use xlink:href="#g4D0E96506D43DD8638EB4236E8CF5E07" x="0" y="0" fill="#131516" fill-rule="nonzero"/>
                                    <use xlink:href="#gA1961FC9901FF7FCEB89B58758ECC4EF" x="7.106" y="0" fill="#131516" fill-rule="nonzero"/>
                                </g>
                            </g>
                        </g>
                    </g>
                </g>
                <path class="typst-shape" fill="none" stroke="#131516" stroke-width="1.1" stroke-linecap="butt" stroke-linejoin="miter" stroke-miterlimit="4" transform="matrix(1 0 0 1 26.07874015748031 37.916102362204725)" d="M 0 0h 21.110765 "/>
                <path class="typst-shape" fill="#131516" fill-rule="nonzero" stroke="#131516" stroke-width="1.1" stroke-linecap="butt" stroke-linejoin="miter" stroke-miterlimit="4" transform="matrix(1 0 0 1 47.18950469291338 35.79011811023622)" d="M 0 0m 5.6692915 2.1259842 l -5.6692915 2.1259842 v -4.2519684 l 5.6692915 2.1259842 Z "/>
                <path class="typst-shape" fill="none" stroke="#131516" stroke-width="1.1" stroke-linecap="butt" stroke-linejoin="miter" stroke-miterlimit="4" transform="matrix(1 0 0 1 82.77165354330708 37.916102362204725)" d="M 0 0h 21.110765 "/>
                <path class="typst-shape" fill="#131516" fill-rule="nonzero" stroke="#131516" stroke-width="1.1" stroke-linecap="butt" stroke-linejoin="miter" stroke-miterlimit="4" transform="matrix(1 0 0 1 103.88241807874014 35.79011811023622)" d="M 0 0m 5.6692915 2.1259842 l -5.6692915 2.1259842 v -4.2519684 l 5.6692915 2.1259842 Z "/>
                <path class="typst-shape" fill="none" stroke="#131516" stroke-width="1.1" stroke-linecap="butt" stroke-linejoin="miter" stroke-miterlimit="4" transform="matrix(1 0 0 1 139.46456692913387 37.916102362204725)" d="M 0 0h 21.110765 "/>
                <path class="typst-shape" fill="#131516" fill-rule="nonzero" stroke="#131516" stroke-width="1.1" stroke-linecap="butt" stroke-linejoin="miter" stroke-miterlimit="4" transform="matrix(1 0 0 1 160.57533146456691 35.79011811023622)" d="M 0 0m 5.6692915 2.1259842 l -5.6692915 2.1259842 v -4.2519684 l 5.6692915 2.1259842 Z "/>
                <path class="typst-shape" fill="none" stroke="#107895" stroke-width="1.1" stroke-linecap="butt" stroke-linejoin="miter" stroke-miterlimit="4" transform="matrix(1 0 0 1 181.98425196850394 13.821614173228348)" d="M 0 0m 0 12.188976 v -12.188976 "/>
                <path class="typst-shape" fill="none" transform="matrix(1 0 0 1 164.48425196850394 0)" d="M 0 0h 35 v 13.47 h -35 v -13.47 Z "/>
                <g class="typst-group">
                    <g>
                        <g class="typst-group" transform="matrix(1 0 0 1 164.4842518582677 -0.00000004724409794959691)">
                            <g>
                                <g class="typst-group">
                                    <g>
                                        <path class="typst-shape" fill="#107895" fill-rule="nonzero" d="M 0 0m 0 3 c 0 -1.6568543 1.3431457 -3 3 -3 h 29 c 1.6568527 0 3 1.3431457 3 3 v 7.33 c 0 1.6568546 -1.3431473 3 -3 3 h -29 c -1.6568543 0 -3 -1.3431454 -3 -3 Z "/>
                                        <g class="typst-text" transform="matrix(1 0 0 -1 5 10.329999999999998)">
                                            <use xlink:href="#gA060F6716F5A860B0D1A10D70D6BFE7E" x="0" y="0" fill="#ffffff" fill-rule="nonzero"/>
                                            <use xlink:href="#g725A78258FFDDAACF34D2ED69D60226C" x="9.64" y="0" fill="#ffffff" fill-rule="nonzero"/>
                                            <use xlink:href="#gD1C34BBD0CDA070C80328E14FC8C43B9" x="15.55" y="0" fill="#ffffff" fill-rule="nonzero"/>
                                            <use xlink:href="#gEB11A7A816BF63635AC01A86E278DE8E" x="18.59" y="0" fill="#ffffff" fill-rule="nonzero"/>
                                        </g>
                                    </g>
                                </g>
                            </g>
                        </g>
                    </g>
                </g>
                <path class="typst-shape" fill="none" stroke="#9a2515" stroke-width="1.1" stroke-linecap="butt" stroke-linejoin="miter" stroke-miterlimit="4" transform="matrix(1 0 0 1 68.5984251968504 49.82161417322834)" d="M 0 0v 12.188976 "/>
                <path class="typst-shape" fill="none" transform="matrix(1 0 0 1 49.963425196850395 62.43220472440945)" d="M 0 0h 37.27 v 13.33 h -37.27 v -13.33 Z "/>
                <g class="typst-group">
                    <g>
                        <g class="typst-group" transform="matrix(1 0 0 1 49.96342516535433 62.4322046929134)">
                            <g>
                                <g class="typst-group">
                                    <g>
                                        <path class="typst-shape" fill="#9a2515" fill-rule="nonzero" d="M 0 0m 0 3 c 0 -1.6568543 1.3431457 -3 3 -3 h 31.27 c 1.6568527 0 3 1.3431457 3 3 v 7.33 c 0 1.6568546 -1.3431473 3 -3 3 h -31.27 c -1.6568543 0 -3 -1.3431454 -3 -3 Z "/>
                                        <g class="typst-text" transform="matrix(1 0 0 -1 5 10.329999999999998)">
                                            <use xlink:href="#gF70F7E0B7C3B7E7A7E3A042CEA1193BB" x="0" y="0" fill="#ffffff" fill-rule="nonzero"/>
                                            <use xlink:href="#g927FDD6F0EE7CE6787122BE4224DF904" x="7.57" y="0" fill="#ffffff" fill-rule="nonzero"/>
                                            <use xlink:href="#gD990EE1A9385CBB8B2786C033CE2DF4F" x="13.719999999999999" y="0" fill="#ffffff" fill-rule="nonzero"/>
                                            <use xlink:href="#gF3DEC648069D83FEEECA57947052AE48" x="20.13" y="0" fill="#ffffff" fill-rule="nonzero"/>
                                        </g>
                                    </g>
                                </g>
                            </g>
                        </g>
                    </g>
                </g>
                <path class="typst-shape" fill="none" transform="matrix(1 0 0 1 13.393425196850387 81.19007874015747)" d="M 0 0h 110.41 v 9.83 h -110.41 v -9.83 Z "/>
                <g class="typst-group">
                    <g>
                        <g class="typst-group" transform="matrix(1 0 0 1 13.393425118110239 81.19007867716536)">
                            <g>
                                <g class="typst-text" transform="matrix(1 0 0 -1 0 7.33)">
                                    <use xlink:href="#g1752B28B6EDA8D9B1972303047C0D9F4" x="0" y="0" fill="#959696" fill-rule="nonzero"/>
                                    <use xlink:href="#g7D22962B46E364F8C14E43751F5E70E2" x="5.64" y="0" fill="#959696" fill-rule="nonzero"/>
                                    <use xlink:href="#g45B024D99F593BF22141524CDEDA7FF8" x="8.39" y="0" fill="#959696" fill-rule="nonzero"/>
                                    <use xlink:href="#g28843F7B1C210678E2A0ABC6512B7DD5" x="14.4" y="0" fill="#959696" fill-rule="nonzero"/>
                                    <use xlink:href="#gE514BCA66035DF906500531A2BB1BF84" x="19.08" y="0" fill="#959696" fill-rule="nonzero"/>
                                    <use xlink:href="#g7D22962B46E364F8C14E43751F5E70E2" x="27.1" y="0" fill="#959696" fill-rule="nonzero"/>
                                    <use xlink:href="#g45B024D99F593BF22141524CDEDA7FF8" x="29.85" y="0" fill="#959696" fill-rule="nonzero"/>
                                    <use xlink:href="#g8ABAA57299B811378868B8A41B2CEFBD" x="33.44" y="0" fill="#959696" fill-rule="nonzero"/>
                                    <use xlink:href="#g22E1F6F8CC68F811825A5F80303F112B" x="38.54" y="0" fill="#959696" fill-rule="nonzero"/>
                                    <use xlink:href="#gCB95B6EC2995525D41FB661CCA3D4DAA" x="46.85" y="0" fill="#959696" fill-rule="nonzero"/>
                                    <use xlink:href="#g1752B28B6EDA8D9B1972303047C0D9F4" x="53.010000000000005" y="0" fill="#959696" fill-rule="nonzero"/>
                                    <use xlink:href="#g7D22962B46E364F8C14E43751F5E70E2" x="58.650000000000006" y="0" fill="#959696" fill-rule="nonzero"/>
                                    <use xlink:href="#g45B024D99F593BF22141524CDEDA7FF8" x="61.400000000000006" y="0" fill="#959696" fill-rule="nonzero"/>
                                    <use xlink:href="#g8ABAA57299B811378868B8A41B2CEFBD" x="67.41" y="0" fill="#959696" fill-rule="nonzero"/>
                                    <use xlink:href="#g22E1F6F8CC68F811825A5F80303F112B" x="72.50999999999999" y="0" fill="#959696" fill-rule="nonzero"/>
                                    <use xlink:href="#g4A55211B581EA73EB1024B90FE68979A" x="78.57999999999998" y="0" fill="#959696" fill-rule="nonzero"/>
                                    <use xlink:href="#g8ABAA57299B811378868B8A41B2CEFBD" x="84.11999999999999" y="0" fill="#959696" fill-rule="nonzero"/>
                                    <use xlink:href="#g89C0A8792B28C3FE85C4D447178E099A" x="89.21999999999998" y="0" fill="#959696" fill-rule="nonzero"/>
                                    <use xlink:href="#gA3F4A2690C00D1F4AD72FA5BB8F4E963" x="94.50999999999999" y="0" fill="#959696" fill-rule="nonzero"/>
                                    <use xlink:href="#gFD27BADA70D5A997C4B0C01C376C3544" x="100.57" y="0" fill="#959696" fill-rule="nonzero"/>
                                    <use xlink:href="#g45B024D99F593BF22141524CDEDA7FF8" x="106.63999999999999" y="0" fill="#959696" fill-rule="nonzero"/>
                                </g>
                            </g>
                        </g>
                    </g>
                </g>
            </g>
        </g>
    </g>
    <defs id="glyph">
        <symbol id="g4D0E96506D43DD8638EB4236E8CF5E07" overflow="visible">
            <path d="M 0 0m 4.224 -0.154 q -0.75900006 0 -1.4135001 0.2805 q -0.6545 0.2805 -1.1494999 0.81949997 q -0.495 0.53900003 -0.77000004 1.3145 q -0.27499998 0.77550006 -0.27499998 1.7765002 q 0 0.9899998 0.286 1.7709999 q 0.28599995 0.78099966 0.78099996 1.3255 q 0.495 0.5444999 1.166 0.83049965 q 0.671 0.28600025 1.441 0.28600025 q 0.74800014 0 1.3309999 -0.3080001 q 0.5830002 -0.3080001 0.95700026 -0.71500015 l -0.68200016 -0.81399965 q -0.31899977 0.31899977 -0.70949984 0.52250004 q -0.39050007 0.2034998 -0.8745003 0.2034998 q -0.70399976 0 -1.2374997 -0.37400007 q -0.5335002 -0.37400007 -0.8360002 -1.0559998 q -0.3024999 -0.68200016 -0.3024999 -1.6389999 q 0 -0.95700026 0.2859999 -1.6555002 q 0.286 -0.69850004 0.8140001 -1.0725 q 0.5279999 -0.374 1.2429998 -0.374 q 0.5500002 0 0.98449993 0.23649997 q 0.43450022 0.23650002 0.79750013 0.63250005 l 0.6930003 -0.814 q -0.49500036 -0.572 -1.1165004 -0.87450004 q -0.6215 -0.3025 -1.4134998 -0.3025 Z "/>
        </symbol>
        <symbol id="g5CC242E84FFD0225700CE56202778863" overflow="visible">
            <path d="M 0 0m 0.935 0 v 1.045 h 1.7820001 v 5.4119997 h -1.452 v 0.803 q 0.572 0.11000013 0.99549997 0.2585001 q 0.42350006 0.14849997 0.77550006 0.35750008 h 0.957 v -6.831 h 1.573 v -1.045 h -4.631 Z "/>
        </symbol>
        <symbol id="g549049BFDC030E39B7DF54875D53E0D3" overflow="visible">
            <path d="M 0 0m 0.484 0 v 0.737 q 1.133 1.1110001 1.9415 1.9745 q 0.80850005 0.8635001 1.2375 1.562 q 0.42900014 0.69850016 0.42900014 1.3144999 q 0 0.44000006 -0.14849997 0.7590003 q -0.14849997 0.31899977 -0.45099998 0.4949999 q -0.3025 0.17600012 -0.76450014 0.17600012 q -0.47300005 0 -0.86899996 -0.26950026 q -0.39600003 -0.26949978 -0.72599995 -0.6324997 l -0.71500003 0.704 q 0.517 0.572 1.0945001 0.8909998 q 0.57749987 0.31899977 1.3804998 0.31899977 q 0.737 0 1.287 -0.29699993 q 0.5500002 -0.29699993 0.85249996 -0.83049965 q 0.30250025 -0.5335002 0.30250025 -1.2485003 q 0 -0.7149997 -0.40150023 -1.4519997 q -0.40149975 -0.7370002 -1.0834999 -1.529 q -0.6819999 -0.79200006 -1.5289998 -1.672 q 0.31899977 0.032999992 0.67649984 0.060499907 q 0.35750008 0.027500033 0.6545 0.027500033 h 2.0679998 v -1.089 h -5.2359996 Z "/>
        </symbol>
        <symbol id="g863F22EBDB3607D9E33AD874A99572BC" overflow="visible">
            <path d="M 0 0m 2.948 -0.154 q -0.638 0 -1.1274999 0.154 q -0.48950005 0.154 -0.8635 0.4125 q -0.374 0.2585 -0.64900005 0.55550003 l 0.61600006 0.81399995 q 0.36299992 -0.352 0.8249999 -0.61599994 q 0.462 -0.264 1.0890001 -0.264 q 0.4619999 0 0.803 0.15399998 q 0.34099984 0.15400004 0.53349996 0.44000006 q 0.19250011 0.2859999 0.19250011 0.6819999 q 0 0.44000006 -0.21449995 0.7535 q -0.21450019 0.31349993 -0.7370002 0.48950005 q -0.52250004 0.17599988 -1.4354999 0.17599988 v 0.94599986 q 0.803 0 1.2595 0.18150043 q 0.45650005 0.18149996 0.65999985 0.48399973 q 0.20350027 0.30250025 0.20350027 0.67649984 q 0 0.52800035 -0.33000016 0.8305001 q -0.32999992 0.30250025 -0.9130001 0.30250025 q -0.4619999 0 -0.8634999 -0.21449995 q -0.4015 -0.21450043 -0.7535 -0.55550003 l -0.66 0.7919998 q 0.48400003 0.4289999 1.056 0.70949984 q 0.572 0.28049994 1.2650001 0.28049994 q 0.72599983 0 1.287 -0.24199963 q 0.5609999 -0.2420001 0.8800001 -0.69850016 q 0.31899977 -0.45650005 0.31899977 -1.1054997 q 0 -0.68200016 -0.3794999 -1.1385002 q -0.3794999 -0.45650005 -1.0174999 -0.69850016 v -0.05499983 q 0.4619999 -0.11000013 0.8414998 -0.37400007 q 0.3794999 -0.26399994 0.5995002 -0.6654999 q 0.21999979 -0.4015 0.21999979 -0.9405 q 0 -0.71500003 -0.36849976 -1.221 q -0.36850023 -0.506 -0.98449993 -0.77549994 q -0.6160002 -0.26950002 -1.3530002 -0.26950002 Z "/>
        </symbol>
        <symbol id="gA1961FC9901FF7FCEB89B58758ECC4EF" overflow="visible">
            <path d="M 0 0m 3.729 0 v 5.06 q 0 0.32999992 0.021999836 0.79750013 q 0.022000074 0.46749973 0.032999992 0.7865 h -0.04399991 q -0.15400004 -0.28600025 -0.31349993 -0.57749987 q -0.15950012 -0.2915001 -0.3355 -0.5995002 l -1.5840001 -2.398 h 4.433 v -0.99 h -5.7200003 v 0.85800004 l 3.223 4.939 h 1.4739997 v -7.876 h -1.1879997 Z "/>
        </symbol>
        <symbol id="gA060F6716F5A860B0D1A10D70D6BFE7E" overflow="visible">
            <path d="M 0 0m 0.78999996 0 v 5.6 h 1.2 l 0.109999895 -0.75 h 0.029999971 q 0.35000014 0.36000013 0.76 0.625 q 0.4100001 0.26499987 0.96000004 0.26499987 q 0.5999999 0 0.96500015 -0.2550001 q 0.36499977 -0.25499964 0.56500006 -0.7249999 q 0.39999962 0.41000032 0.8249998 0.6950002 q 0.4249997 0.28499985 0.96500015 0.28499985 q 0.8999996 0 1.3149996 -0.5949998 q 0.41499996 -0.59500027 0.41499996 -1.655 v -3.49 h -1.4599996 v 3.31 q 0 0.64999986 -0.19000006 0.90999985 q -0.19000006 0.26000023 -0.59000015 0.26000023 q -0.23999977 0 -0.5050001 -0.15500021 q -0.26499987 -0.15499973 -0.5749998 -0.4749999 v -3.85 h -1.4699998 v 3.31 q 0 0.64999986 -0.1900003 0.90999985 q -0.18999982 0.26000023 -0.5899999 0.26000023 q -0.23000002 0 -0.5049999 -0.15500021 q -0.2750001 -0.15499973 -0.56500006 -0.4749999 v -3.85 h -1.47 Z "/>
        </symbol>
        <symbol id="g725A78258FFDDAACF34D2ED69D60226C" overflow="visible">
            <path d="M 0 0m 2.1599998 -0.14 q -0.4899999 0 -0.8649999 0.215 q -0.375 0.215 -0.58 0.59499997 q -0.20499998 0.38 -0.20499998 0.86 q 0 0.88999987 0.77 1.385 q 0.77 0.4949999 2.45 0.67499995 q -0.00999999 0.27999997 -0.10000014 0.49500012 q -0.089999914 0.21499968 -0.29499984 0.3449998 q -0.20500016 0.13000011 -0.55500007 0.13000011 q -0.3900001 0 -0.77 -0.1500001 q -0.38 -0.1500001 -0.77 -0.38999987 l -0.52000004 0.98 q 0.32999998 0.21000004 0.7 0.3699999 q 0.37 0.15999985 0.7800001 0.26499987 q 0.40999985 0.10500002 0.8499999 0.10500002 q 0.71000004 0 1.1899998 -0.27999973 q 0.48000002 -0.2800002 0.72000027 -0.8299999 q 0.23999977 -0.5500002 0.23999977 -1.3600001 v -3.27 h -1.1999998 l -0.10000014 0.59999996 h -0.049999952 q -0.3599999 -0.31999996 -0.78 -0.53 q -0.42000008 -0.21000001 -0.9100001 -0.21000001 Z m 0.49 1.15 q 0.31000018 0 0.56500006 0.14499998 q 0.2550001 0.14499998 0.5150001 0.40499997 v 1.1199999 q -0.68000007 -0.07999992 -1.0800002 -0.22999978 q -0.39999986 -0.1500001 -0.56999993 -0.35500002 q -0.16999996 -0.20500004 -0.16999996 -0.45500004 q 0 -0.33000004 0.20500004 -0.48000002 q 0.20499992 -0.14999998 0.53499985 -0.14999998 Z "/>
        </symbol>
        <symbol id="gD1C34BBD0CDA070C80328E14FC8C43B9" overflow="visible">
            <path d="M 0 0m 0.78999996 0 v 5.6 h 1.47 v -5.6 h -1.47 Z m 0.74 6.5099998 q -0.39 0 -0.62 0.21500015 q -0.22999996 0.21500015 -0.22999996 0.58500004 q 0 0.35999966 0.22999996 0.5799999 q 0.23000002 0.21999979 0.62 0.21999979 q 0.37 0 0.6099999 -0.21999979 q 0.24000001 -0.22000027 0.24000001 -0.5799999 q 0 -0.3699999 -0.24000001 -0.58500004 q -0.23999989 -0.21500015 -0.6099999 -0.21500015 Z "/>
        </symbol>
        <symbol id="gEB11A7A816BF63635AC01A86E278DE8E" overflow="visible">
            <path d="M 0 0m 0.78999996 0 v 5.6 h 1.2 l 0.109999895 -0.74000025 h 0.029999971 q 0.37000012 0.36000013 0.80999994 0.62000036 q 0.44000006 0.25999975 1.01 0.25999975 q 0.90999985 0 1.3200002 -0.5949998 q 0.40999985 -0.59500027 0.40999985 -1.655 v -3.49 h -1.4699998 v 3.31 q 0 0.64999986 -0.18499994 0.90999985 q -0.18500018 0.26000023 -0.60500026 0.26000023 q -0.3399999 0 -0.5949998 -0.16000032 q -0.2550001 -0.15999985 -0.56500006 -0.4699998 v -3.85 h -1.47 Z "/>
        </symbol>
        <symbol id="gF70F7E0B7C3B7E7A7E3A042CEA1193BB" overflow="visible">
            <path d="M 0 0m 0.90999997 0 v 7.41 h 1.4799999 v -2.9299998 h 2.8000002 v 2.9299998 h 1.4699998 v -7.41 h -1.4699998 v 3.1999998 h -2.8000002 v -3.1999998 h -1.4799999 Z "/>
        </symbol>
        <symbol id="g927FDD6F0EE7CE6787122BE4224DF904" overflow="visible">
            <path d="M 0 0m 0.90999997 0 v 7.41 h 4.54 v -1.2399998 h -3.06 v -1.71 h 2.5900002 v -1.24 h -2.5900002 v -1.98 h 3.17 v -1.24 h -4.65 Z "/>
        </symbol>
        <symbol id="gD990EE1A9385CBB8B2786C033CE2DF4F" overflow="visible">
            <path d="M 0 0m -0.04 0 l 2.37 7.41 h 1.75 l 2.37 -7.41 h -1.56 l -1.05 3.86 q -0.17000008 0.58000016 -0.32500005 1.2050002 q -0.15499997 0.625 -0.32500005 1.2149997 h -0.03999996 q -0.13999987 -0.5999999 -0.30499983 -1.2199998 q -0.1650002 -0.6199999 -0.32500005 -1.2 l -1.0600001 -3.86 h -1.4999999 Z m 1.4699999 1.9 v 1.15 h 3.52 v -1.15 h -3.52 Z "/>
        </symbol>
        <symbol id="gF3DEC648069D83FEEECA57947052AE48" overflow="visible">
            <path d="M 0 0m 0.90999997 0 v 7.41 h 2.0299997 q 1.1400001 0 1.9550002 -0.4000001 q 0.81500006 -0.4000001 1.2599998 -1.21 q 0.44500017 -0.80999994 0.44500017 -2.0599997 q 0 -1.25 -0.44000006 -2.08 q -0.44000006 -0.83 -1.2399998 -1.245 q -0.8000002 -0.415 -1.9000001 -0.415 h -2.1100001 Z m 1.4799999 1.1999999 h 0.45000005 q 0.70000005 0 1.2050002 0.255 q 0.50499964 0.255 0.7749996 0.81999993 q 0.26999998 0.56500006 0.26999998 1.4650002 q 0 0.89999986 -0.26999998 1.4449999 q -0.26999998 0.5450001 -0.7749996 0.78999996 q -0.5050001 0.24499989 -1.2050002 0.24499989 h -0.45000005 v -5.02 Z "/>
        </symbol>
        <symbol id="g1752B28B6EDA8D9B1972303047C0D9F4" overflow="visible">
            <path d="M 0 0m 2.75 -2.5 q -0.6600001 0 -1.1700001 0.17000008 q -0.51 0.17000008 -0.78999996 0.495 q -0.27999997 0.32499993 -0.27999997 0.78499997 q 0 0.34999996 0.20999998 0.67499995 q 0.21000004 0.325 0.59 0.555 v 0.049999997 q -0.20999992 0.13 -0.34999996 0.35 q -0.13999999 0.21999997 -0.13999999 0.54 q 0 0.3399999 0.195 0.5999999 q 0.19499993 0.26 0.40499997 0.40999997 v 0.03999996 q -0.26999998 0.21000004 -0.48999995 0.59000015 q -0.22000003 0.37999988 -0.22000003 0.8699999 q 0 0.60000014 0.27999997 1.0350001 q 0.28000003 0.43499994 0.74500006 0.6700001 q 0.46500003 0.23499966 1.005 0.23499966 q 0.24000001 0 0.43499994 -0.03999996 q 0.19499993 -0.03999996 0.33500004 -0.099999905 h 1.8900001 v -0.6999998 h -1.1100001 q 0.19999981 -0.19000006 0.32000017 -0.48000002 q 0.119999886 -0.2900002 0.119999886 -0.6400001 q 0 -0.5799999 -0.26500034 -1.0049999 q -0.26499987 -0.42499995 -0.7149997 -0.6550001 q -0.45000005 -0.23000002 -1.01 -0.23000002 q -0.19000006 0 -0.40499997 0.05000007 q -0.21500015 0.049999952 -0.3950001 0.13999999 q -0.14999998 -0.120000005 -0.25 -0.26999998 q -0.100000024 -0.14999998 -0.100000024 -0.38 q 0 -0.25 0.20000005 -0.42000002 q 0.20000005 -0.17000002 0.75 -0.17000002 h 1.0699999 q 0.9399998 0 1.4150002 -0.30999997 q 0.4749999 -0.31 0.4749999 -0.98 q 0 -0.5 -0.34000015 -0.92999995 q -0.34000015 -0.42999995 -0.9549999 -0.69000006 q -0.615 -0.26 -1.4549999 -0.26 Z m -0.00999999 4.84 q 0.31999993 0 0.5849998 0.16000009 q 0.2650001 0.15999985 0.42000008 0.45000005 q 0.15499997 0.28999996 0.15499997 0.6799998 q 0 0.39999986 -0.15499997 0.6850002 q -0.15499997 0.28499985 -0.41499996 0.43499994 q -0.26 0.1500001 -0.5899999 0.1500001 q -0.31000018 0 -0.57500005 -0.1500001 q -0.265 -0.1500001 -0.41999996 -0.4300003 q -0.15500009 -0.27999973 -0.15500009 -0.6899998 q 0 -0.38999987 0.16000009 -0.6799998 q 0.15999997 -0.2900002 0.41999984 -0.45000005 q 0.26 -0.16000009 0.5700002 -0.16000009 Z m 0.13999987 -4.21 q 0.52 0 0.905 0.16000009 q 0.38500023 0.15999997 0.5999999 0.41499996 q 0.21500015 0.255 0.21500015 0.525 q 0 0.39 -0.2800002 0.53999996 q -0.27999973 0.14999999 -0.8199997 0.14999999 h -0.94000006 q -0.1500001 0 -0.33500004 0.015000001 q -0.18499994 0.015000001 -0.3649999 0.065 q -0.29000008 -0.19999999 -0.42000008 -0.445 q -0.13 -0.245 -0.13 -0.47499996 q 0 -0.43000007 0.41499996 -0.69000006 q 0.41499996 -0.26 1.155 -0.26 Z "/>
        </symbol>
        <symbol id="g7D22962B46E364F8C14E43751F5E70E2" overflow="visible">
            <path d="M 0 0m 0.91999996 0 v 5.43 h 0.91999996 v -5.43 h -0.91999996 Z m 0.46000004 6.5499997 q -0.26999998 0 -0.435 0.16499996 q -0.16500002 0.16499996 -0.16500002 0.44500017 q 0 0.26999998 0.16500002 0.42999983 q 0.16500002 0.16000032 0.435 0.16000032 q 0.26999998 0 0.43999994 -0.16000032 q 0.17000008 -0.15999985 0.17000008 -0.42999983 q 0 -0.2800002 -0.17000008 -0.44500017 q -0.16999996 -0.16499996 -0.43999994 -0.16499996 Z "/>
        </symbol>
        <symbol id="g45B024D99F593BF22141524CDEDA7FF8" overflow="visible">
            <path d="M 0 0m 2.62 -0.13 q -0.56999993 0 -0.90999997 0.225 q -0.3399999 0.225 -0.4849999 0.635 q -0.1450001 0.41000003 -0.1450001 0.95 v 3.0100002 h -0.80999994 v 0.69000006 l 0.86 0.049999714 l 0.100000024 1.5300002 h 0.76 v -1.5300002 h 1.48 v -0.7399998 h -1.48 v -3.04 q 0 -0.49 0.18499994 -0.765 q 0.18499994 -0.27499998 0.655 -0.27499998 q 0.1500001 0 0.31999993 0.044999957 q 0.17000008 0.045000017 0.29999995 0.10500002 l 0.18000007 -0.69 q -0.23000002 -0.08 -0.49 -0.14 q -0.26 -0.059999995 -0.52 -0.059999995 Z "/>
        </symbol>
        <symbol id="g28843F7B1C210678E2A0ABC6512B7DD5" overflow="visible">
            <path d="M 0 0m 2.34 -0.13 q -0.56999993 0 -1.1049999 0.215 q -0.535 0.21499997 -0.915 0.535 l 0.44 0.61 q 0.36 -0.29000002 0.74 -0.47000003 q 0.38 -0.18 0.8699999 -0.18 q 0.53999996 0 0.80500007 0.245 q 0.26499987 0.24499995 0.26499987 0.60499996 q 0 0.27999997 -0.18499994 0.46500003 q -0.18499994 0.18499994 -0.47000003 0.31999993 q -0.28499985 0.13499999 -0.5849998 0.24500012 q -0.3800001 0.14999986 -0.7450001 0.3349998 q -0.3649999 0.18500018 -0.59999996 0.48000002 q -0.23499995 0.29500008 -0.23499995 0.7549999 q 0 0.44000006 0.21999997 0.7850003 q 0.21999997 0.3449998 0.64000005 0.5499997 q 0.41999996 0.20499992 1.01 0.20499992 q 0.5 0 0.93499994 -0.17999983 q 0.43499994 -0.17999983 0.7450001 -0.44000006 l -0.44000006 -0.5699997 q -0.2800002 0.19999981 -0.57500005 0.33999968 q -0.29500008 0.13999987 -0.655 0.13999987 q -0.5200001 0 -0.765 -0.23499966 q -0.245 -0.23500013 -0.245 -0.5550003 q 0 -0.24999976 0.16499996 -0.41999984 q 0.16499996 -0.16999984 0.43499994 -0.28499985 q 0.26999998 -0.11500001 0.56999993 -0.23500013 q 0.3000002 -0.109999895 0.595 -0.24000001 q 0.29500008 -0.12999988 0.53 -0.30999994 q 0.23500013 -0.18000007 0.3800001 -0.44499993 q 0.14499998 -0.265 0.14499998 -0.655 q 0 -0.44000006 -0.2249999 -0.81000006 q -0.22500014 -0.36999997 -0.6600001 -0.585 q -0.43499994 -0.215 -1.085 -0.215 Z "/>
        </symbol>
        <symbol id="gE514BCA66035DF906500531A2BB1BF84" overflow="visible">
            <path d="M 0 0m 1.78 0 l -1.51 5.43 h 0.92999995 l 0.81000006 -3.1399999 q 0.089999914 -0.39 0.16499996 -0.76 q 0.07500005 -0.37 0.15499997 -0.75 h 0.049999952 q 0.09000015 0.38 0.17499995 0.75 q 0.08500004 0.37 0.18500018 0.76 l 0.8499999 3.1399999 h 0.8900001 l 0.8499999 -3.1399999 q 0.099999905 -0.39 0.19500017 -0.76 q 0.09499979 -0.37 0.18499994 -0.75 h 0.049999714 q 0.07999992 0.38 0.16000032 0.75 q 0.07999992 0.37 0.1699996 0.76 l 0.78999996 3.1399999 h 0.8800001 l -1.4699998 -5.43 h -1.1100001 l -0.77999973 2.9299998 q -0.10000038 0.3800001 -0.19000006 0.7650001 q -0.09000015 0.385 -0.1800003 0.79499984 h -0.049999714 q -0.09000015 -0.40999985 -0.17500019 -0.79999995 q -0.0849998 -0.38999987 -0.19499993 -0.78 l -0.77 -2.9099998 h -1.06 Z "/>
        </symbol>
        <symbol id="g8ABAA57299B811378868B8A41B2CEFBD" overflow="visible">
            <path d="M 0 0m 3.06 -0.13 q -0.72 0 -1.295 0.33499998 q -0.57500005 0.33499998 -0.91 0.96999997 q -0.33499998 0.635 -0.33499998 1.5350001 q 0 0.90999985 0.36 1.5450001 q 0.36 0.63499975 0.9599999 0.9749999 q 0.60000014 0.33999968 1.29 0.33999968 q 0.53 0 0.9150002 -0.18999958 q 0.38499975 -0.19000006 0.66499996 -0.4500003 l -0.46000004 -0.5999999 q -0.23000002 0.21000004 -0.49500012 0.34000015 q -0.26499987 0.12999964 -0.58500004 0.12999964 q -0.49 0 -0.8799999 -0.25999975 q -0.39 -0.26000023 -0.61 -0.73 q -0.22000003 -0.47000003 -0.22000003 -1.0999999 q 0 -0.6200001 0.21500003 -1.09 q 0.21500003 -0.47000003 0.5899999 -0.73 q 0.375 -0.26 0.875 -0.26 q 0.3800001 0 0.70000005 0.15499997 q 0.31999993 0.15500003 0.58000016 0.385 l 0.39999962 -0.61999995 q -0.3699999 -0.32000002 -0.8199997 -0.5 q -0.45000005 -0.17999999 -0.94000006 -0.17999999 Z "/>
        </symbol>
        <symbol id="g22E1F6F8CC68F811825A5F80303F112B" overflow="visible">
            <path d="M 0 0m 0.91999996 0 v 7.96 h 0.91999996 v -2.1800003 l -0.03999996 -1.1199999 q 0.3800001 0.3800001 0.80999994 0.645 q 0.43000007 0.26499987 0.99 0.26499987 q 0.86000013 0 1.2599998 -0.5449996 q 0.4000001 -0.5450001 0.4000001 -1.5850003 v -3.4399998 h -0.90999985 v 3.32 q 0 0.76999974 -0.24499989 1.1099999 q -0.24500012 0.34000015 -0.7850001 0.34000015 q -0.42000008 0 -0.75 -0.21000004 q -0.32999992 -0.21000004 -0.73 -0.6200001 v -3.9399998 h -0.91999996 Z "/>
        </symbol>
        <symbol id="gCB95B6EC2995525D41FB661CCA3D4DAA" overflow="visible">
            <path d="M 0 0m 0.11 -1.79 l 3 9.73 h 0.6600001 l -2.99 -9.73 h -0.66999996 Z "/>
        </symbol>
        <symbol id="g4A55211B581EA73EB1024B90FE68979A" overflow="visible">
            <path d="M 0 0m 3.12 -0.13 q -0.73 0 -1.3199999 0.33999997 q -0.59000003 0.34000003 -0.93499994 0.97499996 q -0.34500003 0.635 -0.34500003 1.5250001 q 0 0.66999984 0.19999999 1.1949999 q 0.19999999 0.52499986 0.545 0.89999986 q 0.34500003 0.375 0.78499997 0.5700002 q 0.44000006 0.1949997 0.9000001 0.1949997 q 0.6999998 0 1.1800001 -0.30999994 q 0.48000002 -0.30999994 0.73499966 -0.88499975 q 0.2550001 -0.57500005 0.2550001 -1.355 q 0 -0.1500001 -0.010000229 -0.27999997 q -0.009999752 -0.13000011 -0.029999733 -0.24000001 h -3.6599998 q 0.029999971 -0.58000004 0.265 -1.005 q 0.23500001 -0.42500007 0.625 -0.66 q 0.3900001 -0.23500001 0.9100001 -0.23500001 q 0.39999986 0 0.7249999 0.11500001 q 0.32500005 0.11500001 0.635 0.315 l 0.32000017 -0.61 q -0.35000038 -0.22999999 -0.78999996 -0.39 q -0.4400003 -0.16 -0.99000025 -0.16 Z m -1.7099999 3.2799997 h 2.9099998 q 0 0.8200002 -0.35499978 1.2549999 q -0.35500002 0.43499994 -0.9949999 0.43499994 q -0.3800001 0 -0.71500015 -0.19999981 q -0.33499992 -0.19999981 -0.55999994 -0.5700002 q -0.22500002 -0.3699999 -0.28499997 -0.91999984 Z "/>
        </symbol>
        <symbol id="g89C0A8792B28C3FE85C4D447178E099A" overflow="visible">
            <path d="M 0 0m 0.91999996 0 v 7.96 h 0.9 v -5.3900003 h 0.04000008 l 2.2999997 2.86 h 1.02 l -1.81 -2.1899998 l 2.0500002 -3.24 h -0.99000025 l -1.5899999 2.62 l -1.02 -1.1899999 v -1.43 h -0.9 Z "/>
        </symbol>
        <symbol id="gA3F4A2690C00D1F4AD72FA5BB8F4E963" overflow="visible">
            <path d="M 0 0m 3.03 -0.13 q -0.6600001 0 -1.24 0.33499998 q -0.58000004 0.33499998 -0.92499995 0.96999997 q -0.34500003 0.635 -0.34500003 1.5350001 q 0 0.90999985 0.34500003 1.5450001 q 0.3449999 0.63499975 0.92499995 0.9749999 q 0.5799999 0.33999968 1.24 0.33999968 q 0.5 0 0.9549999 -0.18999958 q 0.45500016 -0.19000006 0.80500007 -0.5600004 q 0.3499999 -0.3699999 0.5499997 -0.89999986 q 0.20000029 -0.53 0.20000029 -1.2099998 q 0 -0.9000001 -0.3499999 -1.5350001 q -0.35000038 -0.635 -0.9200001 -0.96999997 q -0.5700002 -0.33499998 -1.24 -0.33499998 Z m 0 0.76 q 0.47000003 0 0.82500005 0.26 q 0.35500002 0.26 0.5549998 0.73 q 0.20000029 0.4699999 0.20000029 1.09 q 0 0.6299999 -0.20000029 1.0999999 q -0.19999981 0.4699998 -0.5549998 0.73 q -0.35500002 0.25999975 -0.82500005 0.25999975 q -0.47000003 0 -0.82500005 -0.25999975 q -0.35500002 -0.26000023 -0.54999995 -0.73 q -0.19500005 -0.47000003 -0.19500005 -1.0999999 q 0 -0.6200001 0.19500005 -1.09 q 0.19499993 -0.47000003 0.54999995 -0.73 q 0.35500002 -0.26 0.82500005 -0.26 Z "/>
        </symbol>
        <symbol id="gFD27BADA70D5A997C4B0C01C376C3544" overflow="visible">
            <path d="M 0 0m 2.51 -0.13 q -0.86 0 -1.265 0.53999996 q -0.40500003 0.53999996 -0.40500003 1.58 v 3.4399998 h 0.92 v -3.33 q 0 -0.7499999 0.24000001 -1.0949999 q 0.24000001 -0.34500003 0.78 -0.34500003 q 0.41999984 0 0.75 0.22000003 q 0.32999992 0.22000003 0.72 0.6999999 v 3.85 h 0.90999985 v -5.43 h -0.75999975 l -0.07000017 0.84999996 h -0.03000021 q -0.37999988 -0.43999997 -0.8049998 -0.71 q -0.42499995 -0.26999998 -0.9849999 -0.26999998 Z "/>
        </symbol>
    </defs>
</svg>
